{"glyphs":{"0":{"ha":704,"x_min":47,"x_max":657,"o":"m 657 433 q 574 90 657 196 q 351 -15 492 -15 q 130 91 213 -15 q 47 433 47 197 q 133 774 47 668 q 360 879 219 879 q 580 776 503 879 q 657 433 657 674 m 354 121 q 487 192 433 121 q 540 440 540 264 q 487 679 540 613 q 354 746 433 746 q 220 677 274 746 q 167 431 167 608 q 221 190 167 258 q 354 121 275 121 z "},"1":{"ha":704,"x_min":89,"x_max":664,"o":"m 664 60 l 664 0 l 89 0 l 89 60 l 314 99 l 314 740 l 96 740 l 96 801 l 469 857 l 469 97 l 664 60 z "},"2":{"ha":704,"x_min":21,"x_max":650,"o":"m 21 88 l 318 388 q 440 632 440 506 q 401 731 440 693 q 283 768 361 768 q 194 756 236 768 q 88 718 153 744 l 51 799 q 331 872 196 872 q 536 819 460 872 q 613 646 613 765 q 565 483 613 558 q 421 315 518 408 l 179 99 l 524 110 l 578 222 l 650 222 l 631 0 l 50 0 l 21 88 z "},"3":{"ha":704,"x_min":43,"x_max":619,"o":"m 339 872 q 511 824 444 872 q 578 685 578 776 q 533 554 578 610 q 417 465 489 499 q 565 388 511 447 q 619 242 619 328 q 539 49 619 114 q 300 -15 458 -15 q 43 33 172 -15 l 67 119 q 264 78 190 78 q 400 119 347 78 q 453 242 453 160 q 386 377 453 344 q 210 410 319 410 l 204 482 q 417 660 417 507 q 289 772 417 772 q 199 760 251 772 q 92 722 146 749 l 57 797 q 187 851 108 831 q 339 872 265 872 z "},"4":{"ha":704,"x_min":-8,"x_max":661,"o":"m 399 0 l 399 190 l 14 190 l -8 254 l 425 864 l 547 851 l 547 282 l 661 282 l 661 190 l 547 190 l 547 0 l 399 0 m 135 282 l 399 282 l 399 658 l 135 282 z "},"5":{"ha":704,"x_min":54,"x_max":635,"o":"m 590 746 l 235 746 l 219 536 q 485 492 393 533 q 606 392 576 451 q 635 253 635 332 q 552 56 635 129 q 315 -17 469 -17 q 54 33 186 -17 l 82 122 q 191 88 147 97 q 274 79 235 79 q 415 124 361 79 q 468 249 468 169 q 388 399 468 356 q 136 442 307 442 l 100 478 l 136 851 l 590 851 l 590 746 z "},"6":{"ha":704,"x_min":47,"x_max":660,"o":"m 210 450 q 411 532 286 532 q 597 461 535 532 q 660 278 660 390 q 633 142 660 208 q 533 29 606 76 q 338 -18 461 -18 q 108 82 169 -18 q 47 339 47 182 q 111 642 47 522 q 273 817 175 763 q 472 872 371 872 q 540 869 514 872 q 599 858 565 867 l 588 782 q 493 790 526 790 q 357 751 418 790 q 256 634 296 711 q 210 450 217 557 m 207 329 q 238 140 207 210 q 347 71 269 71 q 463 120 424 71 q 501 250 501 169 q 474 386 501 336 q 375 436 446 436 q 279 406 324 436 q 207 329 235 375 z "},"7":{"ha":704,"x_min":53,"x_max":660,"o":"m 63 635 l 53 851 l 636 851 l 660 775 l 336 -17 l 178 1 l 535 743 l 172 743 l 144 635 l 63 635 z "},"8":{"ha":704,"x_min":64,"x_max":633,"o":"m 335 -17 q 125 38 186 -17 q 64 190 64 93 q 106 322 64 260 q 233 432 149 385 q 126 528 163 476 q 89 657 89 581 q 158 812 89 751 q 363 872 228 872 q 562 821 503 872 q 621 686 621 769 q 583 567 621 625 q 449 467 544 510 q 548 406 510 435 q 610 334 586 376 q 633 232 633 292 q 556 51 633 119 q 335 -17 479 -17 m 367 507 q 455 578 426 542 q 483 664 483 615 q 453 760 483 726 q 363 793 422 793 q 267 763 303 793 q 232 671 232 732 q 367 507 232 579 m 335 64 q 444 99 403 64 q 486 200 486 133 q 453 293 486 256 q 351 365 419 331 l 306 390 q 233 305 263 357 q 204 203 204 253 q 240 98 204 132 q 335 64 275 64 z "},"9":{"ha":704,"x_min":43,"x_max":650,"o":"m 85 107 q 258 75 181 75 q 433 151 378 75 q 489 375 488 228 q 297 326 383 326 q 110 397 178 326 q 43 586 43 468 q 108 785 43 697 q 349 872 174 872 q 583 760 517 872 q 650 471 650 647 q 551 94 650 206 q 282 -17 453 -17 q 172 -8 222 -17 q 64 24 121 1 l 85 107 m 492 478 q 461 707 492 631 q 339 783 431 783 q 239 735 276 783 q 201 607 201 686 q 238 466 201 511 q 331 421 274 421 q 492 478 406 421 z "},"\u0000":{"ha":0,"x_min":0,"x_max":0,"o":""},"\r":{"ha":251,"x_min":0,"x_max":0,"o":""}," ":{"ha":251,"x_min":0,"x_max":0,"o":""},"A":{"ha":825,"x_min":-10,"x_max":831,"o":"m 192 86 l 289 57 l 289 0 l -10 0 l -10 56 l 90 88 l 351 851 l 450 869 l 731 88 l 831 57 l 831 0 l 474 0 l 474 57 l 561 83 l 518 213 l 233 213 l 192 86 m 371 621 l 257 283 l 492 283 l 371 621 z "},"Á":{"ha":825,"x_min":-10,"x_max":831,"o":"m 293 889 l 261 929 l 478 1111 l 604 1067 l 604 1036 l 293 889 m 192 86 l 289 57 l 289 0 l -10 0 l -10 56 l 90 88 l 351 851 l 450 869 l 731 88 l 831 57 l 831 0 l 474 0 l 474 57 l 561 83 l 518 213 l 233 213 l 192 86 m 371 621 l 257 283 l 492 283 l 371 621 z "},"Ă":{"ha":825,"x_min":-10,"x_max":831,"o":"m 401 911 q 270 960 307 911 q 233 1089 233 1008 l 303 1092 q 396 1006 303 1006 q 499 1092 499 1006 l 567 1089 q 531 959 567 1007 q 401 911 496 911 m 192 86 l 289 57 l 289 0 l -10 0 l -10 56 l 90 88 l 351 851 l 450 869 l 731 88 l 831 57 l 831 0 l 474 0 l 474 57 l 561 83 l 518 213 l 233 213 l 192 86 m 371 621 l 257 283 l 492 283 l 371 621 z "},"Ắ":{"ha":825,"x_min":-10,"x_max":831,"o":"m 0 0 m 192 86 l 289 57 l 289 0 l -10 0 l -10 56 l 90 88 l 351 851 l 450 869 l 731 88 l 831 57 l 831 0 l 474 0 l 474 57 l 561 83 l 518 213 l 233 213 l 192 86 m 371 621 l 257 283 l 492 283 l 371 621 m 408 911 q 280 959 315 911 q 244 1089 244 1007 l 315 1092 q 337 1031 315 1056 q 411 1006 358 1006 q 489 1031 467 1006 q 511 1092 511 1056 l 578 1089 q 541 960 578 1008 q 408 911 504 911 m 358 1083 l 326 1124 l 542 1306 l 669 1261 l 669 1231 l 358 1083 z "},"Ặ":{"ha":825,"x_min":-10,"x_max":831,"o":"m 0 0 m 192 86 l 289 57 l 289 0 l -10 0 l -10 56 l 90 88 l 351 851 l 450 869 l 731 88 l 831 57 l 831 0 l 474 0 l 474 57 l 561 83 l 518 213 l 233 213 l 192 86 m 371 621 l 257 283 l 492 283 l 371 621 m 518 -165 q 487 -236 518 -207 q 414 -265 456 -265 q 339 -236 371 -265 q 307 -165 307 -207 q 340 -92 307 -124 q 414 -60 372 -60 q 487 -91 456 -60 q 518 -165 518 -122 m 408 911 q 280 959 315 911 q 244 1089 244 1007 l 315 1092 q 337 1031 315 1056 q 411 1006 358 1006 q 489 1031 467 1006 q 511 1092 511 1056 l 578 1089 q 541 960 578 1008 q 408 911 504 911 z "},"Ằ":{"ha":825,"x_min":-10,"x_max":831,"o":"m 0 0 m 192 86 l 289 57 l 289 0 l -10 0 l -10 56 l 90 88 l 351 851 l 450 869 l 731 88 l 831 57 l 831 0 l 474 0 l 474 57 l 561 83 l 518 213 l 233 213 l 192 86 m 371 621 l 257 283 l 492 283 l 371 621 m 408 911 q 280 959 315 911 q 244 1089 244 1007 l 315 1092 q 337 1031 315 1056 q 411 1006 358 1006 q 489 1031 467 1006 q 511 1092 511 1056 l 578 1089 q 541 960 578 1008 q 408 911 504 911 m 471 1083 l 156 1231 l 160 1261 l 285 1306 l 499 1124 l 471 1083 z "},"Ẳ":{"ha":825,"x_min":-10,"x_max":831,"o":"m 0 0 m 192 86 l 289 57 l 289 0 l -10 0 l -10 56 l 90 88 l 351 851 l 450 869 l 731 88 l 831 57 l 831 0 l 474 0 l 474 57 l 561 83 l 518 213 l 233 213 l 192 86 m 371 621 l 257 283 l 492 283 l 371 621 m 408 911 q 280 959 315 911 q 244 1089 244 1007 l 315 1092 q 337 1031 315 1056 q 411 1006 358 1006 q 489 1031 467 1006 q 511 1092 511 1056 l 578 1089 q 541 960 578 1008 q 408 911 504 911 m 561 1231 q 461 1158 561 1172 l 453 1125 l 386 1125 l 381 1183 q 468 1226 468 1183 q 455 1251 468 1242 q 417 1260 442 1260 q 381 1257 408 1260 l 371 1217 l 319 1217 l 311 1290 q 428 1304 381 1304 q 526 1285 490 1304 q 561 1231 561 1265 z "},"Ẵ":{"ha":825,"x_min":-10,"x_max":831,"o":"m 0 0 m 192 86 l 289 57 l 289 0 l -10 0 l -10 56 l 90 88 l 351 851 l 450 869 l 731 88 l 831 57 l 831 0 l 474 0 l 474 57 l 561 83 l 518 213 l 233 213 l 192 86 m 371 621 l 257 283 l 492 283 l 371 621 m 408 911 q 280 959 315 911 q 244 1089 244 1007 l 315 1092 q 337 1031 315 1056 q 411 1006 358 1006 q 489 1031 467 1006 q 511 1092 511 1056 l 578 1089 q 541 960 578 1008 q 408 911 504 911 m 643 1256 q 589 1153 617 1190 q 529 1117 561 1117 q 404 1144 496 1117 q 346 1162 375 1154 q 301 1169 317 1169 q 274 1159 288 1169 q 253 1138 261 1149 q 243 1124 244 1128 l 186 1147 q 238 1248 208 1210 q 301 1286 268 1286 q 422 1258 333 1286 q 483 1241 453 1249 q 529 1233 513 1233 q 557 1244 544 1233 q 578 1265 569 1254 q 588 1279 586 1275 l 643 1256 z "},"Ǎ":{"ha":825,"x_min":-10,"x_max":831,"o":"m 0 0 m 192 86 l 289 57 l 289 0 l -10 0 l -10 56 l 90 88 l 351 851 l 450 869 l 731 88 l 831 57 l 831 0 l 474 0 l 474 57 l 561 83 l 518 213 l 233 213 l 192 86 m 371 621 l 257 283 l 492 283 l 371 621 m 361 894 l 211 1079 l 243 1111 l 414 1001 l 583 1111 l 614 1079 l 467 894 l 361 894 z "},"Â":{"ha":825,"x_min":-10,"x_max":831,"o":"m 571 894 l 399 1004 l 231 894 l 199 925 l 346 1111 l 453 1111 l 600 925 l 571 894 m 192 86 l 289 57 l 289 0 l -10 0 l -10 56 l 90 88 l 351 851 l 450 869 l 731 88 l 831 57 l 831 0 l 474 0 l 474 57 l 561 83 l 518 213 l 233 213 l 192 86 m 371 621 l 257 283 l 492 283 l 371 621 z "},"Ấ":{"ha":825,"x_min":-10,"x_max":835,"o":"m 599 963 l 557 990 l 686 1243 l 821 1243 l 835 1218 l 599 963 m 546 894 l 374 1004 l 206 894 l 174 925 l 322 1111 l 428 1111 l 576 925 l 546 894 m 192 86 l 289 57 l 289 0 l -10 0 l -10 56 l 90 88 l 351 851 l 450 869 l 731 88 l 831 57 l 831 0 l 474 0 l 474 57 l 561 83 l 518 213 l 233 213 l 192 86 m 371 621 l 257 283 l 492 283 l 371 621 z "},"Ậ":{"ha":825,"x_min":-10,"x_max":831,"o":"m 0 0 m 192 86 l 289 57 l 289 0 l -10 0 l -10 56 l 90 88 l 351 851 l 450 869 l 731 88 l 831 57 l 831 0 l 474 0 l 474 57 l 561 83 l 518 213 l 233 213 l 192 86 m 371 621 l 257 283 l 492 283 l 371 621 m 518 -165 q 487 -236 518 -207 q 414 -265 456 -265 q 339 -236 371 -265 q 307 -165 307 -207 q 340 -92 307 -124 q 414 -60 372 -60 q 487 -91 456 -60 q 518 -165 518 -122 m 583 894 l 411 1004 l 243 894 l 211 925 l 360 1111 l 465 1111 l 614 925 l 583 894 z "},"Ầ":{"ha":825,"x_min":-10,"x_max":831,"o":"m 642 961 l 406 1217 l 419 1242 l 554 1242 l 683 989 l 642 961 m 546 894 l 374 1004 l 206 894 l 174 925 l 322 1111 l 428 1111 l 576 925 l 546 894 m 192 86 l 289 57 l 289 0 l -10 0 l -10 56 l 90 88 l 351 851 l 450 869 l 731 88 l 831 57 l 831 0 l 474 0 l 474 57 l 561 83 l 518 213 l 233 213 l 192 86 m 371 621 l 257 283 l 492 283 l 371 621 z "},"Ẩ":{"ha":825,"x_min":-10,"x_max":831,"o":"m 0 0 m 192 86 l 289 57 l 289 0 l -10 0 l -10 56 l 90 88 l 351 851 l 450 869 l 731 88 l 831 57 l 831 0 l 474 0 l 474 57 l 561 83 l 518 213 l 233 213 l 192 86 m 371 621 l 257 283 l 492 283 l 371 621 m 583 894 l 411 1004 l 243 894 l 211 925 l 360 1111 l 465 1111 l 614 925 l 583 894 m 722 1169 q 622 1097 722 1111 l 614 1064 l 547 1064 l 542 1122 q 629 1165 629 1122 q 616 1190 629 1181 q 578 1199 603 1199 q 542 1196 569 1199 l 532 1156 l 481 1156 l 472 1229 q 589 1243 542 1243 q 687 1224 651 1243 q 722 1169 722 1204 z "},"Ẫ":{"ha":825,"x_min":-10,"x_max":831,"o":"m 0 0 m 192 86 l 289 57 l 289 0 l -10 0 l -10 56 l 90 88 l 351 851 l 450 869 l 731 88 l 831 57 l 831 0 l 474 0 l 474 57 l 561 83 l 518 213 l 233 213 l 192 86 m 371 621 l 257 283 l 492 283 l 371 621 m 583 894 l 411 1004 l 243 894 l 211 925 l 360 1111 l 465 1111 l 614 925 l 583 894 m 643 1261 q 589 1159 617 1196 q 529 1122 561 1122 q 404 1150 496 1122 q 346 1167 375 1160 q 301 1175 317 1175 q 274 1165 288 1175 q 253 1144 261 1154 q 243 1129 244 1133 l 186 1153 q 238 1253 208 1215 q 301 1292 268 1292 q 422 1264 333 1292 q 483 1247 453 1254 q 529 1239 513 1239 q 557 1249 544 1239 q 578 1270 569 1260 q 588 1285 586 1281 l 643 1261 z "},"Ȁ":{"ha":825,"x_min":-10,"x_max":831,"o":"m 0 0 m 192 86 l 289 57 l 289 0 l -10 0 l -10 56 l 90 88 l 351 851 l 450 869 l 731 88 l 831 57 l 831 0 l 474 0 l 474 57 l 561 83 l 518 213 l 233 213 l 192 86 m 371 621 l 257 283 l 492 283 l 371 621 m 301 886 l 101 1096 l 101 1124 l 221 1124 l 340 915 l 301 886 m 525 886 l 325 1096 l 325 1124 l 444 1124 l 564 915 l 525 886 z "},"Ä":{"ha":825,"x_min":-10,"x_max":831,"o":"m 349 1000 q 320 935 349 961 q 253 908 292 908 q 185 935 214 908 q 156 1000 156 961 q 185 1067 156 1039 q 253 1094 214 1094 q 320 1067 292 1094 q 349 1000 349 1039 m 651 1000 q 624 935 651 961 q 557 908 596 908 q 488 935 517 908 q 460 1000 460 961 q 488 1067 460 1039 q 557 1094 517 1094 q 623 1067 594 1094 q 651 1000 651 1039 m 192 86 l 289 57 l 289 0 l -10 0 l -10 56 l 90 88 l 351 851 l 450 869 l 731 88 l 831 57 l 831 0 l 474 0 l 474 57 l 561 83 l 518 213 l 233 213 l 192 86 m 371 621 l 257 283 l 492 283 l 371 621 z "},"Ạ":{"ha":825,"x_min":-10,"x_max":831,"o":"m 0 0 m 192 86 l 289 57 l 289 0 l -10 0 l -10 56 l 90 88 l 351 851 l 450 869 l 731 88 l 831 57 l 831 0 l 474 0 l 474 57 l 561 83 l 518 213 l 233 213 l 192 86 m 371 621 l 257 283 l 492 283 l 371 621 m 518 -165 q 487 -236 518 -207 q 414 -265 456 -265 q 339 -236 371 -265 q 307 -165 307 -207 q 340 -92 307 -124 q 414 -60 372 -60 q 487 -91 456 -60 q 518 -165 518 -122 z "},"À":{"ha":825,"x_min":-10,"x_max":831,"o":"m 513 888 l 199 1036 l 201 1065 l 326 1110 l 540 928 l 513 888 m 192 86 l 289 57 l 289 0 l -10 0 l -10 56 l 90 88 l 351 851 l 450 869 l 731 88 l 831 57 l 831 0 l 474 0 l 474 57 l 561 83 l 518 213 l 233 213 l 192 86 m 371 621 l 257 283 l 492 283 l 371 621 z "},"Ả":{"ha":825,"x_min":-10,"x_max":831,"o":"m 0 0 m 192 86 l 289 57 l 289 0 l -10 0 l -10 56 l 90 88 l 351 851 l 450 869 l 731 88 l 831 57 l 831 0 l 474 0 l 474 57 l 561 83 l 518 213 l 233 213 l 192 86 m 371 621 l 257 283 l 492 283 l 371 621 m 558 1036 q 458 964 558 978 l 450 931 l 383 931 l 378 989 q 465 1032 465 989 q 452 1056 465 1047 q 414 1065 439 1065 q 378 1063 406 1065 l 368 1022 l 317 1022 l 308 1096 q 425 1110 378 1110 q 523 1090 488 1110 q 558 1036 558 1071 z "},"Ȃ":{"ha":825,"x_min":-10,"x_max":831,"o":"m 0 0 m 192 86 l 289 57 l 289 0 l -10 0 l -10 56 l 90 88 l 351 851 l 450 869 l 731 88 l 831 57 l 831 0 l 474 0 l 474 57 l 561 83 l 518 213 l 233 213 l 192 86 m 371 621 l 257 283 l 492 283 l 371 621 m 414 1103 q 543 1054 508 1103 q 578 925 578 1006 l 508 922 q 487 983 508 958 q 411 1007 465 1007 q 311 922 311 1007 l 244 925 q 414 1103 244 1103 z "},"Ā":{"ha":825,"x_min":-10,"x_max":831,"o":"m 239 1049 l 563 1049 l 563 951 l 239 951 l 239 1049 m 192 86 l 289 57 l 289 0 l -10 0 l -10 56 l 90 88 l 351 851 l 450 869 l 731 88 l 831 57 l 831 0 l 474 0 l 474 57 l 561 83 l 518 213 l 233 213 l 192 86 m 371 621 l 257 283 l 492 283 l 371 621 z "},"Ą":{"ha":825,"x_min":-10,"x_max":835,"o":"m -10 56 l 90 88 l 351 851 l 451 869 l 735 88 l 835 57 l 835 0 l 668 0 q 586 -24 624 0 q 527 -85 549 -47 q 506 -165 506 -124 q 571 -249 506 -249 q 650 -217 611 -249 l 679 -244 q 661 -268 679 -247 q 610 -307 643 -289 q 533 -325 578 -325 q 431 -290 464 -325 q 397 -206 397 -256 q 423 -112 397 -153 q 499 -17 449 -71 q 544 35 529 15 q 558 74 558 56 q 551 113 558 89 l 518 213 l 235 213 l 194 88 l 290 57 l 290 0 l -10 0 l -10 56 m 372 619 l 260 283 l 492 283 l 372 619 z "},"Å":{"ha":825,"x_min":-10,"x_max":831,"o":"m 399 874 q 287 910 326 874 q 247 1004 247 947 q 287 1101 247 1063 q 399 1139 326 1139 q 511 1101 472 1139 q 550 1004 550 1064 q 511 910 550 946 q 399 874 472 874 m 399 933 q 447 952 435 933 q 460 1004 460 971 q 447 1059 460 1039 q 399 1079 435 1079 q 351 1059 363 1079 q 339 1004 339 1039 q 351 952 339 971 q 399 933 363 933 m -10 0 l -10 56 l 90 88 l 351 851 l 450 869 l 731 88 l 831 57 l 831 0 l 474 0 l 474 57 l 561 83 l 518 213 l 233 213 l 192 86 l 289 57 l 289 0 l -10 0 m 257 283 l 492 283 l 371 621 l 257 283 z "},"Ǻ":{"ha":825,"x_min":-10,"x_max":831,"o":"m 0 0 m 192 86 l 289 57 l 289 0 l -10 0 l -10 56 l 90 88 l 351 851 l 450 869 l 731 88 l 831 57 l 831 0 l 474 0 l 474 57 l 561 83 l 518 213 l 233 213 l 192 86 m 371 621 l 257 283 l 492 283 l 371 621 m 411 874 q 300 910 339 874 q 261 1004 261 946 q 300 1101 261 1064 q 411 1139 339 1139 q 524 1101 485 1139 q 564 1004 564 1064 q 524 910 564 946 q 411 874 485 874 m 411 933 q 460 952 449 933 q 472 1004 472 971 q 460 1059 472 1039 q 411 1079 449 1079 q 363 1059 375 1079 q 351 1004 351 1039 q 363 952 351 971 q 411 933 375 933 m 358 1139 l 326 1179 l 542 1361 l 669 1317 l 669 1286 l 358 1139 z "},"Ã":{"ha":825,"x_min":-10,"x_max":831,"o":"m 635 1061 q 581 958 607 994 q 521 922 554 922 q 397 950 489 922 q 293 975 317 975 q 266 965 279 975 q 244 944 253 954 q 235 929 236 933 l 178 953 q 231 1053 201 1015 q 293 1092 261 1092 q 415 1064 326 1092 q 521 1039 496 1039 q 549 1049 536 1039 q 569 1070 561 1060 q 579 1085 578 1081 l 635 1061 m 192 86 l 289 57 l 289 0 l -10 0 l -10 56 l 90 88 l 351 851 l 450 869 l 731 88 l 831 57 l 831 0 l 474 0 l 474 57 l 561 83 l 518 213 l 233 213 l 192 86 m 371 621 l 257 283 l 492 283 l 371 621 z "},"Æ":{"ha":989,"x_min":-54,"x_max":949,"o":"m -54 0 l -54 56 l 46 88 l 407 772 l 315 794 l 315 851 l 893 851 l 893 656 l 824 656 l 793 765 l 596 765 l 619 436 l 733 436 l 760 528 l 825 528 l 825 267 l 760 267 l 731 363 l 624 363 l 643 90 l 843 90 l 879 218 l 949 218 l 949 0 l 365 0 l 365 57 l 486 88 l 467 357 l 288 357 l 149 88 l 244 57 l 244 0 l -54 0 m 325 431 l 461 431 l 446 664 l 325 431 z "},"Ǽ":{"ha":989,"x_min":-54,"x_max":949,"o":"m 0 0 m -54 0 l -54 56 l 46 88 l 407 772 l 315 794 l 315 851 l 893 851 l 893 656 l 824 656 l 793 765 l 596 765 l 619 436 l 733 436 l 760 528 l 825 528 l 825 267 l 760 267 l 731 363 l 624 363 l 643 90 l 843 90 l 879 218 l 949 218 l 949 0 l 365 0 l 365 57 l 486 88 l 467 357 l 288 357 l 149 88 l 244 57 l 244 0 l -54 0 m 325 431 l 461 431 l 446 664 l 325 431 m 438 889 l 406 929 l 621 1111 l 749 1067 l 749 1036 l 438 889 z "},"B":{"ha":807,"x_min":50,"x_max":735,"o":"m 517 450 q 681 376 626 432 q 735 235 735 319 q 651 63 735 126 q 408 0 567 0 l 51 0 l 51 57 l 171 88 l 171 764 l 50 794 l 50 851 l 414 851 q 639 797 568 851 q 710 646 710 742 q 658 516 710 567 q 517 450 606 465 m 382 475 q 500 513 454 475 q 546 638 546 550 q 508 741 546 707 q 407 775 471 775 q 359 770 381 775 q 333 765 338 765 l 333 475 l 382 475 m 333 86 q 407 76 363 76 q 522 117 478 76 q 565 243 565 158 q 515 365 565 324 q 378 406 464 406 l 333 406 l 333 86 z "},"C":{"ha":763,"x_min":47,"x_max":711,"o":"m 711 31 q 590 -3 649 8 q 456 -14 532 -14 q 148 110 249 -14 q 47 432 47 235 q 147 750 47 628 q 456 872 246 872 q 590 862 535 872 q 711 832 646 851 l 697 632 l 635 632 l 600 768 q 481 785 544 785 q 276 688 333 785 q 219 432 219 590 q 278 179 219 282 q 475 76 338 76 q 600 94 536 76 l 635 214 l 700 214 l 711 31 z "},"Ć":{"ha":750,"x_min":47,"x_max":711,"o":"m 325 889 l 292 929 l 508 1111 l 635 1067 l 635 1036 l 325 889 m 711 31 q 590 -3 649 8 q 456 -14 532 -14 q 148 110 249 -14 q 47 432 47 235 q 147 750 47 628 q 456 872 246 872 q 590 862 535 872 q 711 832 646 851 l 697 632 l 635 632 l 600 768 q 481 785 544 785 q 276 688 333 785 q 219 432 219 590 q 278 179 219 282 q 475 76 338 76 q 600 94 536 76 l 635 214 l 700 214 l 711 31 z "},"Č":{"ha":750,"x_min":47,"x_max":711,"o":"m 385 894 l 236 1079 l 268 1111 l 439 1001 l 608 1111 l 639 1079 l 492 894 l 385 894 m 456 -14 q 148 110 249 -14 q 47 432 47 235 q 147 750 47 628 q 456 872 246 872 q 590 862 535 872 q 711 832 646 851 l 697 632 l 635 632 l 600 768 q 481 785 544 785 q 276 688 333 785 q 219 432 219 590 q 278 179 219 282 q 475 76 338 76 q 600 94 536 76 l 635 214 l 700 214 l 711 31 q 590 -3 649 8 q 456 -14 532 -14 z "},"Ç":{"ha":750,"x_min":47,"x_max":711,"o":"m 711 31 q 590 -3 649 8 q 460 -14 532 -14 l 444 -64 q 550 -92 514 -64 q 586 -162 586 -119 q 560 -234 586 -201 q 490 -286 533 -267 q 397 -306 447 -306 q 324 -292 357 -306 l 335 -243 q 376 -253 354 -253 q 443 -231 418 -253 q 468 -179 468 -208 q 447 -137 468 -154 q 381 -119 425 -121 l 372 -99 l 403 -11 q 135 126 222 4 q 47 432 47 247 q 147 750 47 628 q 456 872 246 872 q 590 862 535 872 q 711 832 646 851 l 697 632 l 635 632 l 600 768 q 481 785 544 785 q 276 688 333 785 q 219 432 219 590 q 278 179 219 282 q 475 76 338 76 q 600 94 536 76 l 635 214 l 700 214 l 711 31 z "},"Ĉ":{"ha":763,"x_min":47,"x_max":711,"o":"m 47 0 m 711 31 q 590 -3 649 8 q 456 -14 532 -14 q 148 110 249 -14 q 47 432 47 235 q 147 750 47 628 q 456 872 246 872 q 590 862 535 872 q 711 832 646 851 l 697 632 l 635 632 l 600 768 q 481 785 544 785 q 276 688 333 785 q 219 432 219 590 q 278 179 219 282 q 475 76 338 76 q 600 94 536 76 l 635 214 l 700 214 l 711 31 m 613 894 l 440 1004 l 272 894 l 240 925 l 389 1111 l 494 1111 l 643 925 l 613 894 z "},"Ċ":{"ha":763,"x_min":47,"x_max":711,"o":"m 47 0 m 711 31 q 590 -3 649 8 q 456 -14 532 -14 q 148 110 249 -14 q 47 432 47 235 q 147 750 47 628 q 456 872 246 872 q 590 862 535 872 q 711 832 646 851 l 697 632 l 635 632 l 600 768 q 481 785 544 785 q 276 688 333 785 q 219 432 219 590 q 278 179 219 282 q 475 76 338 76 q 600 94 536 76 l 635 214 l 700 214 l 711 31 m 547 997 q 516 926 547 956 q 443 897 485 897 q 369 926 401 897 q 336 997 336 956 q 369 1071 336 1039 q 443 1103 401 1103 q 516 1072 485 1103 q 547 997 547 1040 z "},"D":{"ha":901,"x_min":50,"x_max":856,"o":"m 425 851 q 751 743 647 851 q 856 443 856 635 q 756 123 856 246 q 450 0 656 0 l 51 0 l 51 57 l 171 88 l 171 764 l 50 794 l 50 851 l 425 851 m 419 772 q 333 764 372 772 l 333 90 q 460 71 397 71 q 683 443 683 71 q 613 682 683 592 q 419 772 542 772 z "},"Ǳ":{"ha":1594,"x_min":50,"x_max":1554,"o":"m 50 0 m 425 851 q 751 743 647 851 q 856 443 856 635 q 756 123 856 246 q 450 0 656 0 l 51 0 l 51 57 l 171 88 l 171 764 l 50 794 l 50 851 l 425 851 m 419 772 q 333 764 372 772 l 333 90 q 460 71 397 71 q 683 443 683 71 q 613 682 683 592 q 419 772 542 772 m 1549 218 l 1536 0 l 957 0 l 932 46 l 1367 764 l 1075 764 l 1042 656 l 971 656 l 958 851 l 1547 851 l 1554 806 l 1125 89 l 1426 89 l 1479 218 l 1549 218 z "},"Ǆ":{"ha":1594,"x_min":50,"x_max":1554,"o":"m 50 0 m 425 851 q 751 743 647 851 q 856 443 856 635 q 756 123 856 246 q 450 0 656 0 l 51 0 l 51 57 l 171 88 l 171 764 l 50 794 l 50 851 l 425 851 m 419 772 q 333 764 372 772 l 333 90 q 460 71 397 71 q 683 443 683 71 q 613 682 683 592 q 419 772 542 772 m 1549 218 l 1536 0 l 957 0 l 932 46 l 1367 764 l 1075 764 l 1042 656 l 971 656 l 958 851 l 1547 851 l 1554 806 l 1125 89 l 1426 89 l 1479 218 l 1549 218 m 1192 894 l 1042 1079 l 1074 1111 l 1244 1001 l 1414 1111 l 1444 1079 l 1297 894 l 1192 894 z "},"Ð":{"ha":904,"x_min":53,"x_max":858,"o":"m 54 57 l 174 88 l 174 382 l 56 382 l 56 456 l 174 456 l 174 764 l 53 794 l 53 851 l 428 851 q 754 743 650 851 q 858 443 858 635 q 758 123 858 246 q 453 0 658 0 l 54 0 l 54 57 m 463 71 q 686 443 686 71 q 615 682 686 592 q 422 772 544 772 q 336 764 372 772 l 336 456 l 492 456 l 492 382 l 336 382 l 336 90 q 463 71 400 71 z "},"Ď":{"ha":897,"x_min":50,"x_max":856,"o":"m 378 894 l 229 1079 l 261 1111 l 431 1001 l 601 1111 l 631 1079 l 485 894 l 378 894 m 51 57 l 171 88 l 171 764 l 50 794 l 50 851 l 425 851 q 751 743 647 851 q 856 443 856 635 q 756 123 856 246 q 450 0 656 0 l 51 0 l 51 57 m 460 71 q 683 443 683 71 q 613 682 683 592 q 419 772 542 772 q 333 764 372 772 l 333 90 q 460 71 397 71 z "},"Đ":{"ha":904,"x_min":53,"x_max":858,"o":"m 53 0 m 54 57 l 174 88 l 174 382 l 56 382 l 56 456 l 174 456 l 174 764 l 53 794 l 53 851 l 428 851 q 754 743 650 851 q 858 443 858 635 q 758 123 858 246 q 453 0 658 0 l 54 0 l 54 57 m 463 71 q 686 443 686 71 q 615 682 686 592 q 422 772 544 772 q 336 764 372 772 l 336 456 l 492 456 l 492 382 l 336 382 l 336 90 q 463 71 400 71 z "},"Ḍ":{"ha":901,"x_min":50,"x_max":856,"o":"m 50 0 m 425 851 q 751 743 647 851 q 856 443 856 635 q 756 123 856 246 q 450 0 656 0 l 51 0 l 51 57 l 171 88 l 171 764 l 50 794 l 50 851 l 425 851 m 419 772 q 333 764 372 772 l 333 90 q 460 71 397 71 q 683 443 683 71 q 613 682 683 592 q 419 772 542 772 m 557 -165 q 526 -236 557 -207 q 453 -265 494 -265 q 378 -236 410 -265 q 346 -165 346 -207 q 378 -92 346 -124 q 453 -60 411 -60 q 526 -91 494 -60 q 557 -165 557 -122 z "},"ǲ":{"ha":1549,"x_min":50,"x_max":1508,"o":"m 50 0 m 425 851 q 751 743 647 851 q 856 443 856 635 q 756 123 856 246 q 450 0 656 0 l 51 0 l 51 57 l 171 88 l 171 764 l 50 794 l 50 851 l 425 851 m 419 772 q 333 764 372 772 l 333 90 q 460 71 397 71 q 683 443 683 71 q 613 682 683 592 q 419 772 542 772 m 1304 592 l 1065 592 l 1035 474 l 975 474 l 951 683 l 1479 683 l 1508 625 l 1140 89 l 1393 89 l 1442 211 l 1504 211 l 1489 0 l 965 0 l 938 58 l 1304 592 z "},"ǅ":{"ha":1549,"x_min":50,"x_max":1508,"o":"m 50 0 m 425 851 q 751 743 647 851 q 856 443 856 635 q 756 123 856 246 q 450 0 656 0 l 51 0 l 51 57 l 171 88 l 171 764 l 50 794 l 50 851 l 425 851 m 419 772 q 333 764 372 772 l 333 90 q 460 71 397 71 q 683 443 683 71 q 613 682 683 592 q 419 772 542 772 m 1304 592 l 1065 592 l 1035 474 l 975 474 l 951 683 l 1479 683 l 1508 625 l 1140 89 l 1393 89 l 1442 211 l 1504 211 l 1489 0 l 965 0 l 938 58 l 1304 592 m 1064 1008 l 1221 893 l 1381 1008 l 1421 978 l 1275 782 l 1168 782 l 1021 978 l 1064 1008 z "},"E":{"ha":757,"x_min":50,"x_max":710,"o":"m 528 547 l 593 547 l 593 286 l 528 286 l 499 382 l 336 382 l 336 90 l 604 90 l 640 218 l 710 218 l 710 0 l 51 0 l 51 57 l 174 88 l 174 764 l 50 794 l 50 851 l 679 851 l 679 656 l 610 656 l 581 765 l 336 765 l 336 456 l 501 456 l 528 547 z "},"É":{"ha":757,"x_min":50,"x_max":710,"o":"m 283 889 l 251 929 l 467 1111 l 593 1067 l 593 1036 l 283 889 m 51 0 l 51 57 l 174 88 l 174 764 l 50 794 l 50 851 l 679 851 l 679 656 l 610 656 l 581 765 l 336 765 l 336 456 l 501 456 l 528 547 l 593 547 l 593 286 l 528 286 l 499 382 l 336 382 l 336 90 l 604 90 l 640 218 l 710 218 l 710 0 l 51 0 z "},"Ĕ":{"ha":757,"x_min":50,"x_max":710,"o":"m 50 0 m 528 547 l 593 547 l 593 286 l 528 286 l 499 382 l 336 382 l 336 90 l 604 90 l 640 218 l 710 218 l 710 0 l 51 0 l 51 57 l 174 88 l 174 764 l 50 794 l 50 851 l 679 851 l 679 656 l 610 656 l 581 765 l 336 765 l 336 456 l 501 456 l 528 547 m 375 911 q 247 959 282 911 q 211 1089 211 1007 l 282 1092 q 303 1031 282 1056 q 378 1006 325 1006 q 456 1031 433 1006 q 478 1092 478 1056 l 544 1089 q 508 960 544 1008 q 375 911 471 911 z "},"Ě":{"ha":757,"x_min":50,"x_max":710,"o":"m 358 894 l 208 1079 l 240 1111 l 411 1001 l 582 1111 l 611 1079 l 464 894 l 358 894 m 51 0 l 51 57 l 174 88 l 174 764 l 50 794 l 50 851 l 679 851 l 679 656 l 610 656 l 581 765 l 336 765 l 336 456 l 501 456 l 528 547 l 593 547 l 593 286 l 528 286 l 499 382 l 336 382 l 336 90 l 604 90 l 640 218 l 710 218 l 710 0 l 51 0 z "},"Ê":{"ha":757,"x_min":50,"x_max":710,"o":"m 565 894 l 392 1004 l 224 894 l 193 925 l 340 1111 l 446 1111 l 594 925 l 565 894 m 528 547 l 593 547 l 593 286 l 528 286 l 499 382 l 336 382 l 336 90 l 604 90 l 640 218 l 710 218 l 710 0 l 51 0 l 51 57 l 174 88 l 174 764 l 50 794 l 50 851 l 679 851 l 679 656 l 610 656 l 581 765 l 336 765 l 336 456 l 501 456 l 528 547 z "},"Ế":{"ha":757,"x_min":50,"x_max":801,"o":"m 565 963 l 524 990 l 653 1243 l 788 1243 l 801 1218 l 565 963 m 513 894 l 340 1004 l 172 894 l 140 925 l 289 1111 l 394 1111 l 543 925 l 513 894 m 528 547 l 593 547 l 593 286 l 528 286 l 499 382 l 336 382 l 336 90 l 604 90 l 640 218 l 710 218 l 710 0 l 51 0 l 51 57 l 174 88 l 174 764 l 50 794 l 50 851 l 679 851 l 679 656 l 610 656 l 581 765 l 336 765 l 336 456 l 501 456 l 528 547 z "},"Ệ":{"ha":757,"x_min":50,"x_max":710,"o":"m 50 0 m 528 547 l 593 547 l 593 286 l 528 286 l 499 382 l 336 382 l 336 90 l 604 90 l 640 218 l 710 218 l 710 0 l 51 0 l 51 57 l 174 88 l 174 764 l 50 794 l 50 851 l 679 851 l 679 656 l 610 656 l 581 765 l 336 765 l 336 456 l 501 456 l 528 547 m 485 -165 q 453 -236 485 -207 q 381 -265 422 -265 q 306 -236 338 -265 q 274 -165 274 -207 q 306 -92 274 -124 q 381 -60 339 -60 q 453 -91 422 -60 q 485 -165 485 -122 m 550 894 l 378 1004 l 210 894 l 178 925 l 326 1111 l 432 1111 l 581 925 l 550 894 z "},"Ề":{"ha":757,"x_min":50,"x_max":710,"o":"m 608 961 l 372 1217 l 386 1242 l 521 1242 l 650 989 l 608 961 m 513 894 l 340 1004 l 172 894 l 140 925 l 289 1111 l 394 1111 l 543 925 l 513 894 m 528 547 l 593 547 l 593 286 l 528 286 l 499 382 l 336 382 l 336 90 l 604 90 l 640 218 l 710 218 l 710 0 l 51 0 l 51 57 l 174 88 l 174 764 l 50 794 l 50 851 l 679 851 l 679 656 l 610 656 l 581 765 l 336 765 l 336 456 l 501 456 l 528 547 z "},"Ể":{"ha":757,"x_min":50,"x_max":710,"o":"m 50 0 m 528 547 l 593 547 l 593 286 l 528 286 l 499 382 l 336 382 l 336 90 l 604 90 l 640 218 l 710 218 l 710 0 l 51 0 l 51 57 l 174 88 l 174 764 l 50 794 l 50 851 l 679 851 l 679 656 l 610 656 l 581 765 l 336 765 l 336 456 l 501 456 l 528 547 m 550 894 l 378 1004 l 210 894 l 178 925 l 326 1111 l 432 1111 l 581 925 l 550 894 m 689 1169 q 589 1097 689 1111 l 581 1064 l 514 1064 l 508 1122 q 596 1165 596 1122 q 583 1190 596 1181 q 544 1199 569 1199 q 508 1196 536 1199 l 499 1156 l 447 1156 l 439 1229 q 556 1243 508 1243 q 653 1224 618 1243 q 689 1169 689 1204 z "},"Ễ":{"ha":757,"x_min":50,"x_max":710,"o":"m 50 0 m 528 547 l 593 547 l 593 286 l 528 286 l 499 382 l 336 382 l 336 90 l 604 90 l 640 218 l 710 218 l 710 0 l 51 0 l 51 57 l 174 88 l 174 764 l 50 794 l 50 851 l 679 851 l 679 656 l 610 656 l 581 765 l 336 765 l 336 456 l 501 456 l 528 547 m 550 894 l 378 1004 l 210 894 l 178 925 l 326 1111 l 432 1111 l 581 925 l 550 894 m 610 1261 q 556 1159 583 1196 q 496 1122 528 1122 q 371 1150 463 1122 q 313 1167 342 1160 q 268 1175 283 1175 q 241 1165 254 1175 q 219 1144 228 1154 q 210 1129 211 1133 l 153 1153 q 205 1253 175 1215 q 268 1292 235 1292 q 389 1264 300 1292 q 449 1247 419 1254 q 496 1239 479 1239 q 524 1249 511 1239 q 544 1270 536 1260 q 554 1285 553 1281 l 610 1261 z "},"Ȅ":{"ha":757,"x_min":50,"x_max":710,"o":"m 50 0 m 528 547 l 593 547 l 593 286 l 528 286 l 499 382 l 336 382 l 336 90 l 604 90 l 640 218 l 710 218 l 710 0 l 51 0 l 51 57 l 174 88 l 174 764 l 50 794 l 50 851 l 679 851 l 679 656 l 610 656 l 581 765 l 336 765 l 336 456 l 501 456 l 528 547 m 268 886 l 68 1096 l 68 1124 l 188 1124 l 307 915 l 268 886 m 492 886 l 292 1096 l 292 1124 l 411 1124 l 531 915 l 492 886 z "},"Ë":{"ha":757,"x_min":50,"x_max":710,"o":"m 332 1000 q 304 935 332 961 q 238 908 276 908 q 168 935 197 908 q 139 1000 139 961 q 168 1067 139 1039 q 238 1094 197 1094 q 303 1067 275 1094 q 332 1000 332 1039 m 635 1000 q 607 935 635 961 q 542 908 579 908 q 472 935 501 908 q 443 1000 443 961 q 472 1067 443 1039 q 542 1094 501 1094 q 607 1067 579 1094 q 635 1000 635 1039 m 528 547 l 593 547 l 593 286 l 528 286 l 499 382 l 336 382 l 336 90 l 604 90 l 640 218 l 710 218 l 710 0 l 51 0 l 51 57 l 174 88 l 174 764 l 50 794 l 50 851 l 679 851 l 679 656 l 610 656 l 581 765 l 336 765 l 336 456 l 501 456 l 528 547 z "},"Ė":{"ha":757,"x_min":50,"x_max":710,"o":"m 513 997 q 482 926 513 956 q 410 897 451 897 q 335 926 367 897 q 303 997 303 956 q 335 1072 303 1040 q 410 1103 367 1103 q 482 1072 451 1103 q 513 997 513 1040 m 528 547 l 593 547 l 593 286 l 528 286 l 499 382 l 336 382 l 336 90 l 604 90 l 640 218 l 710 218 l 710 0 l 51 0 l 51 57 l 174 88 l 174 764 l 50 794 l 50 851 l 679 851 l 679 656 l 610 656 l 581 765 l 336 765 l 336 456 l 501 456 l 528 547 z "},"Ẹ":{"ha":757,"x_min":50,"x_max":710,"o":"m 50 0 m 528 547 l 593 547 l 593 286 l 528 286 l 499 382 l 336 382 l 336 90 l 604 90 l 640 218 l 710 218 l 710 0 l 51 0 l 51 57 l 174 88 l 174 764 l 50 794 l 50 851 l 679 851 l 679 656 l 610 656 l 581 765 l 336 765 l 336 456 l 501 456 l 528 547 m 485 -165 q 453 -236 485 -207 q 381 -265 422 -265 q 306 -236 338 -265 q 274 -165 274 -207 q 306 -92 274 -124 q 381 -60 339 -60 q 453 -91 422 -60 q 485 -165 485 -122 z "},"È":{"ha":757,"x_min":50,"x_max":710,"o":"m 525 889 l 210 1036 l 214 1067 l 339 1111 l 553 929 l 525 889 m 51 0 l 51 57 l 174 88 l 174 764 l 50 794 l 50 851 l 679 851 l 679 656 l 610 656 l 581 765 l 336 765 l 336 456 l 501 456 l 528 547 l 593 547 l 593 286 l 528 286 l 499 382 l 336 382 l 336 90 l 604 90 l 640 218 l 710 218 l 710 0 l 51 0 z "},"Ẻ":{"ha":757,"x_min":50,"x_max":710,"o":"m 50 0 m 528 547 l 593 547 l 593 286 l 528 286 l 499 382 l 336 382 l 336 90 l 604 90 l 640 218 l 710 218 l 710 0 l 51 0 l 51 57 l 174 88 l 174 764 l 50 794 l 50 851 l 679 851 l 679 656 l 610 656 l 581 765 l 336 765 l 336 456 l 501 456 l 528 547 m 525 1036 q 425 964 525 978 l 417 931 l 350 931 l 344 989 q 432 1032 432 989 q 419 1056 432 1047 q 381 1065 406 1065 q 344 1063 372 1065 l 335 1022 l 283 1022 l 275 1096 q 392 1110 344 1110 q 490 1090 454 1110 q 525 1036 525 1071 z "},"Ȇ":{"ha":757,"x_min":50,"x_max":710,"o":"m 50 0 m 528 547 l 593 547 l 593 286 l 528 286 l 499 382 l 336 382 l 336 90 l 604 90 l 640 218 l 710 218 l 710 0 l 51 0 l 51 57 l 174 88 l 174 764 l 50 794 l 50 851 l 679 851 l 679 656 l 610 656 l 581 765 l 336 765 l 336 456 l 501 456 l 528 547 m 381 1103 q 510 1054 475 1103 q 544 925 544 1006 l 475 922 q 453 983 475 958 q 378 1007 432 1007 q 278 922 278 1007 l 211 925 q 381 1103 211 1103 z "},"Ē":{"ha":757,"x_min":50,"x_max":710,"o":"m 240 1049 l 563 1049 l 563 951 l 240 951 l 240 1049 m 528 547 l 593 547 l 593 286 l 528 286 l 499 382 l 336 382 l 336 90 l 604 90 l 640 218 l 710 218 l 710 0 l 51 0 l 51 57 l 174 88 l 174 764 l 50 794 l 50 851 l 679 851 l 679 656 l 610 656 l 581 765 l 336 765 l 336 456 l 501 456 l 528 547 z "},"Ę":{"ha":757,"x_min":50,"x_max":742,"o":"m 597 -325 q 492 -291 525 -325 q 458 -206 458 -257 q 490 -106 458 -161 q 586 0 522 -51 l 51 0 l 51 57 l 174 88 l 174 764 l 50 794 l 50 851 l 679 851 l 679 656 l 610 656 l 581 765 l 336 765 l 336 456 l 501 456 l 528 547 l 593 547 l 593 286 l 528 286 l 499 382 l 336 382 l 336 90 l 604 90 l 640 218 l 710 218 l 710 0 l 643 0 q 594 -74 619 -24 q 568 -178 568 -124 q 585 -228 568 -210 q 633 -247 601 -247 q 713 -217 676 -247 l 742 -244 q 724 -268 742 -247 q 674 -307 706 -289 q 597 -325 642 -325 z "},"Ẽ":{"ha":757,"x_min":50,"x_max":710,"o":"m 621 1075 q 567 972 593 1008 q 508 936 540 936 q 385 964 474 936 q 325 981 354 974 q 279 989 296 989 q 253 978 265 989 q 232 958 240 968 q 222 943 224 947 l 165 967 q 217 1068 188 1029 q 279 1107 247 1107 q 403 1079 314 1107 q 461 1062 432 1069 q 507 1054 490 1054 q 535 1064 522 1054 q 557 1085 549 1074 q 567 1099 565 1096 l 621 1075 m 528 547 l 593 547 l 593 286 l 528 286 l 499 382 l 336 382 l 336 90 l 604 90 l 640 218 l 710 218 l 710 0 l 51 0 l 51 57 l 174 88 l 174 764 l 50 794 l 50 851 l 679 851 l 679 656 l 610 656 l 581 765 l 336 765 l 336 456 l 501 456 l 528 547 z "},"F":{"ha":706,"x_min":50,"x_max":679,"o":"m 679 851 l 679 656 l 610 656 l 581 765 l 336 765 l 336 442 l 501 442 l 528 533 l 593 533 l 593 272 l 528 272 l 499 368 l 336 368 l 336 94 l 486 61 l 486 0 l 51 0 l 51 57 l 174 88 l 174 764 l 50 794 l 50 851 l 679 851 z "},"G":{"ha":850,"x_min":47,"x_max":832,"o":"m 624 768 q 493 785 578 785 q 280 681 340 785 q 219 432 219 576 q 277 177 219 279 q 472 75 335 75 q 581 92 538 75 l 581 314 l 463 343 l 463 401 l 832 401 l 832 342 l 743 315 l 743 44 q 625 1 694 17 q 478 -14 556 -14 q 150 110 253 -14 q 47 432 47 233 q 155 750 47 628 q 492 872 263 872 q 629 861 557 872 q 744 832 701 850 l 728 632 l 658 632 l 624 768 z "},"Ǵ":{"ha":850,"x_min":47,"x_max":832,"o":"m 47 0 m 624 768 q 493 785 578 785 q 280 681 340 785 q 219 432 219 576 q 277 177 219 279 q 472 75 335 75 q 581 92 538 75 l 581 314 l 463 343 l 463 401 l 832 401 l 832 342 l 743 315 l 743 44 q 625 1 694 17 q 478 -14 556 -14 q 150 110 253 -14 q 47 432 47 233 q 155 750 47 628 q 492 872 263 872 q 629 861 557 872 q 744 832 701 850 l 728 632 l 658 632 l 624 768 m 369 889 l 338 929 l 553 1111 l 681 1067 l 681 1036 l 369 889 z "},"Ğ":{"ha":842,"x_min":47,"x_max":832,"o":"m 449 911 q 319 959 354 911 q 285 1089 285 1007 l 354 1092 q 376 1031 354 1056 q 451 1006 399 1006 q 529 1031 507 1006 q 551 1092 551 1056 l 618 1089 q 581 960 618 1008 q 449 911 543 911 m 624 768 q 493 785 578 785 q 280 681 340 785 q 219 432 219 576 q 277 177 219 279 q 472 75 335 75 q 581 92 538 75 l 581 314 l 463 343 l 463 401 l 832 401 l 832 342 l 743 315 l 743 44 q 625 1 694 17 q 478 -14 556 -14 q 150 110 253 -14 q 47 432 47 233 q 155 750 47 628 q 492 872 263 872 q 629 861 557 872 q 744 832 701 850 l 728 632 l 658 632 l 624 768 z "},"Ǧ":{"ha":850,"x_min":47,"x_max":832,"o":"m 47 0 m 624 768 q 493 785 578 785 q 280 681 340 785 q 219 432 219 576 q 277 177 219 279 q 472 75 335 75 q 581 92 538 75 l 581 314 l 463 343 l 463 401 l 832 401 l 832 342 l 743 315 l 743 44 q 625 1 694 17 q 478 -14 556 -14 q 150 110 253 -14 q 47 432 47 233 q 155 750 47 628 q 492 872 263 872 q 629 861 557 872 q 744 832 701 850 l 728 632 l 658 632 l 624 768 m 375 894 l 225 1079 l 257 1111 l 428 1001 l 597 1111 l 628 1079 l 481 894 l 375 894 z "},"Ĝ":{"ha":850,"x_min":47,"x_max":832,"o":"m 47 0 m 624 768 q 493 785 578 785 q 280 681 340 785 q 219 432 219 576 q 277 177 219 279 q 472 75 335 75 q 581 92 538 75 l 581 314 l 463 343 l 463 401 l 832 401 l 832 342 l 743 315 l 743 44 q 625 1 694 17 q 478 -14 556 -14 q 150 110 253 -14 q 47 432 47 233 q 155 750 47 628 q 492 872 263 872 q 629 861 557 872 q 744 832 701 850 l 728 632 l 658 632 l 624 768 m 597 894 l 425 1004 l 257 894 l 225 925 l 374 1111 l 479 1111 l 628 925 l 597 894 z "},"Ģ":{"ha":842,"x_min":47,"x_max":832,"o":"m 478 -14 q 150 110 253 -14 q 47 432 47 233 q 155 750 47 628 q 492 872 263 872 q 629 861 557 872 q 744 832 701 850 l 728 632 l 658 632 l 624 768 q 493 785 578 785 q 280 681 340 785 q 219 432 219 576 q 277 177 219 279 q 472 75 335 75 q 581 92 538 75 l 581 314 l 463 343 l 463 401 l 832 401 l 832 342 l 743 315 l 743 44 q 625 1 694 17 q 478 -14 556 -14 m 376 -314 l 392 -61 l 507 -35 l 536 -64 l 432 -321 l 376 -314 z "},"Ġ":{"ha":850,"x_min":47,"x_max":832,"o":"m 47 0 m 624 768 q 493 785 578 785 q 280 681 340 785 q 219 432 219 576 q 277 177 219 279 q 472 75 335 75 q 581 92 538 75 l 581 314 l 463 343 l 463 401 l 832 401 l 832 342 l 743 315 l 743 44 q 625 1 694 17 q 478 -14 556 -14 q 150 110 253 -14 q 47 432 47 233 q 155 750 47 628 q 492 872 263 872 q 629 861 557 872 q 744 832 701 850 l 728 632 l 658 632 l 624 768 m 532 997 q 501 926 532 956 q 428 897 469 897 q 353 926 386 897 q 321 997 321 956 q 353 1071 321 1039 q 428 1103 386 1103 q 501 1072 469 1103 q 532 997 532 1040 z "},"H":{"ha":1017,"x_min":50,"x_max":967,"o":"m 50 0 l 50 57 l 171 88 l 171 765 l 50 794 l 50 851 l 453 851 l 453 794 l 333 765 l 333 463 l 683 463 l 683 765 l 563 794 l 563 851 l 965 851 l 965 794 l 846 765 l 846 88 l 967 57 l 967 0 l 564 0 l 564 57 l 683 88 l 683 385 l 333 385 l 333 88 l 453 57 l 453 0 l 50 0 z "},"Ħ":{"ha":1017,"x_min":50,"x_max":967,"o":"m 846 88 l 967 57 l 967 0 l 564 0 l 564 57 l 683 88 l 683 343 l 333 343 l 333 88 l 453 57 l 453 0 l 50 0 l 50 57 l 171 88 l 171 543 l 56 543 l 56 615 l 171 615 l 171 765 l 50 794 l 50 851 l 453 851 l 453 794 l 333 765 l 333 615 l 683 615 l 683 765 l 563 794 l 563 851 l 965 851 l 965 794 l 846 765 l 846 615 l 961 615 l 961 543 l 846 543 l 846 88 m 333 421 l 683 421 l 683 543 l 333 543 l 333 421 z "},"Ĥ":{"ha":1017,"x_min":50,"x_max":967,"o":"m 50 0 m 50 0 l 50 57 l 171 88 l 171 765 l 50 794 l 50 851 l 453 851 l 453 794 l 333 765 l 333 463 l 683 463 l 683 765 l 563 794 l 563 851 l 965 851 l 965 794 l 846 765 l 846 88 l 967 57 l 967 0 l 564 0 l 564 57 l 683 88 l 683 385 l 333 385 l 333 88 l 453 57 l 453 0 l 50 0 m 679 894 l 507 1004 l 339 894 l 307 925 l 456 1111 l 561 1111 l 710 925 l 679 894 z "},"Ḥ":{"ha":1017,"x_min":50,"x_max":967,"o":"m 50 0 m 50 0 l 50 57 l 171 88 l 171 765 l 50 794 l 50 851 l 453 851 l 453 794 l 333 765 l 333 463 l 683 463 l 683 765 l 563 794 l 563 851 l 965 851 l 965 794 l 846 765 l 846 88 l 967 57 l 967 0 l 564 0 l 564 57 l 683 88 l 683 385 l 333 385 l 333 88 l 453 57 l 453 0 l 50 0 m 614 -165 q 583 -236 614 -207 q 510 -265 551 -265 q 435 -236 467 -265 q 403 -165 403 -207 q 435 -92 403 -124 q 510 -60 468 -60 q 583 -91 551 -60 q 614 -165 614 -122 z "},"I":{"ha":504,"x_min":50,"x_max":454,"o":"m 51 0 l 51 57 l 171 88 l 171 764 l 50 794 l 50 851 l 454 851 l 454 794 l 333 764 l 333 88 l 454 57 l 454 0 l 51 0 z "},"Ĳ":{"ha":960,"x_min":50,"x_max":936,"o":"m 50 0 m 51 0 l 51 57 l 171 88 l 171 764 l 50 794 l 50 851 l 454 851 l 454 794 l 333 764 l 333 88 l 454 57 l 454 0 l 51 0 m 600 -208 q 451 -165 514 -208 l 457 -119 l 554 -119 q 634 -76 613 -119 q 656 51 656 -32 l 656 764 l 536 794 l 536 851 l 936 851 l 936 794 l 817 764 l 817 88 q 763 -143 817 -78 q 600 -208 708 -208 z "},"Í":{"ha":504,"x_min":50,"x_max":454,"o":"m 114 889 l 82 929 l 297 1111 l 424 1067 l 424 1036 l 114 889 m 51 0 l 51 57 l 171 88 l 171 764 l 50 794 l 50 851 l 454 851 l 454 794 l 333 764 l 333 88 l 454 57 l 454 0 l 51 0 z "},"Ĭ":{"ha":504,"x_min":50,"x_max":454,"o":"m 50 0 m 51 0 l 51 57 l 171 88 l 171 764 l 50 794 l 50 851 l 454 851 l 454 794 l 333 764 l 333 88 l 454 57 l 454 0 l 51 0 m 249 911 q 120 959 156 911 q 85 1089 85 1007 l 156 1092 q 177 1031 156 1056 q 251 1006 199 1006 q 329 1031 307 1006 q 351 1092 351 1056 l 418 1089 q 381 960 418 1008 q 249 911 344 911 z "},"Ǐ":{"ha":504,"x_min":50,"x_max":454,"o":"m 50 0 m 51 0 l 51 57 l 171 88 l 171 764 l 50 794 l 50 851 l 454 851 l 454 794 l 333 764 l 333 88 l 454 57 l 454 0 l 51 0 m 201 894 l 51 1079 l 83 1111 l 254 1001 l 424 1111 l 454 1079 l 307 894 l 201 894 z "},"Î":{"ha":504,"x_min":50,"x_max":454,"o":"m 82 894 l 50 925 l 199 1111 l 304 1111 l 453 925 l 422 894 l 250 1004 l 82 894 m 51 0 l 51 57 l 171 88 l 171 764 l 50 794 l 50 851 l 454 851 l 454 794 l 333 764 l 333 88 l 454 57 l 454 0 l 51 0 z "},"Ȉ":{"ha":504,"x_min":-58,"x_max":454,"o":"m 0 0 m 51 0 l 51 57 l 171 88 l 171 764 l 50 794 l 50 851 l 454 851 l 454 794 l 333 764 l 333 88 l 454 57 l 454 0 l 51 0 m 142 886 l -58 1096 l -58 1124 l 61 1124 l 181 915 l 142 886 m 365 886 l 165 1096 l 165 1124 l 285 1124 l 404 915 l 365 886 z "},"Ï":{"ha":504,"x_min":4,"x_max":500,"o":"m 103 908 q 33 935 63 908 q 4 1000 4 961 q 33 1067 4 1039 q 103 1094 63 1094 q 169 1067 140 1094 q 197 1000 197 1039 q 169 935 197 961 q 103 908 142 908 m 407 908 q 338 935 367 908 q 308 1000 308 961 q 338 1067 308 1039 q 407 1094 367 1094 q 472 1067 444 1094 q 500 1000 500 1039 q 472 935 500 961 q 407 908 444 908 m 51 0 l 51 57 l 171 88 l 171 764 l 50 794 l 50 851 l 454 851 l 454 794 l 333 764 l 333 88 l 454 57 l 454 0 l 51 0 z "},"İ":{"ha":504,"x_min":50,"x_max":454,"o":"m 253 897 q 178 926 211 897 q 146 997 146 956 q 178 1071 146 1039 q 253 1103 211 1103 q 325 1072 294 1103 q 356 997 356 1040 q 325 926 356 956 q 253 897 294 897 m 51 0 l 51 57 l 171 88 l 171 764 l 50 794 l 50 851 l 454 851 l 454 794 l 333 764 l 333 88 l 454 57 l 454 0 l 51 0 z "},"Ị":{"ha":504,"x_min":50,"x_max":454,"o":"m 50 0 m 51 0 l 51 57 l 171 88 l 171 764 l 50 794 l 50 851 l 454 851 l 454 794 l 333 764 l 333 88 l 454 57 l 454 0 l 51 0 m 358 -165 q 327 -236 358 -207 q 254 -265 296 -265 q 179 -236 211 -265 q 147 -165 147 -207 q 180 -92 147 -124 q 254 -60 213 -60 q 327 -91 296 -60 q 358 -165 358 -122 z "},"Ì":{"ha":504,"x_min":50,"x_max":454,"o":"m 394 889 l 81 1036 l 83 1067 l 208 1111 l 422 929 l 394 889 m 51 0 l 51 57 l 171 88 l 171 764 l 50 794 l 50 851 l 454 851 l 454 794 l 333 764 l 333 88 l 454 57 l 454 0 l 51 0 z "},"Ỉ":{"ha":504,"x_min":50,"x_max":454,"o":"m 50 0 m 51 0 l 51 57 l 171 88 l 171 764 l 50 794 l 50 851 l 454 851 l 454 794 l 333 764 l 333 88 l 454 57 l 454 0 l 51 0 m 399 1036 q 299 964 399 978 l 290 931 l 224 931 l 218 989 q 306 1032 306 989 q 292 1056 306 1047 q 254 1065 279 1065 q 218 1063 246 1065 l 208 1022 l 157 1022 l 149 1096 q 265 1110 218 1110 q 363 1090 328 1110 q 399 1036 399 1071 z "},"Ȋ":{"ha":504,"x_min":50,"x_max":454,"o":"m 50 0 m 51 0 l 51 57 l 171 88 l 171 764 l 50 794 l 50 851 l 454 851 l 454 794 l 333 764 l 333 88 l 454 57 l 454 0 l 51 0 m 254 1103 q 383 1054 349 1103 q 418 925 418 1006 l 349 922 q 327 983 349 958 q 251 1007 306 1007 q 151 922 151 1007 l 85 925 q 254 1103 85 1103 z "},"Ī":{"ha":504,"x_min":50,"x_max":454,"o":"m 89 951 l 89 1049 l 411 1049 l 411 951 l 89 951 m 51 0 l 51 57 l 171 88 l 171 764 l 50 794 l 50 851 l 454 851 l 454 794 l 333 764 l 333 88 l 454 57 l 454 0 l 51 0 z "},"Į":{"ha":504,"x_min":50,"x_max":464,"o":"m 321 -325 q 215 -292 249 -325 q 181 -208 181 -258 q 221 -94 181 -150 q 326 0 261 -39 l 51 0 l 51 57 l 171 88 l 171 764 l 50 794 l 50 851 l 454 851 l 454 794 l 333 764 l 333 88 l 454 57 l 454 0 q 331 -72 371 -19 q 290 -178 290 -124 q 357 -247 290 -247 q 435 -217 401 -247 l 464 -244 q 413 -299 449 -272 q 321 -325 376 -325 z "},"Ĩ":{"ha":504,"x_min":13,"x_max":468,"o":"m 356 936 q 231 964 322 936 q 172 981 201 974 q 128 989 143 989 q 100 978 113 989 q 79 958 88 968 q 69 943 71 947 l 13 967 q 65 1068 35 1029 q 126 1107 94 1107 q 250 1079 161 1107 q 308 1062 279 1069 q 354 1054 338 1054 q 383 1064 369 1054 q 404 1085 396 1074 q 414 1099 413 1096 l 468 1075 q 414 972 440 1008 q 356 936 388 936 m 51 0 l 51 57 l 171 88 l 171 764 l 50 794 l 50 851 l 454 851 l 454 794 l 333 764 l 333 88 l 454 57 l 454 0 l 51 0 z "},"J":{"ha":460,"x_min":-49,"x_max":436,"o":"m 100 -208 q -49 -165 14 -208 l -43 -119 l 54 -119 q 134 -76 113 -119 q 156 51 156 -32 l 156 764 l 36 794 l 36 851 l 436 851 l 436 794 l 317 764 l 317 88 q 263 -143 317 -78 q 100 -208 208 -208 z "},"Ĵ":{"ha":460,"x_min":-49,"x_max":436,"o":"m 0 0 m 100 -208 q -49 -165 14 -208 l -43 -119 l 54 -119 q 134 -76 113 -119 q 156 51 156 -32 l 156 764 l 36 794 l 36 851 l 436 851 l 436 794 l 317 764 l 317 88 q 263 -143 317 -78 q 100 -208 208 -208 m 401 894 l 229 1004 l 61 894 l 29 925 l 178 1111 l 283 1111 l 432 925 l 401 894 z "},"K":{"ha":819,"x_min":50,"x_max":833,"o":"m 833 0 l 597 0 l 332 379 l 332 88 l 435 58 l 435 0 l 50 0 l 50 57 l 169 88 l 169 764 l 50 794 l 50 851 l 435 851 l 435 793 l 332 764 l 332 471 l 601 771 l 519 794 l 519 851 l 804 851 l 804 796 l 707 767 l 453 474 l 721 92 l 833 57 l 833 0 z "},"Ķ":{"ha":819,"x_min":50,"x_max":833,"o":"m 50 0 l 50 57 l 169 88 l 169 764 l 50 794 l 50 851 l 435 851 l 435 793 l 332 764 l 332 471 l 601 771 l 519 794 l 519 851 l 804 851 l 804 796 l 707 767 l 453 474 l 721 92 l 833 57 l 833 0 l 597 0 l 332 379 l 332 88 l 435 58 l 435 0 l 50 0 m 378 -314 l 393 -61 l 508 -35 l 538 -64 l 435 -321 l 378 -314 z "},"L":{"ha":676,"x_min":50,"x_max":665,"o":"m 665 0 l 50 0 l 50 57 l 169 88 l 169 764 l 50 794 l 50 851 l 453 851 l 453 794 l 332 764 l 332 90 l 561 90 l 596 218 l 665 218 l 665 0 z "},"Ǉ":{"ha":1136,"x_min":50,"x_max":1113,"o":"m 50 0 m 665 0 l 50 0 l 50 57 l 169 88 l 169 764 l 50 794 l 50 851 l 453 851 l 453 794 l 332 764 l 332 90 l 561 90 l 596 218 l 665 218 l 665 0 m 776 -208 q 628 -165 690 -208 l 633 -119 l 731 -119 q 810 -76 789 -119 q 832 51 832 -32 l 832 764 l 713 794 l 713 851 l 1113 851 l 1113 794 l 993 764 l 993 88 q 939 -143 993 -78 q 776 -208 885 -208 z "},"Ĺ":{"ha":676,"x_min":50,"x_max":665,"o":"m 149 889 l 117 929 l 332 1111 l 458 1067 l 458 1036 l 149 889 m 665 0 l 50 0 l 50 57 l 169 88 l 169 764 l 50 794 l 50 851 l 453 851 l 453 794 l 332 764 l 332 90 l 561 90 l 596 218 l 665 218 l 665 0 z "},"Ľ":{"ha":676,"x_min":50,"x_max":665,"o":"m 200 894 l 51 1079 l 83 1111 l 254 1001 l 424 1111 l 454 1079 l 307 894 l 200 894 m 50 0 l 50 57 l 169 88 l 169 764 l 50 794 l 50 851 l 453 851 l 453 794 l 332 764 l 332 90 l 561 90 l 596 218 l 665 218 l 665 0 l 50 0 z "},"Ļ":{"ha":676,"x_min":50,"x_max":665,"o":"m 50 0 l 50 57 l 169 88 l 169 764 l 50 794 l 50 851 l 453 851 l 453 794 l 332 764 l 332 90 l 561 90 l 596 218 l 665 218 l 665 0 l 50 0 m 307 -314 l 322 -61 l 439 -35 l 467 -64 l 364 -321 l 307 -314 z "},"Ŀ":{"ha":676,"x_min":50,"x_max":669,"o":"m 50 0 m 665 0 l 50 0 l 50 57 l 169 88 l 169 764 l 50 794 l 50 851 l 453 851 l 453 794 l 332 764 l 332 90 l 561 90 l 596 218 l 665 218 l 665 0 m 669 589 q 642 521 669 549 q 574 493 615 493 q 505 521 533 493 q 476 589 476 549 q 504 657 476 631 q 574 683 532 683 q 642 657 615 683 q 669 589 669 631 z "},"ǈ":{"ha":1119,"x_min":50,"x_max":1014,"o":"m 50 0 m 665 0 l 50 0 l 50 57 l 169 88 l 169 764 l 50 794 l 50 851 l 453 851 l 453 794 l 332 764 l 332 90 l 561 90 l 596 218 l 665 218 l 665 0 m 1014 893 q 983 822 1014 851 q 911 793 953 793 q 837 822 868 793 q 806 893 806 851 q 837 967 806 936 q 911 999 868 999 q 983 967 953 999 q 1014 893 1014 936 m 942 696 l 994 696 l 994 78 q 940 -160 994 -87 q 800 -233 885 -233 q 738 -224 776 -233 q 661 -196 699 -214 l 669 -137 l 732 -137 q 807 -103 782 -137 q 832 -26 832 -69 l 832 574 l 718 589 l 718 643 l 942 696 z "},"Ł":{"ha":676,"x_min":43,"x_max":665,"o":"m 50 0 l 50 57 l 169 88 l 169 332 l 82 282 l 43 350 l 169 425 l 169 764 l 50 794 l 50 851 l 453 851 l 453 794 l 332 764 l 332 521 l 456 594 l 497 525 l 332 428 l 332 90 l 561 90 l 596 218 l 665 218 l 665 0 l 50 0 z "},"M":{"ha":1121,"x_min":28,"x_max":1092,"o":"m 351 0 l 28 0 l 28 57 l 143 88 l 168 765 l 53 794 l 53 851 l 331 851 l 556 192 l 775 851 l 1063 851 l 1063 794 l 943 764 l 971 88 l 1092 57 l 1092 0 l 697 0 l 697 57 l 817 88 l 796 639 l 576 0 l 485 -14 l 251 638 l 232 88 l 351 57 l 351 0 z "},"N":{"ha":986,"x_min":49,"x_max":960,"o":"m 632 851 l 960 851 l 960 794 l 843 765 l 843 0 l 713 -14 l 256 649 l 256 88 l 374 57 l 374 0 l 50 0 l 50 57 l 165 88 l 165 765 l 49 794 l 49 851 l 307 851 l 750 211 l 750 765 l 632 794 l 632 851 z "},"Ǌ":{"ha":1446,"x_min":49,"x_max":1422,"o":"m 49 0 m 632 851 l 960 851 l 960 794 l 843 765 l 843 0 l 713 -14 l 256 649 l 256 88 l 374 57 l 374 0 l 50 0 l 50 57 l 165 88 l 165 765 l 49 794 l 49 851 l 307 851 l 750 211 l 750 765 l 632 794 l 632 851 m 1086 -208 q 938 -165 1000 -208 l 943 -119 l 1040 -119 q 1120 -76 1099 -119 q 1142 51 1142 -32 l 1142 764 l 1022 794 l 1022 851 l 1422 851 l 1422 794 l 1303 764 l 1303 88 q 1249 -143 1303 -78 q 1086 -208 1194 -208 z "},"Ń":{"ha":986,"x_min":49,"x_max":958,"o":"m 399 889 l 367 929 l 582 1111 l 708 1067 l 708 1036 l 399 889 m 631 851 l 958 851 l 958 794 l 843 765 l 843 0 l 711 -14 l 254 649 l 254 88 l 372 57 l 372 0 l 49 0 l 49 57 l 164 88 l 164 765 l 49 794 l 49 851 l 307 851 l 749 211 l 749 765 l 631 794 l 631 851 z "},"Ň":{"ha":986,"x_min":49,"x_max":958,"o":"m 453 894 l 304 1079 l 336 1111 l 506 1001 l 676 1111 l 706 1079 l 558 894 l 453 894 m 711 -14 l 254 649 l 254 88 l 372 57 l 372 0 l 49 0 l 49 57 l 164 88 l 164 765 l 49 794 l 49 851 l 307 851 l 749 211 l 749 765 l 631 794 l 631 851 l 958 851 l 958 794 l 843 765 l 843 0 l 711 -14 z "},"Ņ":{"ha":986,"x_min":49,"x_max":958,"o":"m 711 -14 l 254 649 l 254 88 l 372 57 l 372 0 l 49 0 l 49 57 l 164 88 l 164 765 l 49 794 l 49 851 l 307 851 l 749 211 l 749 765 l 631 794 l 631 851 l 958 851 l 958 794 l 843 765 l 843 0 l 711 -14 m 433 -314 l 447 -61 l 563 -35 l 593 -64 l 489 -321 l 433 -314 z "},"Ṅ":{"ha":986,"x_min":49,"x_max":960,"o":"m 49 0 m 632 851 l 960 851 l 960 794 l 843 765 l 843 0 l 713 -14 l 256 649 l 256 88 l 374 57 l 374 0 l 50 0 l 50 57 l 165 88 l 165 765 l 49 794 l 49 851 l 307 851 l 750 211 l 750 765 l 632 794 l 632 851 m 599 997 q 567 926 599 956 q 494 897 536 897 q 420 926 453 897 q 388 997 388 956 q 420 1071 388 1039 q 494 1103 453 1103 q 567 1072 536 1103 q 599 997 599 1040 z "},"Ŋ":{"ha":986,"x_min":49,"x_max":960,"o":"m 649 -233 q 586 -224 625 -233 q 510 -196 547 -214 l 518 -137 l 581 -137 q 656 -103 631 -137 q 681 -26 681 -69 l 681 32 l 256 649 l 256 88 l 374 57 l 374 0 l 50 0 l 50 57 l 165 88 l 165 765 l 49 794 l 49 851 l 307 851 l 750 211 l 750 765 l 632 794 l 632 851 l 960 851 l 960 794 l 843 765 l 843 78 q 788 -160 843 -87 q 649 -233 733 -233 z "},"Ɲ":{"ha":986,"x_min":-6,"x_max":960,"o":"m 960 851 l 960 794 l 843 765 l 843 0 l 713 -14 l 256 649 l 256 8 q 215 -176 256 -118 q 118 -233 175 -233 q 61 -224 94 -233 q -6 -196 28 -214 l 3 -137 l 65 -137 q 140 -103 115 -137 q 165 -26 165 -69 l 165 765 l 49 794 l 49 851 l 307 851 l 750 211 l 750 765 l 632 794 l 632 851 l 960 851 z "},"ǋ":{"ha":1429,"x_min":49,"x_max":1324,"o":"m 49 0 m 632 851 l 960 851 l 960 794 l 843 765 l 843 0 l 713 -14 l 256 649 l 256 88 l 374 57 l 374 0 l 50 0 l 50 57 l 165 88 l 165 765 l 49 794 l 49 851 l 307 851 l 750 211 l 750 765 l 632 794 l 632 851 m 1324 893 q 1293 822 1324 851 q 1221 793 1263 793 q 1147 822 1178 793 q 1115 893 1115 851 q 1147 967 1115 936 q 1221 999 1178 999 q 1293 967 1263 999 q 1324 893 1324 936 m 1251 696 l 1304 696 l 1304 78 q 1249 -160 1304 -87 q 1110 -233 1194 -233 q 1047 -224 1086 -233 q 971 -196 1008 -214 l 979 -137 l 1042 -137 q 1117 -103 1092 -137 q 1142 -26 1142 -69 l 1142 574 l 1028 589 l 1028 643 l 1251 696 z "},"Ñ":{"ha":986,"x_min":49,"x_max":958,"o":"m 738 1061 q 683 958 710 994 q 625 922 657 922 q 501 950 590 922 q 442 967 471 960 q 396 975 413 975 q 369 965 382 975 q 349 944 357 954 q 339 929 340 933 l 282 953 q 333 1053 304 1015 q 396 1092 363 1092 q 519 1064 431 1092 q 578 1047 549 1054 q 624 1039 607 1039 q 652 1049 639 1039 q 674 1070 665 1060 q 683 1085 682 1081 l 738 1061 m 631 851 l 958 851 l 958 794 l 843 765 l 843 0 l 711 -14 l 254 649 l 254 88 l 372 57 l 372 0 l 49 0 l 49 57 l 164 88 l 164 765 l 49 794 l 49 851 l 307 851 l 749 211 l 749 765 l 631 794 l 631 851 z "},"O":{"ha":918,"x_min":47,"x_max":871,"o":"m 461 871 q 772 749 672 871 q 871 431 871 626 q 771 110 871 233 q 461 -12 671 -12 q 228 46 321 -12 q 91 204 135 104 q 47 431 47 304 q 149 748 47 625 q 461 871 251 871 m 697 431 q 644 679 697 574 q 453 785 592 785 q 272 680 321 785 q 222 431 222 575 q 275 179 222 283 q 467 75 328 75 q 649 180 600 75 q 697 431 697 285 z "},"Ó":{"ha":918,"x_min":47,"x_max":871,"o":"m 47 0 m 461 871 q 772 749 672 871 q 871 431 871 626 q 771 110 871 233 q 461 -12 671 -12 q 228 46 321 -12 q 91 204 135 104 q 47 431 47 304 q 149 748 47 625 q 461 871 251 871 m 697 431 q 644 679 697 574 q 453 785 592 785 q 272 680 321 785 q 222 431 222 575 q 275 179 222 283 q 467 75 328 75 q 649 180 600 75 q 697 431 697 285 m 403 889 l 371 929 l 586 1111 l 714 1067 l 714 1036 l 403 889 z "},"Ŏ":{"ha":918,"x_min":47,"x_max":871,"o":"m 47 0 m 461 871 q 772 749 672 871 q 871 431 871 626 q 771 110 871 233 q 461 -12 671 -12 q 228 46 321 -12 q 91 204 135 104 q 47 431 47 304 q 149 748 47 625 q 461 871 251 871 m 697 431 q 644 679 697 574 q 453 785 592 785 q 272 680 321 785 q 222 431 222 575 q 275 179 222 283 q 467 75 328 75 q 649 180 600 75 q 697 431 697 285 m 456 911 q 327 959 363 911 q 292 1089 292 1007 l 363 1092 q 384 1031 363 1056 q 458 1006 406 1006 q 536 1031 514 1006 q 558 1092 558 1056 l 625 1089 q 588 960 625 1008 q 456 911 551 911 z "},"Ǒ":{"ha":918,"x_min":47,"x_max":871,"o":"m 47 0 m 461 871 q 772 749 672 871 q 871 431 871 626 q 771 110 871 233 q 461 -12 671 -12 q 228 46 321 -12 q 91 204 135 104 q 47 431 47 304 q 149 748 47 625 q 461 871 251 871 m 697 431 q 644 679 697 574 q 453 785 592 785 q 272 680 321 785 q 222 431 222 575 q 275 179 222 283 q 467 75 328 75 q 649 180 600 75 q 697 431 697 285 m 408 894 l 258 1079 l 290 1111 l 461 1001 l 631 1111 l 661 1079 l 514 894 l 408 894 z "},"Ô":{"ha":918,"x_min":47,"x_max":871,"o":"m 631 894 l 458 1004 l 290 894 l 258 925 l 406 1111 l 513 1111 l 660 925 l 631 894 m 461 871 q 772 749 672 871 q 871 431 871 626 q 771 110 871 233 q 461 -12 671 -12 q 228 46 321 -12 q 91 204 135 104 q 47 431 47 304 q 149 748 47 625 q 461 871 251 871 m 697 431 q 644 679 697 574 q 453 785 592 785 q 272 680 321 785 q 222 431 222 575 q 275 179 222 283 q 467 75 328 75 q 649 180 600 75 q 697 431 697 285 z "},"Ố":{"ha":918,"x_min":47,"x_max":882,"o":"m 646 963 l 604 990 l 733 1243 l 868 1243 l 882 1218 l 646 963 m 593 894 l 421 1004 l 253 894 l 221 925 l 369 1111 l 475 1111 l 624 925 l 593 894 m 461 871 q 772 749 672 871 q 871 431 871 626 q 771 110 871 233 q 461 -12 671 -12 q 228 46 321 -12 q 91 204 135 104 q 47 431 47 304 q 149 748 47 625 q 461 871 251 871 m 697 431 q 644 679 697 574 q 453 785 592 785 q 272 680 321 785 q 222 431 222 575 q 275 179 222 283 q 467 75 328 75 q 649 180 600 75 q 697 431 697 285 z "},"Ộ":{"ha":918,"x_min":47,"x_max":871,"o":"m 47 0 m 461 871 q 772 749 672 871 q 871 431 871 626 q 771 110 871 233 q 461 -12 671 -12 q 228 46 321 -12 q 91 204 135 104 q 47 431 47 304 q 149 748 47 625 q 461 871 251 871 m 697 431 q 644 679 697 574 q 453 785 592 785 q 272 680 321 785 q 222 431 222 575 q 275 179 222 283 q 467 75 328 75 q 649 180 600 75 q 697 431 697 285 m 565 -165 q 534 -236 565 -207 q 461 -265 503 -265 q 386 -236 418 -265 q 354 -165 354 -207 q 387 -92 354 -124 q 461 -60 419 -60 q 534 -91 503 -60 q 565 -165 565 -122 m 631 894 l 458 1004 l 290 894 l 258 925 l 407 1111 l 513 1111 l 661 925 l 631 894 z "},"Ồ":{"ha":918,"x_min":47,"x_max":871,"o":"m 689 961 l 453 1217 l 467 1242 l 601 1242 l 731 989 l 689 961 m 593 894 l 421 1004 l 253 894 l 221 925 l 369 1111 l 475 1111 l 624 925 l 593 894 m 461 871 q 772 749 672 871 q 871 431 871 626 q 771 110 871 233 q 461 -12 671 -12 q 228 46 321 -12 q 91 204 135 104 q 47 431 47 304 q 149 748 47 625 q 461 871 251 871 m 697 431 q 644 679 697 574 q 453 785 592 785 q 272 680 321 785 q 222 431 222 575 q 275 179 222 283 q 467 75 328 75 q 649 180 600 75 q 697 431 697 285 z "},"Ổ":{"ha":918,"x_min":47,"x_max":871,"o":"m 47 0 m 461 871 q 772 749 672 871 q 871 431 871 626 q 771 110 871 233 q 461 -12 671 -12 q 228 46 321 -12 q 91 204 135 104 q 47 431 47 304 q 149 748 47 625 q 461 871 251 871 m 697 431 q 644 679 697 574 q 453 785 592 785 q 272 680 321 785 q 222 431 222 575 q 275 179 222 283 q 467 75 328 75 q 649 180 600 75 q 697 431 697 285 m 631 894 l 458 1004 l 290 894 l 258 925 l 407 1111 l 513 1111 l 661 925 l 631 894 m 769 1169 q 669 1097 769 1111 l 661 1064 l 594 1064 l 589 1122 q 676 1165 676 1122 q 663 1190 676 1181 q 625 1199 650 1199 q 589 1196 617 1199 l 579 1156 l 528 1156 l 519 1229 q 636 1243 589 1243 q 734 1224 699 1243 q 769 1169 769 1204 z "},"Ỗ":{"ha":918,"x_min":47,"x_max":871,"o":"m 47 0 m 461 871 q 772 749 672 871 q 871 431 871 626 q 771 110 871 233 q 461 -12 671 -12 q 228 46 321 -12 q 91 204 135 104 q 47 431 47 304 q 149 748 47 625 q 461 871 251 871 m 697 431 q 644 679 697 574 q 453 785 592 785 q 272 680 321 785 q 222 431 222 575 q 275 179 222 283 q 467 75 328 75 q 649 180 600 75 q 697 431 697 285 m 631 894 l 458 1004 l 290 894 l 258 925 l 407 1111 l 513 1111 l 661 925 l 631 894 m 690 1261 q 636 1159 664 1196 q 576 1122 608 1122 q 451 1150 543 1122 q 393 1167 422 1160 q 349 1175 364 1175 q 322 1165 335 1175 q 300 1144 308 1154 q 290 1129 292 1133 l 233 1153 q 285 1253 256 1215 q 349 1292 315 1292 q 469 1264 381 1292 q 530 1247 500 1254 q 576 1239 560 1239 q 604 1249 592 1239 q 625 1270 617 1260 q 635 1285 633 1281 l 690 1261 z "},"Ȍ":{"ha":918,"x_min":47,"x_max":871,"o":"m 47 0 m 461 871 q 772 749 672 871 q 871 431 871 626 q 771 110 871 233 q 461 -12 671 -12 q 228 46 321 -12 q 91 204 135 104 q 47 431 47 304 q 149 748 47 625 q 461 871 251 871 m 697 431 q 644 679 697 574 q 453 785 592 785 q 272 680 321 785 q 222 431 222 575 q 275 179 222 283 q 467 75 328 75 q 649 180 600 75 q 697 431 697 285 m 349 886 l 149 1096 l 149 1124 l 268 1124 l 388 915 l 349 886 m 572 886 l 372 1096 l 372 1124 l 492 1124 l 611 915 l 572 886 z "},"Ö":{"ha":918,"x_min":47,"x_max":871,"o":"m 404 1000 q 376 935 404 963 q 310 908 347 908 q 241 935 271 908 q 211 1000 211 963 q 241 1067 211 1039 q 310 1094 271 1094 q 376 1067 347 1094 q 404 1000 404 1039 m 708 1000 q 680 935 708 963 q 614 908 651 908 q 545 935 574 908 q 517 1000 517 961 q 545 1067 517 1039 q 614 1094 574 1094 q 680 1067 651 1094 q 708 1000 708 1039 m 461 871 q 772 749 672 871 q 871 431 871 626 q 771 110 871 233 q 461 -12 671 -12 q 228 46 321 -12 q 91 204 135 104 q 47 431 47 304 q 149 748 47 625 q 461 871 251 871 m 697 431 q 644 679 697 574 q 453 785 592 785 q 272 680 321 785 q 222 431 222 575 q 275 179 222 283 q 467 75 328 75 q 649 180 600 75 q 697 431 697 285 z "},"Ọ":{"ha":918,"x_min":47,"x_max":871,"o":"m 47 0 m 461 871 q 772 749 672 871 q 871 431 871 626 q 771 110 871 233 q 461 -12 671 -12 q 228 46 321 -12 q 91 204 135 104 q 47 431 47 304 q 149 748 47 625 q 461 871 251 871 m 697 431 q 644 679 697 574 q 453 785 592 785 q 272 680 321 785 q 222 431 222 575 q 275 179 222 283 q 467 75 328 75 q 649 180 600 75 q 697 431 697 285 m 565 -165 q 534 -236 565 -207 q 461 -265 503 -265 q 386 -236 418 -265 q 354 -165 354 -207 q 387 -92 354 -124 q 461 -60 419 -60 q 534 -91 503 -60 q 565 -165 565 -122 z "},"Ò":{"ha":918,"x_min":47,"x_max":871,"o":"m 581 889 l 267 1036 l 269 1067 l 394 1111 l 608 929 l 581 889 m 461 871 q 772 749 672 871 q 871 431 871 626 q 771 110 871 233 q 461 -12 671 -12 q 228 46 321 -12 q 91 204 135 104 q 47 431 47 304 q 149 748 47 625 q 461 871 251 871 m 697 431 q 644 679 697 574 q 453 785 592 785 q 272 680 321 785 q 222 431 222 575 q 275 179 222 283 q 467 75 328 75 q 649 180 600 75 q 697 431 697 285 z "},"Ỏ":{"ha":918,"x_min":47,"x_max":871,"o":"m 47 0 m 461 871 q 772 749 672 871 q 871 431 871 626 q 771 110 871 233 q 461 -12 671 -12 q 228 46 321 -12 q 91 204 135 104 q 47 431 47 304 q 149 748 47 625 q 461 871 251 871 m 697 431 q 644 679 697 574 q 453 785 592 785 q 272 680 321 785 q 222 431 222 575 q 275 179 222 283 q 467 75 328 75 q 649 180 600 75 q 697 431 697 285 m 606 1036 q 506 964 606 978 l 497 931 l 431 931 l 425 989 q 513 1032 513 989 q 499 1056 513 1047 q 461 1065 486 1065 q 425 1063 453 1065 l 415 1022 l 364 1022 l 356 1096 q 472 1110 425 1110 q 570 1090 535 1110 q 606 1036 606 1071 z "},"Ơ":{"ha":918,"x_min":47,"x_max":940,"o":"m 940 900 q 892 804 940 843 q 769 751 843 765 q 871 431 871 635 q 771 110 871 233 q 461 -12 671 -12 q 228 46 321 -12 q 91 204 135 104 q 47 431 47 304 q 149 748 47 625 q 461 871 251 871 q 699 811 601 871 l 729 811 q 791 826 769 811 q 813 885 813 842 q 806 942 813 911 l 814 960 l 922 979 q 935 939 931 961 q 940 900 940 917 m 467 75 q 649 180 600 75 q 697 431 697 285 q 644 679 697 574 q 453 785 592 785 q 272 680 321 785 q 222 431 222 575 q 275 179 222 283 q 467 75 328 75 z "},"Ớ":{"ha":918,"x_min":47,"x_max":940,"o":"m 47 0 m 940 900 q 892 804 940 843 q 769 751 843 765 q 871 431 871 635 q 771 110 871 233 q 461 -12 671 -12 q 228 46 321 -12 q 91 204 135 104 q 47 431 47 304 q 149 748 47 625 q 461 871 251 871 q 699 811 601 871 l 729 811 q 791 826 769 811 q 813 885 813 842 q 806 942 813 911 l 814 960 l 922 979 q 935 939 931 961 q 940 900 940 917 m 467 75 q 649 180 600 75 q 697 431 697 285 q 644 679 697 574 q 453 785 592 785 q 272 680 321 785 q 222 431 222 575 q 275 179 222 283 q 467 75 328 75 m 403 889 l 371 929 l 586 1111 l 714 1067 l 714 1036 l 403 889 z "},"Ợ":{"ha":918,"x_min":47,"x_max":940,"o":"m 47 0 m 940 900 q 892 804 940 843 q 769 751 843 765 q 871 431 871 635 q 771 110 871 233 q 461 -12 671 -12 q 228 46 321 -12 q 91 204 135 104 q 47 431 47 304 q 149 748 47 625 q 461 871 251 871 q 699 811 601 871 l 729 811 q 791 826 769 811 q 813 885 813 842 q 806 942 813 911 l 814 960 l 922 979 q 935 939 931 961 q 940 900 940 917 m 467 75 q 649 180 600 75 q 697 431 697 285 q 644 679 697 574 q 453 785 592 785 q 272 680 321 785 q 222 431 222 575 q 275 179 222 283 q 467 75 328 75 m 565 -165 q 534 -236 565 -207 q 461 -265 503 -265 q 386 -236 418 -265 q 354 -165 354 -207 q 387 -92 354 -124 q 461 -60 419 -60 q 534 -91 503 -60 q 565 -165 565 -122 z "},"Ờ":{"ha":918,"x_min":47,"x_max":940,"o":"m 47 0 m 940 900 q 892 804 940 843 q 769 751 843 765 q 871 431 871 635 q 771 110 871 233 q 461 -12 671 -12 q 228 46 321 -12 q 91 204 135 104 q 47 431 47 304 q 149 748 47 625 q 461 871 251 871 q 699 811 601 871 l 729 811 q 791 826 769 811 q 813 885 813 842 q 806 942 813 911 l 814 960 l 922 979 q 935 939 931 961 q 940 900 940 917 m 467 75 q 649 180 600 75 q 697 431 697 285 q 644 679 697 574 q 453 785 592 785 q 272 680 321 785 q 222 431 222 575 q 275 179 222 283 q 467 75 328 75 m 515 889 l 200 1036 l 204 1067 l 329 1111 l 543 929 l 515 889 z "},"Ở":{"ha":918,"x_min":47,"x_max":940,"o":"m 47 0 m 940 900 q 892 804 940 843 q 769 751 843 765 q 871 431 871 635 q 771 110 871 233 q 461 -12 671 -12 q 228 46 321 -12 q 91 204 135 104 q 47 431 47 304 q 149 748 47 625 q 461 871 251 871 q 699 811 601 871 l 729 811 q 791 826 769 811 q 813 885 813 842 q 806 942 813 911 l 814 960 l 922 979 q 935 939 931 961 q 940 900 940 917 m 467 75 q 649 180 600 75 q 697 431 697 285 q 644 679 697 574 q 453 785 592 785 q 272 680 321 785 q 222 431 222 575 q 275 179 222 283 q 467 75 328 75 m 606 1036 q 506 964 606 978 l 497 931 l 431 931 l 425 989 q 513 1032 513 989 q 499 1056 513 1047 q 461 1065 486 1065 q 425 1063 453 1065 l 415 1022 l 364 1022 l 356 1096 q 472 1110 425 1110 q 570 1090 535 1110 q 606 1036 606 1071 z "},"Ỡ":{"ha":918,"x_min":47,"x_max":940,"o":"m 47 0 m 940 900 q 892 804 940 843 q 769 751 843 765 q 871 431 871 635 q 771 110 871 233 q 461 -12 671 -12 q 228 46 321 -12 q 91 204 135 104 q 47 431 47 304 q 149 748 47 625 q 461 871 251 871 q 699 811 601 871 l 729 811 q 791 826 769 811 q 813 885 813 842 q 806 942 813 911 l 814 960 l 922 979 q 935 939 931 961 q 940 900 940 917 m 467 75 q 649 180 600 75 q 697 431 697 285 q 644 679 697 574 q 453 785 592 785 q 272 680 321 785 q 222 431 222 575 q 275 179 222 283 q 467 75 328 75 m 688 1061 q 633 959 661 996 q 574 922 606 922 q 449 950 540 922 q 390 967 419 960 q 346 975 361 975 q 319 965 332 975 q 297 944 306 954 q 288 929 289 933 l 231 953 q 283 1053 253 1015 q 346 1092 313 1092 q 467 1064 378 1092 q 527 1047 497 1054 q 574 1039 557 1039 q 601 1049 589 1039 q 622 1070 614 1060 q 632 1085 631 1081 l 688 1061 z "},"Ő":{"ha":918,"x_min":47,"x_max":871,"o":"m 313 886 l 272 915 l 393 1124 l 513 1124 l 513 1096 l 313 886 m 536 886 l 496 915 l 617 1124 l 736 1124 l 736 1096 l 536 886 m 461 -12 q 228 46 321 -12 q 91 204 135 104 q 47 431 47 304 q 149 748 47 625 q 461 871 251 871 q 772 749 672 871 q 871 431 871 626 q 771 110 871 233 q 461 -12 671 -12 m 467 75 q 649 180 600 75 q 697 431 697 285 q 644 679 697 574 q 453 785 592 785 q 272 680 321 785 q 222 431 222 575 q 275 179 222 283 q 467 75 328 75 z "},"Ȏ":{"ha":918,"x_min":47,"x_max":871,"o":"m 47 0 m 461 871 q 772 749 672 871 q 871 431 871 626 q 771 110 871 233 q 461 -12 671 -12 q 228 46 321 -12 q 91 204 135 104 q 47 431 47 304 q 149 748 47 625 q 461 871 251 871 m 697 431 q 644 679 697 574 q 453 785 592 785 q 272 680 321 785 q 222 431 222 575 q 275 179 222 283 q 467 75 328 75 q 649 180 600 75 q 697 431 697 285 m 461 1103 q 590 1054 556 1103 q 625 925 625 1006 l 556 922 q 534 983 556 958 q 458 1007 513 1007 q 358 922 358 1007 l 292 925 q 461 1103 292 1103 z "},"Ō":{"ha":918,"x_min":47,"x_max":871,"o":"m 297 1049 l 621 1049 l 621 951 l 297 951 l 297 1049 m 461 871 q 772 749 672 871 q 871 431 871 626 q 771 110 871 233 q 461 -12 671 -12 q 228 46 321 -12 q 91 204 135 104 q 47 431 47 304 q 149 748 47 625 q 461 871 251 871 m 697 431 q 644 679 697 574 q 453 785 592 785 q 272 680 321 785 q 222 431 222 575 q 275 179 222 283 q 467 75 328 75 q 649 180 600 75 q 697 431 697 285 z "},"Ǫ":{"ha":918,"x_min":47,"x_max":871,"o":"m 700 -193 q 779 -162 740 -193 l 807 -190 q 753 -245 789 -219 q 658 -271 717 -271 q 558 -237 590 -271 q 525 -154 525 -203 q 544 -76 525 -118 q 600 6 563 -35 q 461 -12 540 -12 q 228 46 321 -12 q 91 204 135 104 q 47 431 47 304 q 149 748 47 625 q 461 871 251 871 q 772 749 672 871 q 871 431 871 626 q 833 215 871 311 q 718 61 796 119 q 656 -25 679 26 q 633 -122 633 -76 q 700 -193 633 -193 m 222 431 q 275 179 222 283 q 467 75 328 75 q 649 180 600 75 q 697 431 697 285 q 644 679 697 574 q 453 785 592 785 q 272 680 321 785 q 222 431 222 575 z "},"Ø":{"ha":918,"x_min":47,"x_max":871,"o":"m 254 32 q 99 188 150 83 q 47 431 47 293 q 149 748 47 625 q 461 871 251 871 q 558 864 510 871 l 603 983 l 708 983 l 654 835 q 818 679 765 786 q 871 431 871 572 q 771 110 871 233 q 461 -12 671 -12 q 346 -1 404 -12 l 299 -132 l 196 -132 l 254 32 m 528 781 q 453 792 492 792 q 271 685 319 792 q 222 431 222 578 q 299 147 222 238 l 528 781 m 467 68 q 649 174 600 68 q 697 431 697 281 q 678 594 697 517 q 611 721 658 671 l 378 83 q 467 68 413 68 z "},"Ǿ":{"ha":918,"x_min":47,"x_max":871,"o":"m 47 0 m 254 32 q 99 188 150 83 q 47 431 47 293 q 149 748 47 625 q 461 871 251 871 q 558 864 510 871 l 603 983 l 708 983 l 654 835 q 818 679 765 786 q 871 431 871 572 q 771 110 871 233 q 461 -12 671 -12 q 346 -1 404 -12 l 299 -132 l 196 -132 l 254 32 m 528 781 q 453 792 492 792 q 271 685 319 792 q 222 431 222 578 q 299 147 222 238 l 528 781 m 467 68 q 649 174 600 68 q 697 431 697 281 q 678 594 697 517 q 611 721 658 671 l 378 83 q 467 68 413 68 m 315 889 l 283 929 l 499 1111 l 626 1067 l 626 1036 l 315 889 z "},"Õ":{"ha":918,"x_min":47,"x_max":871,"o":"m 688 1061 q 633 958 660 994 q 574 922 607 922 q 450 950 542 922 q 346 975 369 975 q 319 965 332 975 q 297 944 306 954 q 288 929 289 933 l 231 953 q 284 1053 254 1015 q 346 1092 314 1092 q 468 1064 379 1092 q 574 1039 549 1039 q 601 1049 589 1039 q 622 1070 614 1060 q 632 1085 631 1081 l 688 1061 m 461 871 q 772 749 672 871 q 871 431 871 626 q 771 110 871 233 q 461 -12 671 -12 q 228 46 321 -12 q 91 204 135 104 q 47 431 47 304 q 149 748 47 625 q 461 871 251 871 m 697 431 q 644 679 697 574 q 453 785 592 785 q 272 680 321 785 q 222 431 222 575 q 275 179 222 283 q 467 75 328 75 q 649 180 600 75 q 697 431 697 285 z "},"Œ":{"ha":1132,"x_min":47,"x_max":1097,"o":"m 1067 656 l 999 656 l 968 765 l 731 765 l 731 456 l 889 456 l 915 547 l 981 547 l 981 286 l 915 286 l 886 382 l 731 382 l 731 90 l 992 90 l 1028 218 l 1097 218 l 1097 0 l 451 0 q 147 118 247 0 q 47 431 47 236 q 147 737 47 622 q 451 851 246 851 l 1067 851 l 1067 656 m 571 764 q 443 781 508 781 q 267 678 315 781 q 219 431 219 575 q 272 176 219 282 q 457 71 324 71 q 571 88 517 71 l 571 764 z "},"P":{"ha":749,"x_min":50,"x_max":728,"o":"m 421 851 q 640 788 553 851 q 728 608 728 725 q 685 459 728 519 q 572 369 642 399 q 422 340 501 340 q 377 342 406 340 q 333 349 349 344 l 333 88 l 481 58 l 481 0 l 51 0 l 51 57 l 171 88 l 171 763 l 50 793 l 50 851 l 421 851 m 333 411 q 390 406 356 406 q 514 457 468 406 q 560 599 560 508 q 520 727 560 681 q 415 774 481 774 q 333 765 371 774 l 333 411 z "},"Þ":{"ha":732,"x_min":50,"x_max":700,"o":"m 51 57 l 171 88 l 171 764 l 50 794 l 50 851 l 454 851 l 454 794 l 333 764 l 333 667 l 399 667 q 618 608 536 667 q 700 436 700 549 q 659 294 700 351 q 553 210 618 238 q 411 182 488 182 q 333 189 357 182 l 333 88 l 454 57 l 454 0 l 51 0 l 51 57 m 381 246 q 499 293 456 246 q 542 426 542 340 q 501 549 542 507 q 382 590 460 590 q 333 586 358 590 l 333 251 q 381 246 351 246 z "},"Q":{"ha":918,"x_min":47,"x_max":946,"o":"m 946 -171 q 872 -201 918 -187 q 789 -215 825 -215 q 704 -200 749 -215 q 588 -140 660 -185 l 360 0 q 127 149 207 32 q 47 431 47 267 q 149 748 47 625 q 460 871 250 871 q 771 749 671 871 q 871 431 871 626 q 788 140 871 258 q 540 -6 706 21 q 739 -94 665 -64 q 839 -125 813 -125 l 940 -125 l 946 -171 m 221 431 q 274 183 221 289 q 465 76 328 76 q 648 181 599 76 q 697 431 697 286 q 644 678 697 572 q 451 785 590 785 q 270 679 319 785 q 221 431 221 574 z "},"R":{"ha":811,"x_min":51,"x_max":829,"o":"m 592 0 q 479 272 510 204 q 429 358 449 339 q 376 378 410 378 l 336 378 l 336 88 l 447 57 l 447 0 l 51 0 l 51 57 l 174 88 l 174 764 l 51 794 l 51 851 l 425 851 q 656 794 581 851 q 731 642 731 736 q 680 495 731 556 q 532 408 629 435 q 586 380 567 397 q 622 331 606 363 q 674 221 639 300 l 735 88 l 829 57 l 829 0 l 592 0 m 401 447 q 522 495 479 447 q 564 624 564 543 q 523 737 564 697 q 410 776 482 776 q 336 765 375 776 l 336 447 l 401 447 z "},"Ŕ":{"ha":811,"x_min":51,"x_max":829,"o":"m 290 889 l 257 929 l 474 1111 l 600 1067 l 600 1036 l 290 889 m 592 0 q 479 272 510 204 q 429 358 449 339 q 376 378 410 378 l 336 378 l 336 88 l 447 57 l 447 0 l 51 0 l 51 57 l 174 88 l 174 764 l 51 794 l 51 851 l 425 851 q 656 794 581 851 q 731 642 731 736 q 680 495 731 556 q 532 408 629 435 q 586 380 567 397 q 622 331 606 363 q 674 221 639 300 l 735 88 l 829 57 l 829 0 l 592 0 m 401 447 q 522 495 479 447 q 564 624 564 543 q 523 737 564 697 q 410 776 482 776 q 336 765 375 776 l 336 447 l 401 447 z "},"Ř":{"ha":811,"x_min":51,"x_max":829,"o":"m 356 894 l 207 1079 l 239 1111 l 408 1001 l 579 1111 l 608 1079 l 461 894 l 356 894 m 51 57 l 174 88 l 174 764 l 51 794 l 51 851 l 425 851 q 656 794 581 851 q 731 642 731 736 q 680 495 731 556 q 532 408 629 435 q 586 380 567 397 q 622 331 606 363 q 674 221 639 300 l 735 88 l 829 57 l 829 0 l 592 0 q 479 272 510 204 q 429 358 449 339 q 376 378 410 378 l 336 378 l 336 88 l 447 57 l 447 0 l 51 0 l 51 57 m 401 447 q 522 495 479 447 q 564 624 564 543 q 523 737 564 697 q 410 776 482 776 q 336 765 375 776 l 336 447 l 401 447 z "},"Ŗ":{"ha":811,"x_min":51,"x_max":829,"o":"m 51 57 l 174 88 l 174 764 l 51 794 l 51 851 l 425 851 q 656 794 581 851 q 731 642 731 736 q 680 495 731 556 q 532 408 629 435 q 586 380 567 397 q 622 331 606 363 q 674 221 639 300 l 735 88 l 829 57 l 829 0 l 592 0 q 479 272 510 204 q 429 358 449 339 q 376 378 410 378 l 336 378 l 336 88 l 447 57 l 447 0 l 51 0 l 51 57 m 401 447 q 522 495 479 447 q 564 624 564 543 q 523 737 564 697 q 410 776 482 776 q 336 765 375 776 l 336 447 l 401 447 m 382 -314 l 397 -61 l 513 -35 l 542 -64 l 439 -321 l 382 -314 z "},"Ȑ":{"ha":811,"x_min":51,"x_max":829,"o":"m 51 0 m 592 0 q 479 272 510 204 q 429 358 449 339 q 376 378 410 378 l 336 378 l 336 88 l 447 57 l 447 0 l 51 0 l 51 57 l 174 88 l 174 764 l 51 794 l 51 851 l 425 851 q 656 794 581 851 q 731 642 731 736 q 680 495 731 556 q 532 408 629 435 q 586 380 567 397 q 622 331 606 363 q 674 221 639 300 l 735 88 l 829 57 l 829 0 l 592 0 m 401 447 q 522 495 479 447 q 564 624 564 543 q 523 737 564 697 q 410 776 482 776 q 336 765 375 776 l 336 447 l 401 447 m 294 886 l 94 1096 l 94 1124 l 214 1124 l 333 915 l 294 886 m 518 886 l 318 1096 l 318 1124 l 438 1124 l 557 915 l 518 886 z "},"Ṛ":{"ha":811,"x_min":51,"x_max":829,"o":"m 51 0 m 592 0 q 479 272 510 204 q 429 358 449 339 q 376 378 410 378 l 336 378 l 336 88 l 447 57 l 447 0 l 51 0 l 51 57 l 174 88 l 174 764 l 51 794 l 51 851 l 425 851 q 656 794 581 851 q 731 642 731 736 q 680 495 731 556 q 532 408 629 435 q 586 380 567 397 q 622 331 606 363 q 674 221 639 300 l 735 88 l 829 57 l 829 0 l 592 0 m 401 447 q 522 495 479 447 q 564 624 564 543 q 523 737 564 697 q 410 776 482 776 q 336 765 375 776 l 336 447 l 401 447 m 511 -165 q 480 -236 511 -207 q 407 -265 449 -265 q 332 -236 364 -265 q 300 -165 300 -207 q 333 -92 300 -124 q 407 -60 365 -60 q 480 -91 449 -60 q 511 -165 511 -122 z "},"Ȓ":{"ha":811,"x_min":51,"x_max":829,"o":"m 51 0 m 592 0 q 479 272 510 204 q 429 358 449 339 q 376 378 410 378 l 336 378 l 336 88 l 447 57 l 447 0 l 51 0 l 51 57 l 174 88 l 174 764 l 51 794 l 51 851 l 425 851 q 656 794 581 851 q 731 642 731 736 q 680 495 731 556 q 532 408 629 435 q 586 380 567 397 q 622 331 606 363 q 674 221 639 300 l 735 88 l 829 57 l 829 0 l 592 0 m 401 447 q 522 495 479 447 q 564 624 564 543 q 523 737 564 697 q 410 776 482 776 q 336 765 375 776 l 336 447 l 401 447 m 407 1103 q 536 1054 501 1103 q 571 925 571 1006 l 501 922 q 480 983 501 958 q 404 1007 458 1007 q 304 922 304 1007 l 238 925 q 407 1103 238 1103 z "},"S":{"ha":658,"x_min":43,"x_max":614,"o":"m 58 624 q 134 807 58 742 q 349 872 210 872 q 585 835 464 872 l 569 640 l 504 640 l 474 769 q 421 780 456 775 q 361 785 386 785 q 244 755 289 785 q 200 663 200 725 q 231 578 200 611 q 324 519 263 546 l 458 464 q 577 378 540 432 q 614 240 614 324 q 532 54 614 122 q 294 -14 450 -14 q 165 -3 233 -14 q 43 29 97 8 l 64 217 l 132 217 l 157 96 q 296 75 229 75 q 419 107 374 75 q 464 194 464 139 q 436 278 464 246 q 343 338 408 310 l 206 394 q 100 477 142 421 q 58 624 58 533 z "},"Ś":{"ha":658,"x_min":46,"x_max":615,"o":"m 221 889 l 189 929 l 404 1111 l 531 1067 l 531 1036 l 221 889 m 61 624 q 137 807 61 742 q 350 872 213 872 q 586 835 467 872 l 572 640 l 506 640 l 475 769 q 423 780 458 775 q 364 785 388 785 q 246 755 290 785 q 201 663 201 725 q 233 578 201 611 q 326 519 264 546 l 461 464 q 578 378 542 432 q 615 240 615 324 q 533 54 615 122 q 296 -14 451 -14 q 168 -3 236 -14 q 46 29 100 8 l 65 217 l 135 217 l 158 96 q 297 75 235 75 q 420 107 375 75 q 465 194 465 139 q 438 278 465 246 q 344 338 410 310 l 208 394 q 103 477 144 421 q 61 624 61 533 z "},"Ꞌ":{"ha":189,"x_min":24,"x_max":197,"o":"m 85 374 l 24 385 l 42 850 l 164 851 l 197 818 l 85 374 z "},"Š":{"ha":658,"x_min":43,"x_max":614,"o":"m 288 894 l 138 1079 l 169 1111 l 340 1001 l 511 1111 l 540 1079 l 393 894 l 288 894 m 294 -14 q 165 -3 233 -14 q 43 29 97 8 l 64 217 l 132 217 l 157 96 q 296 75 229 75 q 419 107 374 75 q 464 194 464 139 q 436 278 464 246 q 343 338 408 310 l 206 394 q 100 477 142 421 q 58 624 58 533 q 134 807 58 742 q 349 872 210 872 q 585 835 464 872 l 569 640 l 504 640 l 474 769 q 421 780 456 775 q 361 785 386 785 q 244 755 289 785 q 200 663 200 725 q 231 578 200 611 q 324 519 263 546 l 458 464 q 577 378 540 432 q 614 240 614 324 q 532 54 614 122 q 294 -14 450 -14 z "},"Ş":{"ha":658,"x_min":46,"x_max":615,"o":"m 267 -306 q 193 -292 226 -306 l 204 -243 q 246 -253 224 -253 q 312 -231 288 -253 q 336 -179 336 -208 q 315 -137 336 -154 q 250 -119 294 -121 l 242 -99 l 272 -12 q 46 29 138 -7 l 65 217 l 135 217 l 158 96 q 297 75 235 75 q 420 107 375 75 q 465 194 465 139 q 438 278 465 246 q 344 338 410 310 l 208 394 q 103 477 144 421 q 61 624 61 533 q 137 807 61 742 q 350 872 213 872 q 586 835 467 872 l 572 640 l 506 640 l 475 769 q 423 780 458 775 q 364 785 388 785 q 246 755 290 785 q 201 663 201 725 q 233 578 201 611 q 326 519 264 546 l 461 464 q 578 378 542 432 q 615 240 615 324 q 542 62 615 129 q 329 -12 469 -6 l 314 -64 q 419 -92 383 -64 q 456 -162 456 -119 q 429 -234 456 -201 q 359 -286 403 -267 q 267 -306 315 -306 z "},"Ŝ":{"ha":658,"x_min":43,"x_max":614,"o":"m 43 0 m 58 624 q 134 807 58 742 q 349 872 210 872 q 585 835 464 872 l 569 640 l 504 640 l 474 769 q 421 780 456 775 q 361 785 386 785 q 244 755 289 785 q 200 663 200 725 q 231 578 200 611 q 324 519 263 546 l 458 464 q 577 378 540 432 q 614 240 614 324 q 532 54 614 122 q 294 -14 450 -14 q 165 -3 233 -14 q 43 29 97 8 l 64 217 l 132 217 l 157 96 q 296 75 229 75 q 419 107 374 75 q 464 194 464 139 q 436 278 464 246 q 343 338 408 310 l 206 394 q 100 477 142 421 q 58 624 58 533 m 501 894 l 329 1004 l 161 894 l 129 925 l 278 1111 l 383 1111 l 532 925 l 501 894 z "},"Ș":{"ha":658,"x_min":46,"x_max":615,"o":"m 296 -14 q 168 -3 236 -14 q 46 29 100 8 l 65 217 l 135 217 l 158 96 q 297 75 235 75 q 420 107 375 75 q 465 194 465 139 q 438 278 465 246 q 344 338 410 310 l 208 394 q 103 477 144 421 q 61 624 61 533 q 137 807 61 742 q 350 872 213 872 q 586 835 467 872 l 572 640 l 506 640 l 475 769 q 423 780 458 775 q 364 785 388 785 q 246 755 290 785 q 201 663 201 725 q 233 578 201 611 q 326 519 264 546 l 461 464 q 578 378 542 432 q 615 240 615 324 q 533 54 615 122 q 296 -14 451 -14 m 250 -314 l 265 -61 l 382 -35 l 410 -64 l 307 -321 l 250 -314 z "},"Ṣ":{"ha":658,"x_min":43,"x_max":614,"o":"m 43 0 m 58 624 q 134 807 58 742 q 349 872 210 872 q 585 835 464 872 l 569 640 l 504 640 l 474 769 q 421 780 456 775 q 361 785 386 785 q 244 755 289 785 q 200 663 200 725 q 231 578 200 611 q 324 519 263 546 l 458 464 q 577 378 540 432 q 614 240 614 324 q 532 54 614 122 q 294 -14 450 -14 q 165 -3 233 -14 q 43 29 97 8 l 64 217 l 132 217 l 157 96 q 296 75 229 75 q 419 107 374 75 q 464 194 464 139 q 436 278 464 246 q 343 338 408 310 l 206 394 q 100 477 142 421 q 58 624 58 533 m 436 -165 q 405 -236 436 -207 q 332 -265 374 -265 q 257 -236 289 -265 q 225 -165 225 -207 q 258 -92 225 -124 q 332 -60 290 -60 q 405 -91 374 -60 q 436 -165 436 -122 z "},"ẞ":{"ha":851,"x_min":10,"x_max":821,"o":"m 10 57 l 129 88 l 129 535 q 219 780 129 689 q 479 871 310 871 q 634 848 558 871 q 751 789 710 825 l 758 743 l 582 447 q 763 376 704 436 q 821 224 821 317 q 752 52 821 118 q 560 -14 683 -14 q 462 -3 511 -14 q 375 29 413 8 l 394 217 l 464 217 l 488 92 q 560 75 521 75 q 640 109 610 75 q 669 204 669 143 q 419 368 669 368 l 394 414 l 604 754 q 476 779 554 779 q 335 724 378 779 q 292 561 292 668 l 292 88 l 326 58 l 326 0 l 10 0 l 10 57 z "},"Ə":{"ha":904,"x_min":47,"x_max":857,"o":"m 440 -12 q 147 97 246 -12 q 47 426 47 207 l 47 463 l 681 463 q 615 694 675 604 q 425 783 554 783 q 232 735 329 783 l 197 615 l 131 615 l 119 799 q 433 872 269 872 q 756 749 654 872 q 857 428 857 626 q 751 105 857 222 q 440 -12 646 -12 m 450 75 q 624 163 575 75 q 681 385 674 251 l 224 385 q 287 151 231 228 q 450 75 343 75 z "},"T":{"ha":736,"x_min":11,"x_max":725,"o":"m 11 851 l 725 851 l 717 640 l 647 640 l 619 765 l 450 765 l 450 88 l 578 57 l 578 0 l 160 0 l 160 57 l 288 88 l 288 765 l 115 765 l 89 640 l 21 640 l 11 851 z "},"Ŧ":{"ha":736,"x_min":11,"x_max":725,"o":"m 619 765 l 450 765 l 450 471 l 686 471 l 686 399 l 450 399 l 450 88 l 578 57 l 578 0 l 160 0 l 160 57 l 288 88 l 288 399 l 56 399 l 56 471 l 288 471 l 288 765 l 115 765 l 89 640 l 21 640 l 11 851 l 725 851 l 717 640 l 647 640 l 619 765 z "},"Ť":{"ha":736,"x_min":11,"x_max":725,"o":"m 317 894 l 167 1079 l 199 1111 l 369 1001 l 540 1111 l 569 1079 l 422 894 l 317 894 m 160 0 l 160 57 l 288 88 l 288 765 l 115 765 l 89 640 l 21 640 l 11 851 l 725 851 l 717 640 l 647 640 l 619 765 l 450 765 l 450 88 l 578 57 l 578 0 l 160 0 z "},"Ţ":{"ha":736,"x_min":11,"x_max":725,"o":"m 328 -306 q 254 -292 288 -306 l 265 -243 q 308 -253 286 -253 q 374 -231 349 -253 q 399 -179 399 -208 q 377 -137 399 -154 q 311 -119 356 -121 l 304 -99 l 339 0 l 160 0 l 160 57 l 288 88 l 288 765 l 115 765 l 89 640 l 21 640 l 11 851 l 725 851 l 717 640 l 647 640 l 619 765 l 450 765 l 450 88 l 578 57 l 578 0 l 396 0 l 375 -64 q 481 -92 444 -64 q 517 -162 517 -119 q 490 -234 517 -201 q 421 -286 464 -267 q 328 -306 378 -306 z "},"Ț":{"ha":736,"x_min":11,"x_max":725,"o":"m 160 0 l 160 57 l 288 88 l 288 765 l 115 765 l 89 640 l 21 640 l 11 851 l 725 851 l 717 640 l 647 640 l 619 765 l 450 765 l 450 88 l 578 57 l 578 0 l 160 0 m 290 -314 l 306 -61 l 421 -35 l 450 -64 l 347 -321 l 290 -314 z "},"Ṭ":{"ha":736,"x_min":11,"x_max":725,"o":"m 11 0 m 11 851 l 725 851 l 717 640 l 647 640 l 619 765 l 450 765 l 450 88 l 578 57 l 578 0 l 160 0 l 160 57 l 288 88 l 288 765 l 115 765 l 89 640 l 21 640 l 11 851 m 475 -165 q 444 -236 475 -207 q 371 -265 413 -265 q 296 -236 328 -265 q 264 -165 264 -207 q 297 -92 264 -124 q 371 -60 329 -60 q 444 -91 413 -60 q 475 -165 475 -122 z "},"U":{"ha":914,"x_min":10,"x_max":903,"o":"m 786 328 q 717 95 786 203 q 464 -12 649 -12 q 256 38 329 -12 q 156 170 182 88 q 131 368 131 253 l 131 764 l 10 794 l 10 851 l 414 851 l 414 794 l 293 764 l 293 368 q 307 213 293 275 q 363 114 321 151 q 483 76 404 76 q 641 147 590 76 q 692 336 692 217 l 692 765 l 572 794 l 572 851 l 903 851 l 903 794 l 786 765 l 786 328 z "},"Ú":{"ha":914,"x_min":10,"x_max":903,"o":"m 354 889 l 322 929 l 538 1111 l 664 1067 l 664 1036 l 354 889 m 786 328 q 717 95 786 203 q 464 -12 649 -12 q 256 38 329 -12 q 156 170 182 88 q 131 368 131 253 l 131 764 l 10 794 l 10 851 l 414 851 l 414 794 l 293 764 l 293 368 q 307 213 293 275 q 363 114 321 151 q 483 76 404 76 q 641 147 590 76 q 692 336 692 217 l 692 765 l 572 794 l 572 851 l 903 851 l 903 794 l 786 765 l 786 328 z "},"Ŭ":{"ha":914,"x_min":10,"x_max":903,"o":"m 10 0 m 786 328 q 717 95 786 203 q 464 -12 649 -12 q 256 38 329 -12 q 156 170 182 88 q 131 368 131 253 l 131 764 l 10 794 l 10 851 l 414 851 l 414 794 l 293 764 l 293 368 q 307 213 293 275 q 363 114 321 151 q 483 76 404 76 q 641 147 590 76 q 692 336 692 217 l 692 765 l 572 794 l 572 851 l 903 851 l 903 794 l 786 765 l 786 328 m 453 911 q 324 959 360 911 q 289 1089 289 1007 l 360 1092 q 381 1031 360 1056 q 456 1006 403 1006 q 533 1031 511 1006 q 556 1092 556 1056 l 622 1089 q 585 960 622 1008 q 453 911 549 911 z "},"Ǔ":{"ha":914,"x_min":10,"x_max":903,"o":"m 10 0 m 786 328 q 717 95 786 203 q 464 -12 649 -12 q 256 38 329 -12 q 156 170 182 88 q 131 368 131 253 l 131 764 l 10 794 l 10 851 l 414 851 l 414 794 l 293 764 l 293 368 q 307 213 293 275 q 363 114 321 151 q 483 76 404 76 q 641 147 590 76 q 692 336 692 217 l 692 765 l 572 794 l 572 851 l 903 851 l 903 794 l 786 765 l 786 328 m 406 894 l 256 1079 l 288 1111 l 458 1001 l 628 1111 l 658 1079 l 511 894 l 406 894 z "},"Û":{"ha":914,"x_min":10,"x_max":903,"o":"m 654 894 l 482 1004 l 314 894 l 282 925 l 429 1111 l 536 1111 l 683 925 l 654 894 m 786 328 q 717 95 786 203 q 464 -12 649 -12 q 256 38 329 -12 q 156 170 182 88 q 131 368 131 253 l 131 764 l 10 794 l 10 851 l 414 851 l 414 794 l 293 764 l 293 368 q 307 213 293 275 q 363 114 321 151 q 483 76 404 76 q 641 147 590 76 q 692 336 692 217 l 692 765 l 572 794 l 572 851 l 903 851 l 903 794 l 786 765 l 786 328 z "},"Ȕ":{"ha":914,"x_min":10,"x_max":903,"o":"m 10 0 m 786 328 q 717 95 786 203 q 464 -12 649 -12 q 256 38 329 -12 q 156 170 182 88 q 131 368 131 253 l 131 764 l 10 794 l 10 851 l 414 851 l 414 794 l 293 764 l 293 368 q 307 213 293 275 q 363 114 321 151 q 483 76 404 76 q 641 147 590 76 q 692 336 692 217 l 692 765 l 572 794 l 572 851 l 903 851 l 903 794 l 786 765 l 786 328 m 346 886 l 146 1096 l 146 1124 l 265 1124 l 385 915 l 346 886 m 569 886 l 369 1096 l 369 1124 l 489 1124 l 608 915 l 569 886 z "},"Ü":{"ha":914,"x_min":10,"x_max":903,"o":"m 431 1000 q 403 935 431 961 q 336 908 375 908 q 267 935 297 908 q 238 1000 238 961 q 267 1067 238 1039 q 336 1094 297 1094 q 402 1067 374 1094 q 431 1000 431 1039 m 733 1000 q 706 935 733 961 q 640 908 678 908 q 572 935 600 908 q 543 1000 543 961 q 572 1067 543 1039 q 640 1094 600 1094 q 706 1067 678 1094 q 733 1000 733 1039 m 786 328 q 717 95 786 203 q 464 -12 649 -12 q 256 38 329 -12 q 156 170 182 88 q 131 368 131 253 l 131 764 l 10 794 l 10 851 l 414 851 l 414 794 l 293 764 l 293 368 q 307 213 293 275 q 363 114 321 151 q 483 76 404 76 q 641 147 590 76 q 692 336 692 217 l 692 765 l 572 794 l 572 851 l 903 851 l 903 794 l 786 765 l 786 328 z "},"Ǘ":{"ha":914,"x_min":10,"x_max":903,"o":"m 10 0 m 786 328 q 717 95 786 203 q 464 -12 649 -12 q 256 38 329 -12 q 156 170 182 88 q 131 368 131 253 l 131 764 l 10 794 l 10 851 l 414 851 l 414 794 l 293 764 l 293 368 q 307 213 293 275 q 363 114 321 151 q 483 76 404 76 q 641 147 590 76 q 692 336 692 217 l 692 765 l 572 794 l 572 851 l 903 851 l 903 794 l 786 765 l 786 328 m 401 1000 q 374 935 401 961 q 307 908 346 908 q 238 935 267 908 q 208 1000 208 961 q 238 1067 208 1039 q 307 1094 267 1094 q 373 1067 344 1094 q 401 1000 401 1039 m 704 1000 q 676 935 704 961 q 610 908 649 908 q 542 935 571 908 q 513 1000 513 961 q 542 1067 513 1039 q 610 1094 571 1094 q 676 1067 647 1094 q 704 1000 704 1039 m 403 1132 l 371 1172 l 586 1354 l 714 1310 l 714 1279 l 403 1132 z "},"Ǚ":{"ha":914,"x_min":10,"x_max":903,"o":"m 10 0 m 786 328 q 717 95 786 203 q 464 -12 649 -12 q 256 38 329 -12 q 156 170 182 88 q 131 368 131 253 l 131 764 l 10 794 l 10 851 l 414 851 l 414 794 l 293 764 l 293 368 q 307 213 293 275 q 363 114 321 151 q 483 76 404 76 q 641 147 590 76 q 692 336 692 217 l 692 765 l 572 794 l 572 851 l 903 851 l 903 794 l 786 765 l 786 328 m 401 1000 q 374 935 401 961 q 307 908 346 908 q 238 935 267 908 q 208 1000 208 961 q 238 1067 208 1039 q 307 1094 267 1094 q 373 1067 344 1094 q 401 1000 401 1039 m 704 1000 q 676 935 704 961 q 610 908 649 908 q 542 935 571 908 q 513 1000 513 961 q 542 1067 513 1039 q 610 1094 571 1094 q 676 1067 647 1094 q 704 1000 704 1039 m 408 1138 l 258 1322 l 290 1354 l 461 1244 l 631 1354 l 661 1322 l 514 1138 l 408 1138 z "},"Ǜ":{"ha":914,"x_min":10,"x_max":903,"o":"m 10 0 m 786 328 q 717 95 786 203 q 464 -12 649 -12 q 256 38 329 -12 q 156 170 182 88 q 131 368 131 253 l 131 764 l 10 794 l 10 851 l 414 851 l 414 794 l 293 764 l 293 368 q 307 213 293 275 q 363 114 321 151 q 483 76 404 76 q 641 147 590 76 q 692 336 692 217 l 692 765 l 572 794 l 572 851 l 903 851 l 903 794 l 786 765 l 786 328 m 401 1000 q 374 935 401 961 q 307 908 346 908 q 238 935 267 908 q 208 1000 208 961 q 238 1067 208 1039 q 307 1094 267 1094 q 373 1067 344 1094 q 401 1000 401 1039 m 704 1000 q 676 935 704 961 q 610 908 649 908 q 542 935 571 908 q 513 1000 513 961 q 542 1067 513 1039 q 610 1094 571 1094 q 676 1067 647 1094 q 704 1000 704 1039 m 515 1132 l 200 1279 l 204 1310 l 329 1354 l 543 1172 l 515 1132 z "},"Ǖ":{"ha":914,"x_min":10,"x_max":903,"o":"m 10 0 m 786 328 q 717 95 786 203 q 464 -12 649 -12 q 256 38 329 -12 q 156 170 182 88 q 131 368 131 253 l 131 764 l 10 794 l 10 851 l 414 851 l 414 794 l 293 764 l 293 368 q 307 213 293 275 q 363 114 321 151 q 483 76 404 76 q 641 147 590 76 q 692 336 692 217 l 692 765 l 572 794 l 572 851 l 903 851 l 903 794 l 786 765 l 786 328 m 401 1000 q 374 935 401 961 q 307 908 346 908 q 238 935 267 908 q 208 1000 208 961 q 238 1067 208 1039 q 307 1094 267 1094 q 373 1067 344 1094 q 401 1000 401 1039 m 704 1000 q 676 935 704 961 q 610 908 649 908 q 542 935 571 908 q 513 1000 513 961 q 542 1067 513 1039 q 610 1094 571 1094 q 676 1067 647 1094 q 704 1000 704 1039 m 297 1292 l 621 1292 l 621 1194 l 297 1194 l 297 1292 z "},"Ụ":{"ha":914,"x_min":10,"x_max":903,"o":"m 10 0 m 786 328 q 717 95 786 203 q 464 -12 649 -12 q 256 38 329 -12 q 156 170 182 88 q 131 368 131 253 l 131 764 l 10 794 l 10 851 l 414 851 l 414 794 l 293 764 l 293 368 q 307 213 293 275 q 363 114 321 151 q 483 76 404 76 q 641 147 590 76 q 692 336 692 217 l 692 765 l 572 794 l 572 851 l 903 851 l 903 794 l 786 765 l 786 328 m 563 -165 q 531 -236 563 -207 q 458 -265 500 -265 q 383 -236 415 -265 q 351 -165 351 -207 q 384 -92 351 -124 q 458 -60 417 -60 q 531 -91 500 -60 q 563 -165 563 -122 z "},"Ù":{"ha":914,"x_min":10,"x_max":903,"o":"m 575 889 l 261 1036 l 264 1067 l 389 1111 l 603 929 l 575 889 m 786 328 q 717 95 786 203 q 464 -12 649 -12 q 256 38 329 -12 q 156 170 182 88 q 131 368 131 253 l 131 764 l 10 794 l 10 851 l 414 851 l 414 794 l 293 764 l 293 368 q 307 213 293 275 q 363 114 321 151 q 483 76 404 76 q 641 147 590 76 q 692 336 692 217 l 692 765 l 572 794 l 572 851 l 903 851 l 903 794 l 786 765 l 786 328 z "},"Ủ":{"ha":914,"x_min":10,"x_max":903,"o":"m 10 0 m 786 328 q 717 95 786 203 q 464 -12 649 -12 q 256 38 329 -12 q 156 170 182 88 q 131 368 131 253 l 131 764 l 10 794 l 10 851 l 414 851 l 414 794 l 293 764 l 293 368 q 307 213 293 275 q 363 114 321 151 q 483 76 404 76 q 641 147 590 76 q 692 336 692 217 l 692 765 l 572 794 l 572 851 l 903 851 l 903 794 l 786 765 l 786 328 m 603 1036 q 503 964 603 978 l 494 931 l 428 931 l 422 989 q 510 1032 510 989 q 497 1056 510 1047 q 458 1065 483 1065 q 422 1063 450 1065 l 413 1022 l 361 1022 l 353 1096 q 469 1110 422 1110 q 567 1090 532 1110 q 603 1036 603 1071 z "},"Ư":{"ha":914,"x_min":10,"x_max":957,"o":"m 957 940 q 933 870 957 901 q 867 818 908 839 l 786 765 l 786 328 q 717 95 786 203 q 464 -12 649 -12 q 256 38 329 -12 q 156 170 182 88 q 131 368 131 253 l 131 764 l 10 794 l 10 851 l 414 851 l 414 794 l 293 764 l 293 368 q 307 213 293 275 q 363 114 321 151 q 483 76 404 76 q 641 147 590 76 q 692 336 692 217 l 692 765 l 572 794 l 572 851 l 746 851 q 808 867 786 851 q 829 925 829 882 q 822 982 829 951 l 831 1000 l 939 1019 q 952 979 947 1001 q 957 940 957 957 z "},"Ứ":{"ha":914,"x_min":10,"x_max":957,"o":"m 10 0 m 957 940 q 933 870 957 901 q 867 818 908 839 l 786 765 l 786 328 q 717 95 786 203 q 464 -12 649 -12 q 256 38 329 -12 q 156 170 182 88 q 131 368 131 253 l 131 764 l 10 794 l 10 851 l 414 851 l 414 794 l 293 764 l 293 368 q 307 213 293 275 q 363 114 321 151 q 483 76 404 76 q 641 147 590 76 q 692 336 692 217 l 692 765 l 572 794 l 572 851 l 746 851 q 808 867 786 851 q 829 925 829 882 q 822 982 829 951 l 831 1000 l 939 1019 q 952 979 947 1001 q 957 940 957 957 m 400 889 l 368 929 l 583 1111 l 711 1067 l 711 1036 l 400 889 z "},"Ự":{"ha":914,"x_min":10,"x_max":957,"o":"m 10 0 m 957 940 q 933 870 957 901 q 867 818 908 839 l 786 765 l 786 328 q 717 95 786 203 q 464 -12 649 -12 q 256 38 329 -12 q 156 170 182 88 q 131 368 131 253 l 131 764 l 10 794 l 10 851 l 414 851 l 414 794 l 293 764 l 293 368 q 307 213 293 275 q 363 114 321 151 q 483 76 404 76 q 641 147 590 76 q 692 336 692 217 l 692 765 l 572 794 l 572 851 l 746 851 q 808 867 786 851 q 829 925 829 882 q 822 982 829 951 l 831 1000 l 939 1019 q 952 979 947 1001 q 957 940 957 957 m 563 -165 q 531 -236 563 -207 q 458 -265 500 -265 q 383 -236 415 -265 q 351 -165 351 -207 q 384 -92 351 -124 q 458 -60 417 -60 q 531 -91 500 -60 q 563 -165 563 -122 z "},"Ừ":{"ha":914,"x_min":10,"x_max":957,"o":"m 10 0 m 957 940 q 933 870 957 901 q 867 818 908 839 l 786 765 l 786 328 q 717 95 786 203 q 464 -12 649 -12 q 256 38 329 -12 q 156 170 182 88 q 131 368 131 253 l 131 764 l 10 794 l 10 851 l 414 851 l 414 794 l 293 764 l 293 368 q 307 213 293 275 q 363 114 321 151 q 483 76 404 76 q 641 147 590 76 q 692 336 692 217 l 692 765 l 572 794 l 572 851 l 746 851 q 808 867 786 851 q 829 925 829 882 q 822 982 829 951 l 831 1000 l 939 1019 q 952 979 947 1001 q 957 940 957 957 m 513 889 l 197 1036 l 201 1067 l 326 1111 l 540 929 l 513 889 z "},"Ử":{"ha":914,"x_min":10,"x_max":957,"o":"m 10 0 m 957 940 q 933 870 957 901 q 867 818 908 839 l 786 765 l 786 328 q 717 95 786 203 q 464 -12 649 -12 q 256 38 329 -12 q 156 170 182 88 q 131 368 131 253 l 131 764 l 10 794 l 10 851 l 414 851 l 414 794 l 293 764 l 293 368 q 307 213 293 275 q 363 114 321 151 q 483 76 404 76 q 641 147 590 76 q 692 336 692 217 l 692 765 l 572 794 l 572 851 l 746 851 q 808 867 786 851 q 829 925 829 882 q 822 982 829 951 l 831 1000 l 939 1019 q 952 979 947 1001 q 957 940 957 957 m 603 1036 q 503 964 603 978 l 494 931 l 428 931 l 422 989 q 510 1032 510 989 q 497 1056 510 1047 q 458 1065 483 1065 q 422 1063 450 1065 l 413 1022 l 361 1022 l 353 1096 q 469 1110 422 1110 q 567 1090 532 1110 q 603 1036 603 1071 z "},"Ữ":{"ha":914,"x_min":10,"x_max":957,"o":"m 10 0 m 957 940 q 933 870 957 901 q 867 818 908 839 l 786 765 l 786 328 q 717 95 786 203 q 464 -12 649 -12 q 256 38 329 -12 q 156 170 182 88 q 131 368 131 253 l 131 764 l 10 794 l 10 851 l 414 851 l 414 794 l 293 764 l 293 368 q 307 213 293 275 q 363 114 321 151 q 483 76 404 76 q 641 147 590 76 q 692 336 692 217 l 692 765 l 572 794 l 572 851 l 746 851 q 808 867 786 851 q 829 925 829 882 q 822 982 829 951 l 831 1000 l 939 1019 q 952 979 947 1001 q 957 940 957 957 m 685 1061 q 631 959 658 996 q 571 922 603 922 q 446 950 538 922 q 388 967 417 960 q 343 975 358 975 q 316 965 329 975 q 294 944 303 954 q 285 929 286 933 l 228 953 q 280 1053 250 1015 q 343 1092 310 1092 q 464 1064 375 1092 q 524 1047 494 1054 q 571 1039 554 1039 q 599 1049 586 1039 q 619 1070 611 1060 q 629 1085 628 1081 l 685 1061 z "},"Ű":{"ha":914,"x_min":10,"x_max":903,"o":"m 336 886 l 297 915 l 417 1124 l 536 1124 l 536 1096 l 336 886 m 560 886 l 521 915 l 640 1124 l 760 1124 l 760 1096 l 560 886 m 786 328 q 717 95 786 203 q 464 -12 649 -12 q 256 38 329 -12 q 156 170 182 88 q 131 368 131 253 l 131 764 l 10 794 l 10 851 l 414 851 l 414 794 l 293 764 l 293 368 q 307 213 293 275 q 363 114 321 151 q 483 76 404 76 q 641 147 590 76 q 692 336 692 217 l 692 765 l 572 794 l 572 851 l 903 851 l 903 794 l 786 765 l 786 328 z "},"Ȗ":{"ha":914,"x_min":10,"x_max":903,"o":"m 10 0 m 786 328 q 717 95 786 203 q 464 -12 649 -12 q 256 38 329 -12 q 156 170 182 88 q 131 368 131 253 l 131 764 l 10 794 l 10 851 l 414 851 l 414 794 l 293 764 l 293 368 q 307 213 293 275 q 363 114 321 151 q 483 76 404 76 q 641 147 590 76 q 692 336 692 217 l 692 765 l 572 794 l 572 851 l 903 851 l 903 794 l 786 765 l 786 328 m 458 1103 q 588 1054 553 1103 q 622 925 622 1006 l 553 922 q 531 983 553 958 q 456 1007 510 1007 q 356 922 356 1007 l 289 925 q 458 1103 289 1103 z "},"Ū":{"ha":914,"x_min":10,"x_max":903,"o":"m 331 1049 l 653 1049 l 653 951 l 331 951 l 331 1049 m 786 328 q 717 95 786 203 q 464 -12 649 -12 q 256 38 329 -12 q 156 170 182 88 q 131 368 131 253 l 131 764 l 10 794 l 10 851 l 414 851 l 414 794 l 293 764 l 293 368 q 307 213 293 275 q 363 114 321 151 q 483 76 404 76 q 641 147 590 76 q 692 336 692 217 l 692 765 l 572 794 l 572 851 l 903 851 l 903 794 l 786 765 l 786 328 z "},"Ų":{"ha":914,"x_min":10,"x_max":903,"o":"m 515 -325 q 411 -290 444 -325 q 378 -206 378 -256 q 410 -104 378 -156 q 504 -7 443 -53 q 464 -12 486 -12 q 256 38 329 -12 q 156 170 182 88 q 131 368 131 253 l 131 764 l 10 794 l 10 851 l 414 851 l 414 794 l 293 764 l 293 368 q 307 213 293 275 q 363 114 321 151 q 483 76 404 76 q 641 147 590 76 q 692 336 692 217 l 692 765 l 572 794 l 572 851 l 903 851 l 903 794 l 786 765 l 786 328 q 751 152 786 239 q 624 22 715 65 q 488 -178 488 -49 q 553 -247 488 -247 q 632 -217 596 -247 l 661 -244 q 643 -268 661 -247 q 592 -307 625 -289 q 515 -325 560 -325 z "},"Ů":{"ha":914,"x_min":10,"x_max":903,"o":"m 494 874 q 383 910 422 874 q 343 1004 343 947 q 383 1101 343 1063 q 494 1139 422 1139 q 607 1101 568 1139 q 646 1004 646 1064 q 607 910 646 946 q 494 874 568 874 m 494 933 q 544 952 532 933 q 556 1004 556 971 q 544 1059 556 1039 q 494 1079 532 1079 q 447 1059 458 1079 q 435 1004 435 1039 q 447 952 435 971 q 494 933 458 933 m 464 -12 q 256 38 329 -12 q 156 170 182 88 q 131 368 131 253 l 131 764 l 10 794 l 10 851 l 414 851 l 414 794 l 293 764 l 293 368 q 307 213 293 275 q 363 114 321 151 q 483 76 404 76 q 641 147 590 76 q 692 336 692 217 l 692 765 l 572 794 l 572 851 l 903 851 l 903 794 l 786 765 l 786 328 q 717 95 786 203 q 464 -12 649 -12 z "},"Ũ":{"ha":914,"x_min":10,"x_max":903,"o":"m 717 1075 q 662 973 689 1010 q 603 936 635 936 q 478 964 569 936 q 419 981 449 974 q 375 989 390 989 q 347 978 360 989 q 326 958 335 968 q 317 943 318 947 l 260 967 q 312 1068 282 1029 q 374 1107 342 1107 q 496 1079 407 1107 q 556 1062 526 1069 q 603 1054 586 1054 q 631 1064 618 1054 q 651 1085 643 1074 q 661 1099 660 1096 l 717 1075 m 786 328 q 717 95 786 203 q 464 -12 649 -12 q 256 38 329 -12 q 156 170 182 88 q 131 368 131 253 l 131 764 l 10 794 l 10 851 l 414 851 l 414 794 l 293 764 l 293 368 q 307 208 293 272 q 363 107 321 144 q 483 69 404 69 q 641 141 590 69 q 692 336 692 213 l 692 765 l 572 794 l 572 851 l 903 851 l 903 794 l 786 765 l 786 328 z "},"V":{"ha":819,"x_min":-1,"x_max":831,"o":"m 374 -14 l 97 764 l -1 794 l -1 851 l 356 851 l 356 794 l 268 767 l 447 236 l 454 213 l 460 236 l 629 764 l 533 794 l 533 851 l 831 851 l 831 796 l 732 764 l 474 4 l 374 -14 z "},"W":{"ha":1088,"x_min":-14,"x_max":1114,"o":"m 814 851 l 1114 851 l 1114 796 l 1014 764 l 833 4 l 736 -14 l 553 564 l 396 4 l 299 -14 l 85 764 l -14 794 l -14 851 l 343 851 l 343 794 l 257 767 l 374 257 l 501 758 l 646 785 l 801 246 l 911 764 l 814 794 l 814 851 z "},"Ẃ":{"ha":1088,"x_min":-14,"x_max":1114,"o":"m 0 0 m 814 851 l 1114 851 l 1114 796 l 1014 764 l 833 4 l 736 -14 l 553 564 l 396 4 l 299 -14 l 85 764 l -14 794 l -14 851 l 343 851 l 343 794 l 257 767 l 374 257 l 501 758 l 646 785 l 801 246 l 911 764 l 814 794 l 814 851 m 481 889 l 449 929 l 664 1111 l 792 1067 l 792 1036 l 481 889 z "},"Ŵ":{"ha":1088,"x_min":-14,"x_max":1114,"o":"m 0 0 m 814 851 l 1114 851 l 1114 796 l 1014 764 l 833 4 l 736 -14 l 553 564 l 396 4 l 299 -14 l 85 764 l -14 794 l -14 851 l 343 851 l 343 794 l 257 767 l 374 257 l 501 758 l 646 785 l 801 246 l 911 764 l 814 794 l 814 851 m 708 894 l 536 1004 l 368 894 l 336 925 l 485 1111 l 590 1111 l 739 925 l 708 894 z "},"Ẅ":{"ha":1088,"x_min":-14,"x_max":1114,"o":"m 0 0 m 814 851 l 1114 851 l 1114 796 l 1014 764 l 833 4 l 736 -14 l 553 564 l 396 4 l 299 -14 l 85 764 l -14 794 l -14 851 l 343 851 l 343 794 l 257 767 l 374 257 l 501 758 l 646 785 l 801 246 l 911 764 l 814 794 l 814 851 m 482 1000 q 454 935 482 961 q 388 908 426 908 q 318 935 347 908 q 289 1000 289 961 q 318 1067 289 1039 q 388 1094 347 1094 q 453 1067 425 1094 q 482 1000 482 1039 m 785 1000 q 757 935 785 961 q 690 908 729 908 q 622 935 651 908 q 593 1000 593 961 q 622 1067 593 1039 q 690 1094 651 1094 q 756 1067 728 1094 q 785 1000 785 1039 z "},"Ẁ":{"ha":1088,"x_min":-14,"x_max":1114,"o":"m 0 0 m 814 851 l 1114 851 l 1114 796 l 1014 764 l 833 4 l 736 -14 l 553 564 l 396 4 l 299 -14 l 85 764 l -14 794 l -14 851 l 343 851 l 343 794 l 257 767 l 374 257 l 501 758 l 646 785 l 801 246 l 911 764 l 814 794 l 814 851 m 593 889 l 278 1036 l 282 1067 l 407 1111 l 621 929 l 593 889 z "},"X":{"ha":829,"x_min":7,"x_max":824,"o":"m 313 58 l 313 0 l 7 0 l 7 57 l 101 85 l 328 422 l 110 767 l 17 794 l 17 851 l 381 851 l 381 792 l 288 767 l 440 528 l 599 767 l 500 792 l 500 851 l 807 851 l 807 794 l 713 767 l 494 444 l 721 85 l 824 57 l 824 0 l 458 0 l 458 60 l 543 85 l 381 336 l 215 85 l 313 58 z "},"Y":{"ha":794,"x_min":14,"x_max":799,"o":"m 500 793 l 500 851 l 799 851 l 799 796 l 700 764 l 490 340 l 490 88 l 619 57 l 619 0 l 201 0 l 201 57 l 329 88 l 329 340 l 111 764 l 14 794 l 14 851 l 379 851 l 379 793 l 289 764 l 444 456 l 599 765 l 500 793 z "},"Ý":{"ha":794,"x_min":10,"x_max":794,"o":"m 314 889 l 281 929 l 497 1111 l 624 1067 l 624 1036 l 314 889 m 496 793 l 496 851 l 794 851 l 794 796 l 696 764 l 486 340 l 486 88 l 615 57 l 615 0 l 197 0 l 197 57 l 325 88 l 325 340 l 107 764 l 10 794 l 10 851 l 375 851 l 375 793 l 286 764 l 442 456 l 594 765 l 496 793 z "},"Ŷ":{"ha":794,"x_min":10,"x_max":794,"o":"m 590 894 l 417 1004 l 249 894 l 217 925 l 365 1111 l 471 1111 l 619 925 l 590 894 m 496 793 l 496 851 l 794 851 l 794 796 l 696 764 l 486 340 l 486 88 l 615 57 l 615 0 l 197 0 l 197 57 l 325 88 l 325 340 l 107 764 l 10 794 l 10 851 l 375 851 l 375 793 l 286 764 l 442 456 l 594 765 l 496 793 z "},"Ÿ":{"ha":794,"x_min":10,"x_max":794,"o":"m 274 908 q 204 935 233 908 q 175 1001 175 963 q 204 1067 175 1040 q 274 1094 233 1094 q 339 1067 311 1094 q 367 1001 367 1040 q 339 935 367 963 q 274 908 311 908 m 578 908 q 508 935 538 908 q 479 1001 479 963 q 508 1067 479 1040 q 578 1094 538 1094 q 642 1067 614 1094 q 671 1001 671 1039 q 642 935 671 963 q 578 908 614 908 m 197 0 l 197 57 l 325 88 l 325 340 l 107 764 l 10 794 l 10 851 l 376 851 l 376 793 l 286 764 l 442 456 l 594 765 l 496 793 l 496 851 l 794 851 l 794 796 l 696 764 l 486 340 l 486 88 l 615 57 l 615 0 l 197 0 z "},"Ỵ":{"ha":794,"x_min":14,"x_max":799,"o":"m 14 0 m 500 793 l 500 851 l 799 851 l 799 796 l 700 764 l 490 340 l 490 88 l 619 57 l 619 0 l 201 0 l 201 57 l 329 88 l 329 340 l 111 764 l 14 794 l 14 851 l 379 851 l 379 793 l 289 764 l 444 456 l 599 765 l 500 793 m 504 -165 q 473 -236 504 -207 q 400 -265 442 -265 q 325 -236 357 -265 q 293 -165 293 -207 q 326 -92 293 -124 q 400 -60 358 -60 q 473 -91 442 -60 q 504 -165 504 -122 z "},"Ỳ":{"ha":794,"x_min":10,"x_max":794,"o":"m 549 889 l 235 1036 l 239 1067 l 364 1111 l 576 929 l 549 889 m 197 0 l 197 57 l 325 88 l 325 340 l 107 764 l 10 794 l 10 851 l 376 851 l 376 793 l 286 764 l 442 456 l 594 765 l 496 793 l 496 851 l 794 851 l 794 796 l 696 764 l 486 340 l 486 88 l 615 57 l 615 0 l 197 0 z "},"Ỷ":{"ha":794,"x_min":14,"x_max":799,"o":"m 14 0 m 500 793 l 500 851 l 799 851 l 799 796 l 700 764 l 490 340 l 490 88 l 619 57 l 619 0 l 201 0 l 201 57 l 329 88 l 329 340 l 111 764 l 14 794 l 14 851 l 379 851 l 379 793 l 289 764 l 444 456 l 599 765 l 500 793 m 544 1036 q 444 964 544 978 l 436 931 l 369 931 l 364 989 q 451 1032 451 989 q 438 1056 451 1047 q 400 1065 425 1065 q 364 1063 392 1065 l 354 1022 l 303 1022 l 294 1096 q 411 1110 364 1110 q 509 1090 474 1110 q 544 1036 544 1071 z "},"Ȳ":{"ha":794,"x_min":14,"x_max":799,"o":"m 14 0 m 500 793 l 500 851 l 799 851 l 799 796 l 700 764 l 490 340 l 490 88 l 619 57 l 619 0 l 201 0 l 201 57 l 329 88 l 329 340 l 111 764 l 14 794 l 14 851 l 379 851 l 379 793 l 289 764 l 444 456 l 599 765 l 500 793 m 236 1049 l 560 1049 l 560 951 l 236 951 l 236 1049 z "},"Ỹ":{"ha":794,"x_min":10,"x_max":794,"o":"m 657 1075 q 602 973 629 1010 q 543 936 575 936 q 418 964 510 936 q 360 981 389 974 q 315 989 331 989 q 288 978 300 989 q 267 958 275 968 q 257 943 258 947 l 200 967 q 252 1068 222 1029 q 314 1107 282 1107 q 436 1079 347 1107 q 497 1062 467 1069 q 543 1054 526 1054 q 571 1064 558 1054 q 592 1085 583 1074 q 601 1099 600 1096 l 657 1075 m 496 793 l 496 851 l 794 851 l 794 796 l 696 764 l 486 340 l 486 88 l 615 57 l 615 0 l 197 0 l 197 57 l 325 88 l 325 340 l 107 764 l 10 794 l 10 851 l 375 851 l 375 793 l 286 764 l 442 456 l 594 765 l 496 793 z "},"Z":{"ha":703,"x_min":40,"x_max":663,"o":"m 657 218 l 644 0 l 65 0 l 40 46 l 475 764 l 183 764 l 150 656 l 79 656 l 67 851 l 656 851 l 663 806 l 233 89 l 535 89 l 588 218 l 657 218 z "},"Ź":{"ha":703,"x_min":40,"x_max":663,"o":"m 250 889 l 218 929 l 433 1111 l 560 1067 l 560 1036 l 250 889 m 657 218 l 644 0 l 65 0 l 40 46 l 475 764 l 183 764 l 150 656 l 79 656 l 67 851 l 656 851 l 663 806 l 233 89 l 535 89 l 588 218 l 657 218 z "},"Ž":{"ha":703,"x_min":42,"x_max":664,"o":"m 324 894 l 175 1079 l 207 1111 l 376 1001 l 547 1111 l 576 1079 l 429 894 l 324 894 m 67 0 l 42 46 l 476 764 l 185 764 l 153 656 l 82 656 l 68 851 l 657 851 l 664 806 l 235 89 l 536 89 l 589 218 l 658 218 l 646 0 l 67 0 z "},"Ż":{"ha":703,"x_min":40,"x_max":663,"o":"m 474 997 q 443 926 474 956 q 371 897 413 897 q 297 926 329 897 q 264 997 264 956 q 297 1071 264 1039 q 371 1103 329 1103 q 443 1072 413 1103 q 474 997 474 1040 m 657 218 l 644 0 l 65 0 l 40 46 l 475 764 l 183 764 l 150 656 l 79 656 l 67 851 l 656 851 l 663 806 l 233 89 l 535 89 l 588 218 l 657 218 z "},"Ẓ":{"ha":703,"x_min":40,"x_max":663,"o":"m 40 0 m 657 218 l 644 0 l 65 0 l 40 46 l 475 764 l 183 764 l 150 656 l 79 656 l 67 851 l 656 851 l 663 806 l 233 89 l 535 89 l 588 218 l 657 218 m 457 -165 q 426 -236 457 -207 q 353 -265 394 -265 q 278 -236 310 -265 q 246 -165 246 -207 q 278 -92 246 -124 q 353 -60 311 -60 q 426 -91 394 -60 q 457 -165 457 -122 z "},"a":{"ha":714,"x_min":50,"x_max":699,"o":"m 322 601 q 210 583 264 601 l 178 467 l 110 467 l 86 644 q 365 696 221 696 q 529 660 474 696 q 585 531 585 624 l 585 103 l 699 69 l 699 17 q 549 -7 610 -7 q 471 13 506 -7 q 426 68 436 32 q 318 7 369 28 q 208 -14 267 -14 q 92 34 135 -14 q 50 157 50 82 q 90 280 50 224 q 228 356 129 336 l 422 393 l 422 497 q 400 577 422 553 q 322 601 378 601 m 318 297 q 237 254 261 285 q 213 176 213 224 q 294 89 213 89 q 360 102 324 89 q 422 132 396 115 l 422 319 l 318 297 z "},"á":{"ha":714,"x_min":50,"x_max":699,"o":"m 50 0 m 322 601 q 210 583 264 601 l 178 467 l 110 467 l 86 644 q 365 696 221 696 q 529 660 474 696 q 585 531 585 624 l 585 103 l 699 69 l 699 17 q 549 -7 610 -7 q 471 13 506 -7 q 426 68 436 32 q 318 7 369 28 q 208 -14 267 -14 q 92 34 135 -14 q 50 157 50 82 q 90 280 50 224 q 228 356 129 336 l 422 393 l 422 497 q 400 577 422 553 q 322 601 378 601 m 318 297 q 237 254 261 285 q 213 176 213 224 q 294 89 213 89 q 360 102 324 89 q 422 132 396 115 l 422 319 l 318 297 m 244 775 l 213 815 l 428 1003 l 556 953 l 556 924 l 244 775 z "},"ă":{"ha":714,"x_min":50,"x_max":699,"o":"m 333 799 q 206 847 239 799 q 172 976 172 894 l 240 979 q 333 894 240 894 q 438 979 438 894 l 506 976 q 333 799 506 799 m 322 601 q 210 583 264 601 l 178 467 l 110 467 l 86 644 q 365 696 221 696 q 529 660 474 696 q 585 531 585 624 l 585 103 l 699 69 l 699 17 q 549 -7 610 -7 q 471 13 506 -7 q 426 68 436 32 q 318 7 369 28 q 208 -14 267 -14 q 92 34 135 -14 q 50 157 50 82 q 90 280 50 224 q 228 356 129 336 l 422 393 l 422 497 q 400 577 422 553 q 322 601 378 601 m 318 297 q 237 254 261 285 q 213 176 213 224 q 294 89 213 89 q 360 102 324 89 q 422 132 396 115 l 422 319 l 318 297 z "},"ắ":{"ha":714,"x_min":50,"x_max":699,"o":"m 50 0 m 322 601 q 210 583 264 601 l 178 467 l 110 467 l 86 644 q 365 696 221 696 q 529 660 474 696 q 585 531 585 624 l 585 103 l 699 69 l 699 17 q 549 -7 610 -7 q 471 13 506 -7 q 426 68 436 32 q 318 7 369 28 q 208 -14 267 -14 q 92 34 135 -14 q 50 157 50 82 q 90 280 50 224 q 228 356 129 336 l 422 393 l 422 497 q 400 577 422 553 q 322 601 378 601 m 318 297 q 237 254 261 285 q 213 176 213 224 q 294 89 213 89 q 360 102 324 89 q 422 132 396 115 l 422 319 l 318 297 m 350 743 q 222 791 257 743 q 186 921 186 839 l 257 924 q 278 863 257 888 q 353 838 300 838 q 431 863 408 838 q 453 924 453 888 l 519 921 q 483 792 519 840 q 350 743 446 743 m 300 915 l 268 956 l 483 1138 l 611 1093 l 611 1063 l 300 915 z "},"ặ":{"ha":714,"x_min":50,"x_max":699,"o":"m 50 0 m 322 601 q 210 583 264 601 l 178 467 l 110 467 l 86 644 q 365 696 221 696 q 529 660 474 696 q 585 531 585 624 l 585 103 l 699 69 l 699 17 q 549 -7 610 -7 q 471 13 506 -7 q 426 68 436 32 q 318 7 369 28 q 208 -14 267 -14 q 92 34 135 -14 q 50 157 50 82 q 90 280 50 224 q 228 356 129 336 l 422 393 l 422 497 q 400 577 422 553 q 322 601 378 601 m 318 297 q 237 254 261 285 q 213 176 213 224 q 294 89 213 89 q 360 102 324 89 q 422 132 396 115 l 422 319 l 318 297 m 460 -165 q 428 -236 460 -207 q 356 -265 397 -265 q 281 -236 313 -265 q 249 -165 249 -207 q 281 -92 249 -124 q 356 -60 314 -60 q 428 -91 397 -60 q 460 -165 460 -122 m 347 799 q 220 847 254 799 q 186 976 186 894 l 254 979 q 349 894 254 894 q 453 979 453 894 l 519 976 q 347 799 519 799 z "},"ằ":{"ha":714,"x_min":50,"x_max":699,"o":"m 50 0 m 322 601 q 210 583 264 601 l 178 467 l 110 467 l 86 644 q 365 696 221 696 q 529 660 474 696 q 585 531 585 624 l 585 103 l 699 69 l 699 17 q 549 -7 610 -7 q 471 13 506 -7 q 426 68 436 32 q 318 7 369 28 q 208 -14 267 -14 q 92 34 135 -14 q 50 157 50 82 q 90 280 50 224 q 228 356 129 336 l 422 393 l 422 497 q 400 577 422 553 q 322 601 378 601 m 318 297 q 237 254 261 285 q 213 176 213 224 q 294 89 213 89 q 360 102 324 89 q 422 132 396 115 l 422 319 l 318 297 m 350 743 q 222 791 257 743 q 186 921 186 839 l 257 924 q 278 863 257 888 q 353 838 300 838 q 431 863 408 838 q 453 924 453 888 l 519 921 q 483 792 519 840 q 350 743 446 743 m 413 915 l 97 1063 l 101 1093 l 226 1138 l 440 956 l 413 915 z "},"ẳ":{"ha":714,"x_min":50,"x_max":699,"o":"m 50 0 m 322 601 q 210 583 264 601 l 178 467 l 110 467 l 86 644 q 365 696 221 696 q 529 660 474 696 q 585 531 585 624 l 585 103 l 699 69 l 699 17 q 549 -7 610 -7 q 471 13 506 -7 q 426 68 436 32 q 318 7 369 28 q 208 -14 267 -14 q 92 34 135 -14 q 50 157 50 82 q 90 280 50 224 q 228 356 129 336 l 422 393 l 422 497 q 400 577 422 553 q 322 601 378 601 m 318 297 q 237 254 261 285 q 213 176 213 224 q 294 89 213 89 q 360 102 324 89 q 422 132 396 115 l 422 319 l 318 297 m 350 743 q 222 791 257 743 q 186 921 186 839 l 257 924 q 278 863 257 888 q 353 838 300 838 q 431 863 408 838 q 453 924 453 888 l 519 921 q 483 792 519 840 q 350 743 446 743 m 503 1063 q 403 990 503 1004 l 394 957 l 328 957 l 322 1015 q 410 1058 410 1015 q 397 1083 410 1074 q 358 1092 383 1092 q 322 1089 350 1092 l 313 1049 l 261 1049 l 253 1122 q 369 1136 322 1136 q 467 1117 432 1136 q 503 1063 503 1097 z "},"ẵ":{"ha":714,"x_min":50,"x_max":699,"o":"m 50 0 m 322 601 q 210 583 264 601 l 178 467 l 110 467 l 86 644 q 365 696 221 696 q 529 660 474 696 q 585 531 585 624 l 585 103 l 699 69 l 699 17 q 549 -7 610 -7 q 471 13 506 -7 q 426 68 436 32 q 318 7 369 28 q 208 -14 267 -14 q 92 34 135 -14 q 50 157 50 82 q 90 280 50 224 q 228 356 129 336 l 422 393 l 422 497 q 400 577 422 553 q 322 601 378 601 m 318 297 q 237 254 261 285 q 213 176 213 224 q 294 89 213 89 q 360 102 324 89 q 422 132 396 115 l 422 319 l 318 297 m 350 743 q 222 791 257 743 q 186 921 186 839 l 257 924 q 278 863 257 888 q 353 838 300 838 q 431 863 408 838 q 453 924 453 888 l 519 921 q 483 792 519 840 q 350 743 446 743 m 585 1088 q 531 985 558 1022 q 471 949 503 949 q 346 976 438 949 q 288 994 317 986 q 243 1001 258 1001 q 216 991 229 1001 q 194 970 203 981 q 185 956 186 960 l 128 979 q 180 1080 150 1042 q 243 1118 210 1118 q 364 1090 275 1118 q 424 1073 394 1081 q 471 1065 454 1065 q 499 1076 486 1065 q 519 1097 511 1086 q 529 1111 528 1107 l 585 1088 z "},"ǎ":{"ha":714,"x_min":50,"x_max":699,"o":"m 50 0 m 322 601 q 210 583 264 601 l 178 467 l 110 467 l 86 644 q 365 696 221 696 q 529 660 474 696 q 585 531 585 624 l 585 103 l 699 69 l 699 17 q 549 -7 610 -7 q 471 13 506 -7 q 426 68 436 32 q 318 7 369 28 q 208 -14 267 -14 q 92 34 135 -14 q 50 157 50 82 q 90 280 50 224 q 228 356 129 336 l 422 393 l 422 497 q 400 577 422 553 q 322 601 378 601 m 318 297 q 237 254 261 285 q 213 176 213 224 q 294 89 213 89 q 360 102 324 89 q 422 132 396 115 l 422 319 l 318 297 m 197 1008 l 354 893 l 514 1008 l 554 978 l 408 782 l 301 782 l 154 978 l 197 1008 z "},"â":{"ha":714,"x_min":50,"x_max":699,"o":"m 485 774 l 325 893 l 168 774 l 125 808 l 272 1004 l 378 1004 l 525 808 l 485 774 m 322 601 q 210 583 264 601 l 178 467 l 110 467 l 86 644 q 365 696 221 696 q 529 660 474 696 q 585 531 585 624 l 585 103 l 699 69 l 699 17 q 549 -7 610 -7 q 471 13 506 -7 q 426 68 436 32 q 318 7 369 28 q 208 -14 267 -14 q 92 34 135 -14 q 50 157 50 82 q 90 280 50 224 q 228 356 129 336 l 422 393 l 422 497 q 400 577 422 553 q 322 601 378 601 m 318 297 q 237 254 261 285 q 213 176 213 224 q 294 89 213 89 q 360 102 324 89 q 422 132 396 115 l 422 319 l 318 297 z "},"ấ":{"ha":714,"x_min":50,"x_max":814,"o":"m 578 856 l 536 882 l 665 1136 l 800 1136 l 814 1110 l 578 856 m 514 774 l 354 893 l 197 774 l 154 808 l 301 1004 l 407 1004 l 554 808 l 514 774 m 322 601 q 210 583 264 601 l 178 467 l 110 467 l 86 644 q 365 696 221 696 q 529 660 474 696 q 585 531 585 624 l 585 103 l 699 69 l 699 17 q 549 -7 610 -7 q 471 13 506 -7 q 426 68 436 32 q 318 7 369 28 q 208 -14 267 -14 q 92 34 135 -14 q 50 157 50 82 q 90 280 50 224 q 228 356 129 336 l 422 393 l 422 497 q 400 577 422 553 q 322 601 378 601 m 318 297 q 237 254 261 285 q 213 176 213 224 q 294 89 213 89 q 360 102 324 89 q 422 132 396 115 l 422 319 l 318 297 z "},"ậ":{"ha":714,"x_min":50,"x_max":699,"o":"m 50 0 m 322 601 q 210 583 264 601 l 178 467 l 110 467 l 86 644 q 365 696 221 696 q 529 660 474 696 q 585 531 585 624 l 585 103 l 699 69 l 699 17 q 549 -7 610 -7 q 471 13 506 -7 q 426 68 436 32 q 318 7 369 28 q 208 -14 267 -14 q 92 34 135 -14 q 50 157 50 82 q 90 280 50 224 q 228 356 129 336 l 422 393 l 422 497 q 400 577 422 553 q 322 601 378 601 m 318 297 q 237 254 261 285 q 213 176 213 224 q 294 89 213 89 q 360 102 324 89 q 422 132 396 115 l 422 319 l 318 297 m 460 -165 q 428 -236 460 -207 q 356 -265 397 -265 q 281 -236 313 -265 q 249 -165 249 -207 q 281 -92 249 -124 q 356 -60 314 -60 q 428 -91 397 -60 q 460 -165 460 -122 m 514 774 l 354 893 l 197 774 l 154 808 l 301 1004 l 407 1004 l 554 808 l 514 774 z "},"ầ":{"ha":714,"x_min":50,"x_max":699,"o":"m 607 856 l 371 1110 l 385 1136 l 519 1136 l 649 882 l 607 856 m 500 774 l 340 893 l 183 774 l 140 808 l 288 1004 l 393 1004 l 540 808 l 500 774 m 322 601 q 210 583 264 601 l 178 467 l 110 467 l 86 644 q 365 696 221 696 q 529 660 474 696 q 585 531 585 624 l 585 103 l 699 69 l 699 17 q 549 -7 610 -7 q 471 13 506 -7 q 426 68 436 32 q 318 7 369 28 q 208 -14 267 -14 q 92 34 135 -14 q 50 157 50 82 q 90 280 50 224 q 228 356 129 336 l 422 393 l 422 497 q 400 577 422 553 q 322 601 378 601 m 318 297 q 237 254 261 285 q 213 176 213 224 q 294 89 213 89 q 360 102 324 89 q 422 132 396 115 l 422 319 l 318 297 z "},"ẩ":{"ha":714,"x_min":50,"x_max":699,"o":"m 50 0 m 322 601 q 210 583 264 601 l 178 467 l 110 467 l 86 644 q 365 696 221 696 q 529 660 474 696 q 585 531 585 624 l 585 103 l 699 69 l 699 17 q 549 -7 610 -7 q 471 13 506 -7 q 426 68 436 32 q 318 7 369 28 q 208 -14 267 -14 q 92 34 135 -14 q 50 157 50 82 q 90 280 50 224 q 228 356 129 336 l 422 393 l 422 497 q 400 577 422 553 q 322 601 378 601 m 318 297 q 237 254 261 285 q 213 176 213 224 q 294 89 213 89 q 360 102 324 89 q 422 132 396 115 l 422 319 l 318 297 m 514 774 l 354 893 l 197 774 l 154 808 l 301 1004 l 407 1004 l 554 808 l 514 774 m 664 1063 q 564 990 664 1004 l 556 957 l 489 957 l 483 1015 q 571 1058 571 1015 q 558 1083 571 1074 q 519 1092 544 1092 q 483 1089 511 1092 l 474 1049 l 422 1049 l 414 1122 q 531 1136 483 1136 q 628 1117 593 1136 q 664 1063 664 1097 z "},"ẫ":{"ha":714,"x_min":50,"x_max":699,"o":"m 50 0 m 322 601 q 210 583 264 601 l 178 467 l 110 467 l 86 644 q 365 696 221 696 q 529 660 474 696 q 585 531 585 624 l 585 103 l 699 69 l 699 17 q 549 -7 610 -7 q 471 13 506 -7 q 426 68 436 32 q 318 7 369 28 q 208 -14 267 -14 q 92 34 135 -14 q 50 157 50 82 q 90 280 50 224 q 228 356 129 336 l 422 393 l 422 497 q 400 577 422 553 q 322 601 378 601 m 318 297 q 237 254 261 285 q 213 176 213 224 q 294 89 213 89 q 360 102 324 89 q 422 132 396 115 l 422 319 l 318 297 m 525 726 l 353 836 l 185 726 l 153 757 l 301 943 l 407 943 l 556 757 l 525 726 m 585 1093 q 531 991 558 1028 q 471 954 503 954 q 346 982 438 954 q 288 999 317 992 q 243 1007 258 1007 q 216 997 229 1007 q 194 976 203 986 q 185 961 186 965 l 128 985 q 180 1085 150 1047 q 243 1124 210 1124 q 364 1096 275 1124 q 424 1078 394 1086 q 471 1071 454 1071 q 499 1081 486 1071 q 519 1102 511 1092 q 529 1117 528 1113 l 585 1093 z "},"ȁ":{"ha":714,"x_min":50,"x_max":699,"o":"m 50 0 m 322 601 q 210 583 264 601 l 178 467 l 110 467 l 86 644 q 365 696 221 696 q 529 660 474 696 q 585 531 585 624 l 585 103 l 699 69 l 699 17 q 549 -7 610 -7 q 471 13 506 -7 q 426 68 436 32 q 318 7 369 28 q 208 -14 267 -14 q 92 34 135 -14 q 50 157 50 82 q 90 280 50 224 q 228 356 129 336 l 422 393 l 422 497 q 400 577 422 553 q 322 601 378 601 m 318 297 q 237 254 261 285 q 213 176 213 224 q 294 89 213 89 q 360 102 324 89 q 422 132 396 115 l 422 319 l 318 297 m 265 763 l 56 982 l 56 1011 l 175 1011 l 303 789 l 265 763 m 489 763 l 279 982 l 279 1011 l 399 1011 l 526 789 l 489 763 z "},"ä":{"ha":714,"x_min":50,"x_max":699,"o":"m 285 894 q 256 828 285 856 q 190 801 228 801 q 121 828 150 801 q 92 894 92 856 q 121 960 92 933 q 190 988 150 988 q 256 960 228 988 q 285 894 285 932 m 588 894 q 559 828 588 856 q 493 801 531 801 q 425 828 454 801 q 396 894 396 856 q 425 960 396 932 q 493 988 454 988 q 559 960 531 988 q 588 894 588 932 m 322 601 q 210 583 264 601 l 178 467 l 110 467 l 86 644 q 365 696 221 696 q 529 660 474 696 q 585 531 585 624 l 585 103 l 699 69 l 699 17 q 549 -7 610 -7 q 471 13 506 -7 q 426 68 436 32 q 318 7 369 28 q 208 -14 267 -14 q 92 34 135 -14 q 50 157 50 82 q 90 280 50 224 q 228 356 129 336 l 422 393 l 422 497 q 400 577 422 553 q 322 601 378 601 m 318 297 q 237 254 261 285 q 213 176 213 224 q 294 89 213 89 q 360 102 324 89 q 422 132 396 115 l 422 319 l 318 297 z "},"ạ":{"ha":714,"x_min":50,"x_max":699,"o":"m 50 0 m 322 601 q 210 583 264 601 l 178 467 l 110 467 l 86 644 q 365 696 221 696 q 529 660 474 696 q 585 531 585 624 l 585 103 l 699 69 l 699 17 q 549 -7 610 -7 q 471 13 506 -7 q 426 68 436 32 q 318 7 369 28 q 208 -14 267 -14 q 92 34 135 -14 q 50 157 50 82 q 90 280 50 224 q 228 356 129 336 l 422 393 l 422 497 q 400 577 422 553 q 322 601 378 601 m 318 297 q 237 254 261 285 q 213 176 213 224 q 294 89 213 89 q 360 102 324 89 q 422 132 396 115 l 422 319 l 318 297 m 460 -165 q 428 -236 460 -207 q 356 -265 397 -265 q 281 -236 313 -265 q 249 -165 249 -207 q 281 -92 249 -124 q 356 -60 314 -60 q 428 -91 397 -60 q 460 -165 460 -122 z "},"à":{"ha":714,"x_min":50,"x_max":699,"o":"m 449 775 l 135 924 l 138 953 l 263 1003 l 476 815 l 449 775 m 322 601 q 210 583 264 601 l 178 467 l 110 467 l 86 644 q 365 696 221 696 q 529 660 474 696 q 585 531 585 624 l 585 103 l 699 69 l 699 17 q 549 -7 610 -7 q 471 13 506 -7 q 426 68 436 32 q 318 7 369 28 q 208 -14 267 -14 q 92 34 135 -14 q 50 157 50 82 q 90 280 50 224 q 228 356 129 336 l 422 393 l 422 497 q 400 577 422 553 q 322 601 378 601 m 318 297 q 237 254 261 285 q 213 176 213 224 q 294 89 213 89 q 360 102 324 89 q 422 132 396 115 l 422 319 l 318 297 z "},"ả":{"ha":714,"x_min":50,"x_max":699,"o":"m 50 0 m 322 601 q 210 583 264 601 l 178 467 l 110 467 l 86 644 q 365 696 221 696 q 529 660 474 696 q 585 531 585 624 l 585 103 l 699 69 l 699 17 q 549 -7 610 -7 q 471 13 506 -7 q 426 68 436 32 q 318 7 369 28 q 208 -14 267 -14 q 92 34 135 -14 q 50 157 50 82 q 90 280 50 224 q 228 356 129 336 l 422 393 l 422 497 q 400 577 422 553 q 322 601 378 601 m 318 297 q 237 254 261 285 q 213 176 213 224 q 294 89 213 89 q 360 102 324 89 q 422 132 396 115 l 422 319 l 318 297 m 500 868 q 400 796 500 810 l 392 763 l 325 763 l 319 821 q 407 864 407 821 q 394 888 407 879 q 356 897 381 897 q 319 894 347 897 l 310 854 l 258 854 l 250 928 q 367 942 319 942 q 465 922 429 942 q 500 868 500 903 z "},"ȃ":{"ha":714,"x_min":50,"x_max":699,"o":"m 50 0 m 322 601 q 210 583 264 601 l 178 467 l 110 467 l 86 644 q 365 696 221 696 q 529 660 474 696 q 585 531 585 624 l 585 103 l 699 69 l 699 17 q 549 -7 610 -7 q 471 13 506 -7 q 426 68 436 32 q 318 7 369 28 q 208 -14 267 -14 q 92 34 135 -14 q 50 157 50 82 q 90 280 50 224 q 228 356 129 336 l 422 393 l 422 497 q 400 577 422 553 q 322 601 378 601 m 318 297 q 237 254 261 285 q 213 176 213 224 q 294 89 213 89 q 360 102 324 89 q 422 132 396 115 l 422 319 l 318 297 m 358 993 q 486 945 453 993 q 519 815 519 897 l 451 813 q 358 899 451 899 q 254 813 254 899 l 186 815 q 358 993 186 993 z "},"ā":{"ha":714,"x_min":50,"x_max":699,"o":"m 167 940 l 489 940 l 489 843 l 167 843 l 167 940 m 322 601 q 210 583 264 601 l 178 467 l 110 467 l 86 644 q 365 696 221 696 q 529 660 474 696 q 585 531 585 624 l 585 103 l 699 69 l 699 17 q 549 -7 610 -7 q 471 13 506 -7 q 426 68 436 32 q 318 7 369 28 q 208 -14 267 -14 q 92 34 135 -14 q 50 157 50 82 q 90 280 50 224 q 228 356 129 336 l 422 393 l 422 497 q 400 577 422 553 q 322 601 378 601 m 318 297 q 237 254 261 285 q 213 176 213 224 q 294 89 213 89 q 360 102 324 89 q 422 132 396 115 l 422 319 l 318 297 z "},"ą":{"ha":724,"x_min":50,"x_max":710,"o":"m 710 -244 q 656 -299 692 -274 q 565 -325 621 -325 q 460 -292 493 -325 q 426 -208 426 -258 q 461 -104 426 -158 q 554 -7 496 -50 l 550 -7 q 470 13 506 -7 q 426 68 435 32 q 318 7 369 28 q 208 -14 267 -14 q 92 34 135 -14 q 50 157 50 82 q 90 280 50 224 q 228 356 129 336 l 422 393 l 422 497 q 400 577 422 553 q 322 601 378 601 q 210 583 264 601 l 178 467 l 110 467 l 86 644 q 365 696 221 696 q 529 660 474 696 q 585 531 585 624 l 585 103 l 699 69 l 699 17 q 577 -60 618 -4 q 536 -178 536 -117 q 603 -247 536 -247 q 681 -217 647 -247 l 710 -244 m 422 319 l 318 297 q 237 254 261 285 q 213 176 213 224 q 294 89 213 89 q 360 102 324 89 q 422 132 396 115 l 422 319 z "},"å":{"ha":714,"x_min":50,"x_max":699,"o":"m 486 894 q 447 791 486 831 q 333 751 407 751 q 220 791 260 751 q 181 894 181 831 q 220 1000 181 958 q 333 1042 260 1042 q 447 1000 407 1042 q 486 894 486 958 m 333 976 q 285 956 297 976 q 274 894 274 935 q 285 836 274 856 q 333 817 297 817 q 381 836 369 817 q 393 894 393 856 q 381 955 393 933 q 333 976 368 976 m 322 601 q 210 583 264 601 l 178 467 l 110 467 l 86 644 q 365 696 221 696 q 529 660 474 696 q 585 531 585 624 l 585 103 l 699 69 l 699 17 q 549 -7 610 -7 q 471 13 506 -7 q 426 68 436 32 q 318 7 369 28 q 208 -14 267 -14 q 92 34 135 -14 q 50 157 50 82 q 90 280 50 224 q 228 356 129 336 l 422 393 l 422 497 q 400 577 422 553 q 322 601 378 601 m 318 297 q 237 254 261 285 q 213 176 213 224 q 294 89 213 89 q 360 102 324 89 q 422 132 396 115 l 422 319 l 318 297 z "},"ǻ":{"ha":714,"x_min":50,"x_max":699,"o":"m 50 0 m 322 601 q 210 583 264 601 l 178 467 l 110 467 l 86 644 q 365 696 221 696 q 529 660 474 696 q 585 531 585 624 l 585 103 l 699 69 l 699 17 q 549 -7 610 -7 q 471 13 506 -7 q 426 68 436 32 q 318 7 369 28 q 208 -14 267 -14 q 92 34 135 -14 q 50 157 50 82 q 90 280 50 224 q 228 356 129 336 l 422 393 l 422 497 q 400 577 422 553 q 322 601 378 601 m 318 297 q 237 254 261 285 q 213 176 213 224 q 294 89 213 89 q 360 102 324 89 q 422 132 396 115 l 422 319 l 318 297 m 353 706 q 242 742 281 706 q 203 836 203 778 q 242 933 203 896 q 353 971 281 971 q 466 933 426 971 q 506 836 506 896 q 466 742 506 778 q 353 706 426 706 m 353 765 q 402 784 390 765 q 414 836 414 803 q 402 891 414 871 q 353 911 390 911 q 305 891 317 911 q 293 836 293 871 q 305 784 293 803 q 353 765 317 765 m 300 971 l 268 1011 l 483 1193 l 611 1149 l 611 1118 l 300 971 z "},"ã":{"ha":714,"x_min":50,"x_max":699,"o":"m 564 949 q 510 846 536 882 q 450 810 483 810 q 326 838 418 810 q 222 863 246 863 q 195 852 208 863 q 174 831 182 842 q 164 817 165 821 l 107 840 q 222 979 165 979 q 344 951 256 979 q 450 926 425 926 q 478 936 465 926 q 499 957 490 946 q 508 971 507 968 l 564 949 m 322 601 q 210 583 264 601 l 178 467 l 110 467 l 86 644 q 365 696 221 696 q 529 660 474 696 q 585 531 585 624 l 585 103 l 699 69 l 699 17 q 549 -7 610 -7 q 471 13 506 -7 q 426 68 436 32 q 318 7 369 28 q 208 -14 267 -14 q 92 34 135 -14 q 50 157 50 82 q 90 280 50 224 q 228 356 129 336 l 422 393 l 422 497 q 400 577 422 553 q 322 601 378 601 m 318 297 q 237 254 261 285 q 213 176 213 224 q 294 89 213 89 q 360 102 324 89 q 422 132 396 115 l 422 319 l 318 297 z "},"æ":{"ha":996,"x_min":40,"x_max":963,"o":"m 201 -14 q 82 33 124 -14 q 40 146 40 79 q 88 265 40 214 q 236 335 136 317 l 403 365 l 403 497 q 381 577 403 553 q 306 601 360 601 q 200 583 251 601 l 169 467 l 100 467 l 76 644 q 347 696 208 696 q 524 625 474 696 q 710 696 597 696 q 893 631 824 696 q 963 433 963 567 q 960 392 963 404 l 563 321 q 603 135 563 190 q 744 79 644 79 q 939 111 824 79 l 950 57 q 700 -14 846 -14 q 553 14 608 -14 q 460 92 497 42 q 336 13 396 40 q 201 -14 276 -14 m 797 439 q 777 567 797 524 q 701 610 757 610 q 600 555 631 610 q 565 392 569 500 l 797 439 m 283 88 q 345 100 314 88 q 403 133 376 113 l 403 292 l 308 275 q 226 240 250 264 q 201 176 201 217 q 223 110 201 133 q 283 88 244 88 z "},"ǽ":{"ha":996,"x_min":40,"x_max":963,"o":"m 40 0 m 201 -14 q 82 33 124 -14 q 40 146 40 79 q 88 265 40 214 q 236 335 136 317 l 403 365 l 403 497 q 381 577 403 553 q 306 601 360 601 q 200 583 251 601 l 169 467 l 100 467 l 76 644 q 347 696 208 696 q 524 625 474 696 q 710 696 597 696 q 893 631 824 696 q 963 433 963 567 q 960 392 963 404 l 563 321 q 603 135 563 190 q 744 79 644 79 q 939 111 824 79 l 950 57 q 700 -14 846 -14 q 553 14 608 -14 q 460 92 497 42 q 336 13 396 40 q 201 -14 276 -14 m 797 439 q 777 567 797 524 q 701 610 757 610 q 600 555 631 610 q 565 392 569 500 l 797 439 m 283 88 q 345 100 314 88 q 403 133 376 113 l 403 292 l 308 275 q 226 240 250 264 q 201 176 201 217 q 223 110 201 133 q 283 88 244 88 m 388 775 l 356 815 l 571 1003 l 699 953 l 699 924 l 388 775 z "},"b":{"ha":767,"x_min":-8,"x_max":725,"o":"m 268 660 q 337 685 296 675 q 415 696 378 696 q 644 610 564 696 q 725 347 725 524 q 647 88 725 190 q 378 -14 569 -14 q 237 -3 319 -14 q 104 24 154 8 l 104 890 l -8 906 l -8 960 l 215 1014 l 268 1014 l 268 660 m 268 89 q 313 75 283 81 q 378 69 342 69 q 512 135 475 69 q 549 344 549 201 q 513 547 549 482 q 381 613 476 613 q 322 606 347 613 q 268 583 296 599 l 268 89 z "},"c":{"ha":618,"x_min":43,"x_max":594,"o":"m 356 -14 q 119 84 196 -14 q 43 339 43 182 q 119 598 43 500 q 356 696 194 696 q 478 685 422 696 q 592 653 533 675 l 565 467 l 496 467 l 465 593 q 369 611 419 611 q 250 542 282 611 q 218 342 218 472 q 234 188 218 244 q 285 106 250 131 q 381 81 321 81 q 585 113 482 81 l 594 57 q 483 5 544 24 q 356 -14 422 -14 z "},"ć":{"ha":618,"x_min":42,"x_max":593,"o":"m 240 775 l 208 815 l 424 1003 l 550 953 l 550 924 l 240 775 m 354 -14 q 118 84 194 -14 q 42 339 42 182 q 117 598 42 500 q 354 696 193 696 q 476 685 422 696 q 590 653 531 675 l 564 467 l 496 467 l 464 593 q 368 611 418 611 q 249 542 281 611 q 218 342 218 472 q 234 188 218 244 q 285 106 250 131 q 379 81 319 81 q 583 113 481 81 l 593 57 q 354 -14 485 -14 z "},"č":{"ha":618,"x_min":42,"x_max":593,"o":"m 192 1008 l 349 893 l 507 1008 l 547 978 l 401 782 l 294 782 l 147 978 l 192 1008 m 354 -14 q 118 84 194 -14 q 42 339 42 182 q 117 598 42 500 q 354 696 193 696 q 476 685 422 696 q 590 653 531 675 l 564 467 l 496 467 l 464 593 q 368 611 418 611 q 249 542 281 611 q 218 342 218 472 q 234 188 218 244 q 285 106 250 131 q 379 81 319 81 q 583 113 481 81 l 593 57 q 354 -14 485 -14 z "},"ç":{"ha":618,"x_min":42,"x_max":593,"o":"m 303 -306 q 228 -292 261 -306 l 239 -243 q 282 -253 260 -253 q 348 -231 324 -253 q 372 -179 372 -208 q 351 -137 372 -154 q 285 -119 331 -121 l 278 -99 l 308 -11 q 107 99 172 4 q 42 339 42 194 q 117 598 42 500 q 354 696 193 696 q 476 685 422 696 q 590 653 531 675 l 564 467 l 496 467 l 464 593 q 368 611 418 611 q 249 542 281 611 q 218 342 218 472 q 234 188 218 244 q 285 106 250 131 q 379 81 319 81 q 583 113 481 81 l 593 57 q 365 -14 485 -10 l 350 -64 q 454 -92 418 -64 q 490 -162 490 -119 q 464 -234 490 -201 q 394 -286 438 -267 q 303 -306 351 -306 z "},"ĉ":{"ha":618,"x_min":43,"x_max":594,"o":"m 43 0 m 356 -14 q 119 84 196 -14 q 43 339 43 182 q 119 598 43 500 q 356 696 194 696 q 478 685 422 696 q 592 653 533 675 l 565 467 l 496 467 l 465 593 q 369 611 419 611 q 250 542 282 611 q 218 342 218 472 q 234 188 218 244 q 285 106 250 131 q 381 81 321 81 q 585 113 482 81 l 594 57 q 483 5 544 24 q 356 -14 422 -14 m 525 774 l 365 893 l 208 774 l 165 808 l 313 1004 l 418 1004 l 565 808 l 525 774 z "},"ċ":{"ha":618,"x_min":43,"x_max":594,"o":"m 43 0 m 356 -14 q 119 84 196 -14 q 43 339 43 182 q 119 598 43 500 q 356 696 194 696 q 478 685 422 696 q 592 653 533 675 l 565 467 l 496 467 l 465 593 q 369 611 419 611 q 250 542 282 611 q 218 342 218 472 q 234 188 218 244 q 285 106 250 131 q 381 81 321 81 q 585 113 482 81 l 594 57 q 483 5 544 24 q 356 -14 422 -14 m 471 893 q 440 822 471 851 q 367 793 408 793 q 292 822 324 793 q 260 893 260 851 q 292 967 260 935 q 367 999 325 999 q 440 967 408 999 q 471 893 471 936 z "},"d":{"ha":782,"x_min":43,"x_max":774,"o":"m 503 65 q 278 -14 394 -14 q 149 35 201 -14 q 69 163 96 83 q 43 339 43 243 q 122 601 43 506 q 344 696 201 696 q 415 689 381 696 q 472 673 449 682 q 499 661 496 664 l 499 890 l 383 906 l 383 960 l 607 1014 l 661 1014 l 661 103 l 774 69 l 774 17 q 622 -7 689 -7 q 546 13 581 -7 q 503 65 511 32 m 357 88 q 437 103 397 88 q 499 138 476 118 l 499 574 q 441 602 475 592 q 374 613 407 613 q 258 540 297 613 q 218 342 218 468 q 252 156 218 224 q 357 88 286 88 z "},"ð":{"ha":751,"x_min":43,"x_max":715,"o":"m 376 -14 q 125 84 207 -14 q 43 339 43 182 q 124 597 43 499 q 376 696 206 696 q 510 665 453 696 q 429 821 479 751 l 264 726 l 226 792 l 382 881 q 256 1004 338 935 l 299 1063 q 485 940 399 1019 l 647 1035 l 688 968 l 539 883 q 669 651 624 783 q 715 372 715 518 q 637 94 715 201 q 376 -14 558 -14 m 382 71 q 506 142 474 71 q 539 342 539 213 q 503 541 539 469 q 374 613 467 613 q 252 541 285 613 q 219 342 219 469 q 255 143 219 215 q 382 71 290 71 z "},"ď":{"ha":849,"x_min":46,"x_max":869,"o":"m 778 726 l 726 1036 l 782 1036 l 869 1006 l 825 726 l 778 726 m 282 -14 q 152 35 206 -14 q 72 163 99 83 q 46 339 46 243 q 126 601 46 506 q 349 696 206 696 q 417 689 383 696 q 476 673 451 682 q 501 661 500 664 l 501 890 l 388 906 l 388 960 l 611 1014 l 664 1014 l 664 103 l 778 69 l 778 17 q 626 -7 692 -7 q 549 13 585 -7 q 506 65 514 32 q 282 -14 397 -14 m 360 88 q 440 103 400 88 q 501 138 481 118 l 501 574 q 444 602 478 592 q 378 613 411 613 q 262 540 301 613 q 222 342 222 468 q 256 156 222 224 q 360 88 290 88 z "},"đ":{"ha":793,"x_min":46,"x_max":778,"o":"m 778 69 l 778 17 q 626 -7 692 -7 q 549 13 585 -7 q 506 65 514 32 q 282 -14 397 -14 q 152 35 206 -14 q 72 163 99 83 q 46 339 46 243 q 126 601 46 506 q 349 696 206 696 q 416 688 382 696 q 474 672 450 681 q 501 660 499 663 l 501 792 l 286 792 l 286 868 l 501 868 l 501 915 l 388 935 l 388 989 l 611 1014 l 664 1014 l 664 868 l 749 868 l 749 792 l 664 792 l 664 103 l 778 69 m 501 576 q 444 602 479 592 q 379 613 408 613 q 261 541 301 613 q 221 342 221 469 q 255 156 221 224 q 360 88 289 88 q 440 102 400 88 q 501 135 481 117 l 501 576 z "},"ḍ":{"ha":782,"x_min":43,"x_max":774,"o":"m 43 0 m 503 65 q 278 -14 394 -14 q 149 35 201 -14 q 69 163 96 83 q 43 339 43 243 q 122 601 43 506 q 344 696 201 696 q 415 689 381 696 q 472 673 449 682 q 499 661 496 664 l 499 890 l 383 906 l 383 960 l 607 1014 l 661 1014 l 661 103 l 774 69 l 774 17 q 622 -7 689 -7 q 546 13 581 -7 q 503 65 511 32 m 357 88 q 437 103 397 88 q 499 138 476 118 l 499 574 q 441 602 475 592 q 374 613 407 613 q 258 540 297 613 q 218 342 218 468 q 252 156 218 224 q 357 88 286 88 m 497 -165 q 466 -236 497 -207 q 393 -265 435 -265 q 318 -236 350 -265 q 286 -165 286 -207 q 319 -92 286 -124 q 393 -60 351 -60 q 466 -91 435 -60 q 497 -165 497 -122 z "},"ǳ":{"ha":1439,"x_min":43,"x_max":1399,"o":"m 43 0 m 503 65 q 278 -14 394 -14 q 149 35 201 -14 q 69 163 96 83 q 43 339 43 243 q 122 601 43 506 q 344 696 201 696 q 415 689 381 696 q 472 673 449 682 q 499 661 496 664 l 499 890 l 383 906 l 383 960 l 607 1014 l 661 1014 l 661 103 l 774 69 l 774 17 q 622 -7 689 -7 q 546 13 581 -7 q 503 65 511 32 m 357 88 q 437 103 397 88 q 499 138 476 118 l 499 574 q 441 602 475 592 q 374 613 407 613 q 258 540 297 613 q 218 342 218 468 q 252 156 218 224 q 357 88 286 88 m 1194 592 l 956 592 l 925 474 l 865 474 l 842 683 l 1369 683 l 1399 625 l 1031 89 l 1283 89 l 1332 211 l 1394 211 l 1379 0 l 856 0 l 828 58 l 1194 592 z "},"ǆ":{"ha":1439,"x_min":43,"x_max":1399,"o":"m 43 0 m 503 65 q 278 -14 394 -14 q 149 35 201 -14 q 69 163 96 83 q 43 339 43 243 q 122 601 43 506 q 344 696 201 696 q 415 689 381 696 q 472 673 449 682 q 499 661 496 664 l 499 890 l 383 906 l 383 960 l 607 1014 l 661 1014 l 661 103 l 774 69 l 774 17 q 622 -7 689 -7 q 546 13 581 -7 q 503 65 511 32 m 357 88 q 437 103 397 88 q 499 138 476 118 l 499 574 q 441 602 475 592 q 374 613 407 613 q 258 540 297 613 q 218 342 218 468 q 252 156 218 224 q 357 88 286 88 m 1194 592 l 956 592 l 925 474 l 865 474 l 842 683 l 1369 683 l 1399 625 l 1031 89 l 1283 89 l 1332 211 l 1394 211 l 1379 0 l 856 0 l 828 58 l 1194 592 m 954 1008 l 1111 893 l 1271 1008 l 1311 978 l 1165 782 l 1058 782 l 911 978 l 954 1008 z "},"e":{"ha":664,"x_min":42,"x_max":625,"o":"m 367 -14 q 118 81 194 -14 q 42 339 42 175 q 126 610 42 524 q 353 696 210 696 q 560 632 494 696 q 625 432 625 568 q 621 347 625 385 l 217 347 l 217 310 q 266 134 217 189 q 410 79 315 79 q 607 111 493 79 l 618 57 q 367 -14 513 -14 m 458 428 l 458 458 q 437 572 458 533 q 360 610 415 610 q 253 563 283 610 q 219 414 224 517 l 458 428 z "},"é":{"ha":664,"x_min":42,"x_max":625,"o":"m 239 775 l 207 815 l 422 1003 l 549 953 l 549 924 l 239 775 m 367 -14 q 118 81 194 -14 q 42 339 42 175 q 126 610 42 524 q 353 696 210 696 q 560 632 494 696 q 625 432 625 568 q 621 347 625 385 l 217 347 l 217 310 q 266 134 217 189 q 410 79 315 79 q 607 111 493 79 l 618 57 q 367 -14 513 -14 m 458 428 l 458 458 q 437 572 458 533 q 360 610 415 610 q 253 563 283 610 q 219 414 224 517 l 458 428 z "},"ĕ":{"ha":664,"x_min":42,"x_max":625,"o":"m 42 0 m 367 -14 q 118 81 194 -14 q 42 339 42 175 q 126 610 42 524 q 353 696 210 696 q 560 632 494 696 q 625 432 625 568 q 621 347 625 385 l 217 347 l 217 310 q 266 134 217 189 q 410 79 315 79 q 607 111 493 79 l 618 57 q 367 -14 513 -14 m 458 428 l 458 458 q 437 572 458 533 q 360 610 415 610 q 253 563 283 610 q 219 414 224 517 l 458 428 m 325 799 q 198 847 232 799 q 164 976 164 894 l 232 979 q 326 894 232 894 q 431 979 431 894 l 497 976 q 325 799 497 799 z "},"ě":{"ha":664,"x_min":42,"x_max":625,"o":"m 294 782 l 147 978 l 190 1008 l 349 893 l 507 1008 l 547 978 l 401 782 l 294 782 m 367 -14 q 118 81 194 -14 q 42 339 42 175 q 126 610 42 524 q 353 696 210 696 q 560 632 494 696 q 625 432 625 568 q 621 347 625 385 l 217 347 l 217 310 q 266 134 217 189 q 410 79 315 79 q 607 111 493 79 l 618 57 q 367 -14 513 -14 m 458 428 l 458 458 q 437 572 458 533 q 360 610 415 610 q 253 563 283 610 q 219 414 224 517 l 458 428 z "},"ê":{"ha":664,"x_min":42,"x_max":625,"o":"m 190 774 l 147 808 l 294 1004 l 400 1004 l 547 808 l 507 774 l 347 893 l 190 774 m 367 -14 q 118 81 194 -14 q 42 339 42 175 q 126 610 42 524 q 353 696 210 696 q 560 632 494 696 q 625 432 625 568 q 621 347 625 385 l 217 347 l 217 310 q 266 134 217 189 q 410 79 315 79 q 607 111 493 79 l 618 57 q 367 -14 513 -14 m 458 428 l 458 458 q 437 572 458 533 q 360 610 415 610 q 253 563 283 610 q 219 414 224 517 l 458 428 z "},"ế":{"ha":664,"x_min":42,"x_max":792,"o":"m 556 856 l 514 882 l 643 1136 l 778 1136 l 792 1110 l 556 856 m 492 774 l 332 893 l 175 774 l 132 808 l 279 1004 l 385 1004 l 532 808 l 492 774 m 367 -14 q 118 81 194 -14 q 42 339 42 175 q 126 610 42 524 q 353 696 210 696 q 560 632 494 696 q 625 432 625 568 q 621 347 625 385 l 217 347 l 217 310 q 266 134 217 189 q 410 79 315 79 q 607 111 493 79 l 618 57 q 367 -14 513 -14 m 458 428 l 458 458 q 437 572 458 533 q 360 610 415 610 q 253 563 283 610 q 219 414 224 517 l 458 428 z "},"ệ":{"ha":664,"x_min":42,"x_max":625,"o":"m 42 0 m 367 -14 q 118 81 194 -14 q 42 339 42 175 q 126 610 42 524 q 353 696 210 696 q 560 632 494 696 q 625 432 625 568 q 621 347 625 385 l 217 347 l 217 310 q 266 134 217 189 q 410 79 315 79 q 607 111 493 79 l 618 57 q 367 -14 513 -14 m 458 428 l 458 458 q 437 572 458 533 q 360 610 415 610 q 253 563 283 610 q 219 414 224 517 l 458 428 m 438 -165 q 406 -236 438 -207 q 333 -265 375 -265 q 258 -236 290 -265 q 226 -165 226 -207 q 259 -92 226 -124 q 333 -60 292 -60 q 406 -91 375 -60 q 438 -165 438 -122 m 492 774 l 332 893 l 175 774 l 132 808 l 279 1004 l 385 1004 l 532 808 l 492 774 z "},"ề":{"ha":664,"x_min":42,"x_max":626,"o":"m 585 856 l 349 1110 l 363 1136 l 497 1136 l 626 882 l 585 856 m 478 774 l 318 893 l 161 774 l 118 808 l 265 1004 l 371 1004 l 518 808 l 478 774 m 367 -14 q 118 81 194 -14 q 42 339 42 175 q 126 610 42 524 q 353 696 210 696 q 560 632 494 696 q 625 432 625 568 q 621 347 625 385 l 217 347 l 217 310 q 266 134 217 189 q 410 79 315 79 q 607 111 493 79 l 618 57 q 367 -14 513 -14 m 458 428 l 458 458 q 437 572 458 533 q 360 610 415 610 q 253 563 283 610 q 219 414 224 517 l 458 428 z "},"ể":{"ha":664,"x_min":42,"x_max":642,"o":"m 42 0 m 367 -14 q 118 81 194 -14 q 42 339 42 175 q 126 610 42 524 q 353 696 210 696 q 560 632 494 696 q 625 432 625 568 q 621 347 625 385 l 217 347 l 217 310 q 266 134 217 189 q 410 79 315 79 q 607 111 493 79 l 618 57 q 367 -14 513 -14 m 458 428 l 458 458 q 437 572 458 533 q 360 610 415 610 q 253 563 283 610 q 219 414 224 517 l 458 428 m 492 774 l 332 893 l 175 774 l 132 808 l 279 1004 l 385 1004 l 532 808 l 492 774 m 642 1063 q 542 990 642 1004 l 533 957 l 467 957 l 461 1015 q 549 1058 549 1015 q 535 1083 549 1074 q 497 1092 522 1092 q 461 1089 489 1092 l 451 1049 l 400 1049 l 392 1122 q 508 1136 461 1136 q 606 1117 571 1136 q 642 1063 642 1097 z "},"ễ":{"ha":664,"x_min":42,"x_max":625,"o":"m 42 0 m 367 -14 q 118 81 194 -14 q 42 339 42 175 q 126 610 42 524 q 353 696 210 696 q 560 632 494 696 q 625 432 625 568 q 621 347 625 385 l 217 347 l 217 310 q 266 134 217 189 q 410 79 315 79 q 607 111 493 79 l 618 57 q 367 -14 513 -14 m 458 428 l 458 458 q 437 572 458 533 q 360 610 415 610 q 253 563 283 610 q 219 414 224 517 l 458 428 m 503 726 l 331 836 l 163 726 l 131 757 l 279 943 l 385 943 l 533 757 l 503 726 m 563 1093 q 508 991 536 1028 q 449 954 481 954 q 324 982 415 954 q 265 999 294 992 q 221 1007 236 1007 q 194 997 207 1007 q 172 976 181 986 q 163 961 164 965 l 106 985 q 158 1085 128 1047 q 221 1124 188 1124 q 342 1096 253 1124 q 402 1078 372 1086 q 449 1071 432 1071 q 476 1081 464 1071 q 497 1102 489 1092 q 507 1117 506 1113 l 563 1093 z "},"ȅ":{"ha":664,"x_min":33,"x_max":625,"o":"m 33 0 m 367 -14 q 118 81 194 -14 q 42 339 42 175 q 126 610 42 524 q 353 696 210 696 q 560 632 494 696 q 625 432 625 568 q 621 347 625 385 l 217 347 l 217 310 q 266 134 217 189 q 410 79 315 79 q 607 111 493 79 l 618 57 q 367 -14 513 -14 m 458 428 l 458 458 q 437 572 458 533 q 360 610 415 610 q 253 563 283 610 q 219 414 224 517 l 458 428 m 243 763 l 33 982 l 33 1011 l 153 1011 l 281 789 l 243 763 m 467 763 l 257 982 l 257 1011 l 376 1011 l 504 789 l 467 763 z "},"ë":{"ha":664,"x_min":42,"x_max":625,"o":"m 193 801 q 124 828 154 801 q 94 894 94 856 q 124 960 94 932 q 193 988 154 988 q 260 960 232 988 q 288 894 288 933 q 260 828 288 856 q 193 801 232 801 m 497 801 q 428 828 457 801 q 400 894 400 856 q 428 960 400 933 q 497 988 457 988 q 563 960 535 988 q 592 894 592 932 q 563 828 592 856 q 497 801 535 801 m 367 -14 q 118 81 194 -14 q 42 339 42 175 q 126 610 42 524 q 353 696 210 696 q 560 632 494 696 q 625 432 625 568 q 621 347 625 385 l 217 347 l 217 310 q 266 134 217 189 q 410 79 315 79 q 607 111 493 79 l 618 57 q 367 -14 513 -14 m 458 428 l 458 458 q 437 572 458 533 q 360 610 415 610 q 253 563 283 610 q 219 414 224 517 l 458 428 z "},"ė":{"ha":664,"x_min":42,"x_max":625,"o":"m 349 793 q 274 822 306 793 q 242 893 242 851 q 274 967 242 935 q 349 999 307 999 q 422 967 392 999 q 453 893 453 936 q 422 822 453 851 q 349 793 392 793 m 367 -14 q 118 81 194 -14 q 42 339 42 175 q 126 610 42 524 q 353 696 210 696 q 560 632 494 696 q 625 432 625 568 q 621 347 625 385 l 217 347 l 217 310 q 266 134 217 189 q 410 79 315 79 q 607 111 493 79 l 618 57 q 367 -14 513 -14 m 458 428 l 458 458 q 437 572 458 533 q 360 610 415 610 q 253 563 283 610 q 219 414 224 517 l 458 428 z "},"ẹ":{"ha":664,"x_min":42,"x_max":625,"o":"m 42 0 m 367 -14 q 118 81 194 -14 q 42 339 42 175 q 126 610 42 524 q 353 696 210 696 q 560 632 494 696 q 625 432 625 568 q 621 347 625 385 l 217 347 l 217 310 q 266 134 217 189 q 410 79 315 79 q 607 111 493 79 l 618 57 q 367 -14 513 -14 m 458 428 l 458 458 q 437 572 458 533 q 360 610 415 610 q 253 563 283 610 q 219 414 224 517 l 458 428 m 438 -165 q 406 -236 438 -207 q 333 -265 375 -265 q 258 -236 290 -265 q 226 -165 226 -207 q 259 -92 226 -124 q 333 -60 292 -60 q 406 -91 375 -60 q 438 -165 438 -122 z "},"è":{"ha":664,"x_min":42,"x_max":625,"o":"m 461 775 l 147 924 l 150 953 l 275 1003 l 489 815 l 461 775 m 367 -14 q 118 81 194 -14 q 42 339 42 175 q 126 610 42 524 q 353 696 210 696 q 560 632 494 696 q 625 432 625 568 q 621 347 625 385 l 217 347 l 217 310 q 266 134 217 189 q 410 79 315 79 q 607 111 493 79 l 618 57 q 367 -14 513 -14 m 458 428 l 458 458 q 437 572 458 533 q 360 610 415 610 q 253 563 283 610 q 219 414 224 517 l 458 428 z "},"ẻ":{"ha":664,"x_min":42,"x_max":625,"o":"m 42 0 m 367 -14 q 118 81 194 -14 q 42 339 42 175 q 126 610 42 524 q 353 696 210 696 q 560 632 494 696 q 625 432 625 568 q 621 347 625 385 l 217 347 l 217 310 q 266 134 217 189 q 410 79 315 79 q 607 111 493 79 l 618 57 q 367 -14 513 -14 m 458 428 l 458 458 q 437 572 458 533 q 360 610 415 610 q 253 563 283 610 q 219 414 224 517 l 458 428 m 478 868 q 378 796 478 810 l 369 763 l 303 763 l 297 821 q 385 864 385 821 q 372 888 385 879 q 333 897 358 897 q 297 894 325 897 l 288 854 l 236 854 l 228 928 q 344 942 297 942 q 442 922 407 942 q 478 868 478 903 z "},"ȇ":{"ha":664,"x_min":42,"x_max":625,"o":"m 42 0 m 367 -14 q 118 81 194 -14 q 42 339 42 175 q 126 610 42 524 q 353 696 210 696 q 560 632 494 696 q 625 432 625 568 q 621 347 625 385 l 217 347 l 217 310 q 266 134 217 189 q 410 79 315 79 q 607 111 493 79 l 618 57 q 367 -14 513 -14 m 458 428 l 458 458 q 437 572 458 533 q 360 610 415 610 q 253 563 283 610 q 219 414 224 517 l 458 428 m 336 993 q 464 945 431 993 q 497 815 497 897 l 429 813 q 336 899 429 899 q 232 813 232 899 l 164 815 q 336 993 164 993 z "},"ē":{"ha":664,"x_min":42,"x_max":625,"o":"m 179 843 l 179 940 l 501 940 l 501 843 l 179 843 m 367 -14 q 118 81 194 -14 q 42 339 42 175 q 126 610 42 524 q 353 696 210 696 q 560 632 494 696 q 625 432 625 568 q 621 347 625 385 l 217 347 l 217 310 q 266 134 217 189 q 410 79 315 79 q 607 111 493 79 l 618 57 q 367 -14 513 -14 m 458 428 l 458 458 q 437 572 458 533 q 360 610 415 610 q 253 563 283 610 q 219 414 224 517 l 458 428 z "},"ę":{"ha":664,"x_min":42,"x_max":625,"o":"m 469 -325 q 364 -291 397 -325 q 331 -207 331 -257 q 364 -105 331 -158 q 454 -7 397 -51 q 367 -14 410 -14 q 118 81 194 -14 q 42 339 42 175 q 126 610 42 524 q 353 696 210 696 q 560 632 494 696 q 625 432 625 568 q 621 347 625 385 l 217 347 l 217 310 q 266 134 217 189 q 410 79 315 79 q 607 111 493 79 l 618 57 q 489 -47 538 7 q 440 -178 440 -101 q 458 -230 440 -212 q 506 -247 475 -247 q 585 -217 549 -247 l 614 -244 q 560 -299 596 -272 q 469 -325 525 -325 m 458 428 l 458 458 q 437 572 458 533 q 360 610 415 610 q 253 563 283 610 q 219 414 224 517 l 458 428 z "},"ẽ":{"ha":664,"x_min":42,"x_max":625,"o":"m 457 810 q 332 838 424 810 q 274 855 303 847 q 229 863 244 863 q 202 852 215 863 q 181 831 189 842 q 171 817 172 821 l 114 840 q 229 979 172 979 q 350 951 261 979 q 410 934 381 942 q 457 926 440 926 q 485 936 472 926 q 506 957 497 946 q 515 971 514 968 l 571 949 q 517 847 544 883 q 457 810 489 810 m 367 -14 q 118 81 194 -14 q 42 339 42 175 q 126 610 42 524 q 353 696 210 696 q 560 632 494 696 q 625 432 625 568 q 621 347 625 385 l 217 347 l 217 310 q 266 134 217 189 q 410 79 315 79 q 607 111 493 79 l 618 57 q 367 -14 513 -14 m 458 428 l 458 458 q 437 572 458 533 q 360 610 415 610 q 253 563 283 610 q 219 414 224 517 l 458 428 z "},"ə":{"ha":664,"x_min":39,"x_max":622,"o":"m 297 697 q 546 603 469 697 q 622 344 622 508 q 538 74 622 160 q 311 -12 454 -12 q 104 51 169 -12 q 39 251 39 115 q 43 336 39 299 l 447 336 l 447 374 q 398 549 447 494 q 254 604 349 604 q 57 572 171 604 l 46 626 q 297 697 151 697 m 206 256 l 206 225 q 227 112 206 150 q 304 74 249 74 q 410 120 381 74 q 444 269 440 167 l 206 256 z "},"f":{"ha":522,"x_min":42,"x_max":599,"o":"m 42 58 l 156 89 l 156 593 l 43 593 l 43 651 l 156 696 q 236 930 156 846 q 458 1014 317 1014 q 539 1003 494 1014 q 599 982 583 993 l 575 796 l 499 796 l 476 900 q 424 910 450 910 q 339 865 360 910 q 318 728 318 819 l 318 683 l 526 683 l 526 583 l 319 596 l 319 93 l 481 64 l 481 0 l 42 0 l 42 58 z "},"g":{"ha":713,"x_min":38,"x_max":697,"o":"m 311 -246 q 95 -208 153 -246 q 38 -110 38 -171 q 132 29 38 -32 q 92 63 106 39 q 78 113 78 86 q 101 179 78 146 q 171 260 125 213 q 98 344 121 290 q 75 463 75 397 q 145 632 75 565 q 343 699 215 699 q 507 660 439 699 l 697 714 l 697 603 l 558 603 q 597 540 583 578 q 611 463 611 501 q 545 290 611 357 q 338 224 479 224 q 278 227 308 224 q 239 235 249 231 q 218 179 218 197 q 228 147 218 161 q 260 133 238 133 l 454 133 q 624 99 565 133 q 683 -19 683 65 q 642 -129 683 -78 q 517 -213 601 -181 q 311 -246 433 -246 m 346 306 q 429 346 404 306 q 454 463 454 386 q 342 619 454 619 q 261 579 285 619 q 238 463 238 539 q 263 347 238 388 q 346 306 288 306 m 318 -161 q 481 -128 429 -161 q 533 -36 533 -94 q 513 10 533 0 q 444 21 493 21 l 228 21 q 198 -28 207 -6 q 189 -79 189 -51 q 217 -141 189 -121 q 318 -161 246 -161 z "},"ǵ":{"ha":713,"x_min":38,"x_max":697,"o":"m 38 0 m 311 -246 q 95 -208 153 -246 q 38 -110 38 -171 q 132 29 38 -32 q 92 63 106 39 q 78 113 78 86 q 101 179 78 146 q 171 260 125 213 q 98 344 121 290 q 75 463 75 397 q 145 632 75 565 q 343 699 215 699 q 507 660 439 699 l 697 714 l 697 603 l 558 603 q 597 540 583 578 q 611 463 611 501 q 545 290 611 357 q 338 224 479 224 q 278 227 308 224 q 239 235 249 231 q 218 179 218 197 q 228 147 218 161 q 260 133 238 133 l 454 133 q 624 99 565 133 q 683 -19 683 65 q 642 -129 683 -78 q 517 -213 601 -181 q 311 -246 433 -246 m 346 306 q 429 346 404 306 q 454 463 454 386 q 342 619 454 619 q 261 579 285 619 q 238 463 238 539 q 263 347 238 388 q 346 306 288 306 m 318 -161 q 481 -128 429 -161 q 533 -36 533 -94 q 513 10 533 0 q 444 21 493 21 l 228 21 q 198 -28 207 -6 q 189 -79 189 -51 q 217 -141 189 -121 q 318 -161 246 -161 m 247 775 l 215 815 l 431 1003 l 558 953 l 558 924 l 247 775 z "},"ğ":{"ha":735,"x_min":39,"x_max":704,"o":"m 346 799 q 217 847 251 799 q 183 976 183 894 l 253 979 q 346 894 253 894 q 450 979 450 894 l 517 976 q 346 799 517 799 m 314 -246 q 97 -208 154 -246 q 39 -110 39 -171 q 138 29 39 -35 q 98 63 111 39 q 85 113 85 86 q 108 180 85 146 q 176 260 132 214 q 82 463 82 317 q 151 632 82 565 q 349 699 221 699 q 513 660 446 699 l 704 714 l 704 603 l 564 603 q 603 539 589 578 q 618 463 618 500 q 552 290 618 357 q 344 224 486 224 q 285 227 315 224 q 246 235 256 231 q 225 179 225 201 q 234 147 225 160 q 265 133 243 133 l 468 133 q 637 99 578 133 q 696 -19 696 65 q 652 -128 696 -76 q 522 -213 608 -181 q 314 -246 436 -246 m 351 306 q 435 346 410 306 q 460 463 460 386 q 347 619 460 619 q 267 579 290 619 q 243 463 243 539 q 268 347 243 388 q 351 306 293 306 m 321 -161 q 490 -127 432 -161 q 547 -36 547 -93 q 527 10 547 0 q 458 21 507 21 l 233 21 q 200 -31 211 -8 q 189 -79 189 -54 q 218 -141 189 -121 q 321 -161 247 -161 z "},"ǧ":{"ha":713,"x_min":38,"x_max":697,"o":"m 38 0 m 311 -246 q 95 -208 153 -246 q 38 -110 38 -171 q 132 29 38 -32 q 92 63 106 39 q 78 113 78 86 q 101 179 78 146 q 171 260 125 213 q 98 344 121 290 q 75 463 75 397 q 145 632 75 565 q 343 699 215 699 q 507 660 439 699 l 697 714 l 697 603 l 558 603 q 597 540 583 578 q 611 463 611 501 q 545 290 611 357 q 338 224 479 224 q 278 227 308 224 q 239 235 249 231 q 218 179 218 197 q 228 147 218 161 q 260 133 238 133 l 454 133 q 624 99 565 133 q 683 -19 683 65 q 642 -129 683 -78 q 517 -213 601 -181 q 311 -246 433 -246 m 346 306 q 429 346 404 306 q 454 463 454 386 q 342 619 454 619 q 261 579 285 619 q 238 463 238 539 q 263 347 238 388 q 346 306 288 306 m 318 -161 q 481 -128 429 -161 q 533 -36 533 -94 q 513 10 533 0 q 444 21 493 21 l 228 21 q 198 -28 207 -6 q 189 -79 189 -51 q 217 -141 189 -121 q 318 -161 246 -161 m 200 1008 l 357 893 l 517 1008 l 557 978 l 411 782 l 304 782 l 157 978 l 200 1008 z "},"ĝ":{"ha":713,"x_min":38,"x_max":697,"o":"m 38 0 m 311 -246 q 95 -208 153 -246 q 38 -110 38 -171 q 132 29 38 -32 q 92 63 106 39 q 78 113 78 86 q 101 179 78 146 q 171 260 125 213 q 98 344 121 290 q 75 463 75 397 q 145 632 75 565 q 343 699 215 699 q 507 660 439 699 l 697 714 l 697 603 l 558 603 q 597 540 583 578 q 611 463 611 501 q 545 290 611 357 q 338 224 479 224 q 278 227 308 224 q 239 235 249 231 q 218 179 218 197 q 228 147 218 161 q 260 133 238 133 l 454 133 q 624 99 565 133 q 683 -19 683 65 q 642 -129 683 -78 q 517 -213 601 -181 q 311 -246 433 -246 m 346 306 q 429 346 404 306 q 454 463 454 386 q 342 619 454 619 q 261 579 285 619 q 238 463 238 539 q 263 347 238 388 q 346 306 288 306 m 318 -161 q 481 -128 429 -161 q 533 -36 533 -94 q 513 10 533 0 q 444 21 493 21 l 228 21 q 198 -28 207 -6 q 189 -79 189 -51 q 217 -141 189 -121 q 318 -161 246 -161 m 517 774 l 357 893 l 200 774 l 157 808 l 304 1004 l 410 1004 l 557 808 l 517 774 z "},"ģ":{"ha":735,"x_min":39,"x_max":704,"o":"m 303 772 l 274 801 l 378 1058 l 433 1051 l 419 797 l 303 772 m 314 -246 q 97 -208 154 -246 q 39 -110 39 -171 q 138 29 39 -35 q 98 63 111 39 q 85 113 85 86 q 108 180 85 146 q 176 260 132 214 q 82 463 82 317 q 151 632 82 565 q 349 699 221 699 q 513 660 446 699 l 704 714 l 704 603 l 564 603 q 603 539 589 578 q 618 463 618 500 q 552 290 618 357 q 344 224 486 224 q 285 227 315 224 q 246 235 256 231 q 225 179 225 201 q 234 147 225 160 q 265 133 243 133 l 468 133 q 637 99 578 133 q 696 -19 696 65 q 652 -128 696 -76 q 522 -213 608 -181 q 314 -246 436 -246 m 351 306 q 435 346 410 306 q 460 463 460 386 q 347 619 460 619 q 267 579 290 619 q 243 463 243 539 q 268 347 243 388 q 351 306 293 306 m 321 -161 q 490 -127 432 -161 q 547 -36 547 -93 q 527 10 547 0 q 458 21 507 21 l 233 21 q 200 -31 211 -8 q 189 -79 189 -54 q 218 -141 189 -121 q 321 -161 247 -161 z "},"ġ":{"ha":713,"x_min":38,"x_max":697,"o":"m 38 0 m 311 -246 q 95 -208 153 -246 q 38 -110 38 -171 q 132 29 38 -32 q 92 63 106 39 q 78 113 78 86 q 101 179 78 146 q 171 260 125 213 q 98 344 121 290 q 75 463 75 397 q 145 632 75 565 q 343 699 215 699 q 507 660 439 699 l 697 714 l 697 603 l 558 603 q 597 540 583 578 q 611 463 611 501 q 545 290 611 357 q 338 224 479 224 q 278 227 308 224 q 239 235 249 231 q 218 179 218 197 q 228 147 218 161 q 260 133 238 133 l 454 133 q 624 99 565 133 q 683 -19 683 65 q 642 -129 683 -78 q 517 -213 601 -181 q 311 -246 433 -246 m 346 306 q 429 346 404 306 q 454 463 454 386 q 342 619 454 619 q 261 579 285 619 q 238 463 238 539 q 263 347 238 388 q 346 306 288 306 m 318 -161 q 481 -128 429 -161 q 533 -36 533 -94 q 513 10 533 0 q 444 21 493 21 l 228 21 q 198 -28 207 -6 q 189 -79 189 -51 q 217 -141 189 -121 q 318 -161 246 -161 m 463 893 q 431 822 463 851 q 358 793 400 793 q 283 822 315 793 q 251 893 251 851 q 284 967 251 935 q 358 999 317 999 q 431 967 400 999 q 463 893 463 936 z "},"h":{"ha":863,"x_min":26,"x_max":840,"o":"m 468 0 l 468 57 l 563 89 l 563 510 q 554 563 563 544 q 523 588 546 581 q 456 594 500 594 q 304 575 365 594 l 304 89 l 399 57 l 399 0 l 26 0 l 26 61 l 142 89 l 142 890 l 28 906 l 28 960 l 251 1014 l 304 1014 l 304 640 q 419 678 347 661 q 551 696 492 696 q 677 660 628 696 q 726 550 726 625 l 726 89 l 840 57 l 840 0 l 468 0 z "},"ħ":{"ha":863,"x_min":26,"x_max":840,"o":"m 840 57 l 840 0 l 468 0 l 468 57 l 563 89 l 563 510 q 554 563 563 544 q 523 588 546 581 q 456 594 500 594 q 304 575 365 594 l 304 89 l 399 57 l 399 0 l 26 0 l 26 61 l 142 89 l 142 792 l 28 792 l 28 868 l 142 868 l 142 915 l 28 935 l 28 989 l 251 1014 l 304 1014 l 304 868 l 489 868 l 489 792 l 304 792 l 304 640 q 419 678 347 661 q 551 696 492 696 q 677 660 628 696 q 726 550 726 625 l 726 89 l 840 57 z "},"ĥ":{"ha":863,"x_min":22,"x_max":840,"o":"m 22 0 m 468 0 l 468 57 l 563 89 l 563 510 q 554 563 563 544 q 523 588 546 581 q 456 594 500 594 q 304 575 365 594 l 304 89 l 399 57 l 399 0 l 26 0 l 26 61 l 142 89 l 142 890 l 28 906 l 28 960 l 251 1014 l 304 1014 l 304 640 q 419 678 347 661 q 551 696 492 696 q 677 660 628 696 q 726 550 726 625 l 726 89 l 840 57 l 840 0 l 468 0 m 394 1025 l 222 1135 l 54 1025 l 22 1056 l 171 1242 l 276 1242 l 425 1056 l 394 1025 z "},"ḥ":{"ha":863,"x_min":26,"x_max":840,"o":"m 26 0 m 468 0 l 468 57 l 563 89 l 563 510 q 554 563 563 544 q 523 588 546 581 q 456 594 500 594 q 304 575 365 594 l 304 89 l 399 57 l 399 0 l 26 0 l 26 61 l 142 89 l 142 890 l 28 906 l 28 960 l 251 1014 l 304 1014 l 304 640 q 419 678 347 661 q 551 696 492 696 q 677 660 628 696 q 726 550 726 625 l 726 89 l 840 57 l 840 0 l 468 0 m 538 -165 q 506 -236 538 -207 q 433 -265 475 -265 q 358 -236 390 -265 q 326 -165 326 -207 q 359 -92 326 -124 q 433 -60 392 -60 q 506 -91 475 -60 q 538 -165 538 -122 z "},"i":{"ha":449,"x_min":38,"x_max":426,"o":"m 232 793 q 157 822 189 793 q 125 893 125 851 q 157 967 125 936 q 232 999 189 999 q 304 967 274 999 q 335 893 335 936 q 304 822 335 851 q 232 793 274 793 m 38 0 l 38 61 l 151 89 l 151 574 l 38 589 l 38 643 l 261 696 l 314 696 l 314 89 l 426 61 l 426 0 l 38 0 z "},"ı":{"ha":450,"x_min":38,"x_max":426,"o":"m 426 61 l 426 0 l 38 0 l 38 61 l 151 89 l 151 574 l 38 589 l 38 643 l 261 696 l 314 696 l 314 89 l 426 61 z "},"í":{"ha":450,"x_min":38,"x_max":426,"o":"m 82 775 l 50 815 l 265 1003 l 392 953 l 392 924 l 82 775 m 426 61 l 426 0 l 38 0 l 38 61 l 151 89 l 151 574 l 38 589 l 38 643 l 261 696 l 314 696 l 314 89 l 426 61 z "},"ĭ":{"ha":450,"x_min":38,"x_max":426,"o":"m 38 0 m 426 61 l 426 0 l 38 0 l 38 61 l 151 89 l 151 574 l 38 589 l 38 643 l 261 696 l 314 696 l 314 89 l 426 61 m 218 799 q 91 847 125 799 q 57 976 57 894 l 125 979 q 219 894 125 894 q 324 979 324 894 l 390 976 q 218 799 390 799 z "},"ǐ":{"ha":450,"x_min":25,"x_max":426,"o":"m 25 0 m 426 61 l 426 0 l 38 0 l 38 61 l 151 89 l 151 574 l 38 589 l 38 643 l 261 696 l 314 696 l 314 89 l 426 61 m 68 1008 l 225 893 l 385 1008 l 425 978 l 279 782 l 172 782 l 25 978 l 68 1008 z "},"î":{"ha":450,"x_min":0,"x_max":426,"o":"m 360 774 l 200 893 l 43 774 l 0 808 l 147 1004 l 253 1004 l 400 808 l 360 774 m 426 61 l 426 0 l 38 0 l 38 61 l 151 89 l 151 574 l 38 589 l 38 643 l 261 696 l 314 696 l 314 89 l 426 61 z "},"ȉ":{"ha":450,"x_min":-74,"x_max":426,"o":"m 0 0 m 426 61 l 426 0 l 38 0 l 38 61 l 151 89 l 151 574 l 38 589 l 38 643 l 261 696 l 314 696 l 314 89 l 426 61 m 136 763 l -74 982 l -74 1011 l 46 1011 l 174 789 l 136 763 m 360 763 l 150 982 l 150 1011 l 269 1011 l 397 789 l 360 763 z "},"ï":{"ha":450,"x_min":-39,"x_max":457,"o":"m 154 894 q 126 828 154 856 q 60 801 97 801 q -9 828 21 801 q -39 894 -39 856 q -9 960 -39 932 q 60 988 21 988 q 126 960 97 988 q 154 894 154 932 m 457 894 q 429 828 457 856 q 364 801 401 801 q 295 828 324 801 q 267 894 267 856 q 295 960 267 933 q 364 988 324 988 q 429 960 401 988 q 457 894 457 932 m 426 61 l 426 0 l 38 0 l 38 61 l 151 89 l 151 574 l 38 589 l 38 643 l 261 696 l 314 696 l 314 89 l 426 61 z "},"ị":{"ha":449,"x_min":38,"x_max":426,"o":"m 38 0 m 232 793 q 157 822 189 793 q 125 893 125 851 q 157 967 125 936 q 232 999 189 999 q 304 967 274 999 q 335 893 335 936 q 304 822 335 851 q 232 793 274 793 m 38 0 l 38 61 l 151 89 l 151 574 l 38 589 l 38 643 l 261 696 l 314 696 l 314 89 l 426 61 l 426 0 l 38 0 m 331 -165 q 299 -236 331 -207 q 226 -265 268 -265 q 151 -236 183 -265 q 119 -165 119 -207 q 152 -92 119 -124 q 226 -60 185 -60 q 299 -91 268 -60 q 331 -165 331 -122 z "},"ì":{"ha":450,"x_min":-3,"x_max":426,"o":"m 313 775 l -3 924 l 1 953 l 126 1003 l 340 815 l 313 775 m 426 61 l 426 0 l 38 0 l 38 61 l 151 89 l 151 574 l 38 589 l 38 643 l 261 696 l 314 696 l 314 89 l 426 61 z "},"ỉ":{"ha":450,"x_min":38,"x_max":426,"o":"m 38 0 m 426 61 l 426 0 l 38 0 l 38 61 l 151 89 l 151 574 l 38 589 l 38 643 l 261 696 l 314 696 l 314 89 l 426 61 m 371 868 q 271 796 371 810 l 263 763 l 196 763 l 190 821 q 278 864 278 821 q 265 888 278 879 q 226 897 251 897 q 190 894 218 897 l 181 854 l 129 854 l 121 928 q 238 942 190 942 q 335 922 300 942 q 371 868 371 903 z "},"ȋ":{"ha":450,"x_min":38,"x_max":426,"o":"m 38 0 m 426 61 l 426 0 l 38 0 l 38 61 l 151 89 l 151 574 l 38 589 l 38 643 l 261 696 l 314 696 l 314 89 l 426 61 m 229 993 q 357 945 324 993 q 390 815 390 897 l 322 813 q 229 899 322 899 q 125 813 125 899 l 57 815 q 229 993 57 993 z "},"ĳ":{"ha":892,"x_min":38,"x_max":786,"o":"m 38 0 m 232 793 q 157 822 189 793 q 125 893 125 851 q 157 967 125 936 q 232 999 189 999 q 304 967 274 999 q 335 893 335 936 q 304 822 335 851 q 232 793 274 793 m 38 0 l 38 61 l 151 89 l 151 574 l 38 589 l 38 643 l 261 696 l 314 696 l 314 89 l 426 61 l 426 0 l 38 0 m 786 893 q 756 822 786 851 q 683 793 725 793 q 609 822 640 793 q 578 893 578 851 q 609 967 578 936 q 683 999 640 999 q 756 967 725 999 q 786 893 786 936 m 714 696 l 767 696 l 767 78 q 712 -160 767 -87 q 572 -233 657 -233 q 510 -224 549 -233 q 433 -196 471 -214 l 442 -137 l 504 -137 q 579 -103 554 -137 q 604 -26 604 -69 l 604 574 l 490 589 l 490 643 l 714 696 z "},"ī":{"ha":450,"x_min":29,"x_max":426,"o":"m 29 940 l 351 940 l 351 843 l 29 843 l 29 940 m 426 61 l 426 0 l 38 0 l 38 61 l 151 89 l 151 574 l 38 589 l 38 643 l 261 696 l 314 696 l 314 89 l 426 61 z "},"į":{"ha":450,"x_min":38,"x_max":438,"o":"m 232 793 q 157 822 189 793 q 125 893 125 851 q 157 967 125 936 q 232 999 189 999 q 304 967 274 999 q 335 893 335 936 q 304 822 335 851 q 232 793 274 793 m 293 -325 q 188 -292 221 -325 q 154 -208 154 -258 q 195 -94 154 -150 q 303 0 236 -39 l 38 0 l 38 61 l 151 89 l 151 574 l 38 589 l 38 643 l 261 696 l 314 696 l 314 89 l 426 61 l 426 0 q 304 -72 344 -19 q 264 -178 264 -124 q 331 -247 264 -247 q 408 -217 375 -247 l 438 -244 q 384 -299 419 -274 q 293 -325 349 -325 z "},"ĩ":{"ha":450,"x_min":-22,"x_max":435,"o":"m 435 924 q 381 820 407 857 q 321 783 354 783 q 196 811 288 783 q 138 828 167 821 q 93 836 108 836 q 66 826 79 836 q 44 806 53 817 q 35 792 36 794 l -22 814 q 93 954 35 954 q 214 926 125 954 q 274 909 244 917 q 321 901 304 901 q 349 911 336 901 q 369 932 361 921 q 379 946 378 943 l 435 924 m 426 61 l 426 0 l 38 0 l 38 61 l 151 89 l 151 574 l 38 589 l 38 643 l 261 696 l 314 696 l 314 89 l 426 61 z "},"j":{"ha":443,"x_min":-15,"x_max":338,"o":"m 338 893 q 307 822 338 851 q 235 793 276 793 q 160 822 192 793 q 129 893 129 851 q 160 967 129 936 q 235 999 192 999 q 307 967 276 999 q 338 893 338 936 m 265 696 l 318 696 l 318 78 q 263 -160 318 -87 q 124 -233 208 -233 q 61 -224 100 -233 q -15 -196 22 -214 l -7 -137 l 56 -137 q 131 -103 106 -137 q 156 -26 156 -69 l 156 574 l 42 589 l 42 643 l 265 696 z "},"ȷ":{"ha":443,"x_min":-15,"x_max":318,"o":"m 265 696 l 318 696 l 318 78 q 263 -160 318 -87 q 124 -233 208 -233 q 61 -224 100 -233 q -15 -196 22 -214 l -7 -137 l 56 -137 q 131 -103 106 -137 q 156 -26 156 -69 l 156 574 l 42 589 l 42 643 l 265 696 z "},"ĵ":{"ha":443,"x_min":-15,"x_max":421,"o":"m 0 0 m 265 696 l 318 696 l 318 78 q 263 -160 318 -87 q 124 -233 208 -233 q 61 -224 100 -233 q -15 -196 22 -214 l -7 -137 l 56 -137 q 131 -103 106 -137 q 156 -26 156 -69 l 156 574 l 42 589 l 42 643 l 265 696 m 381 774 l 221 893 l 64 774 l 21 808 l 168 1004 l 274 1004 l 421 808 l 381 774 z "},"k":{"ha":796,"x_min":26,"x_max":814,"o":"m 389 0 l 26 0 l 26 61 l 142 89 l 142 890 l 26 906 l 26 960 l 251 1014 l 304 1014 l 304 89 l 389 63 l 389 0 m 814 0 l 475 0 l 475 63 l 535 86 l 317 358 l 514 600 l 414 624 l 414 683 l 769 683 l 769 624 l 639 597 l 475 400 l 726 89 l 814 63 l 814 0 z "},"ķ":{"ha":806,"x_min":26,"x_max":814,"o":"m 26 0 l 26 61 l 142 89 l 142 890 l 26 906 l 26 960 l 251 1014 l 304 1014 l 304 89 l 389 63 l 389 0 l 26 0 m 475 0 l 475 63 l 535 86 l 317 358 l 514 600 l 414 624 l 414 683 l 769 683 l 769 624 l 639 597 l 475 400 l 726 89 l 814 63 l 814 0 l 475 0 m 343 -314 l 357 -61 l 472 -35 l 501 -64 l 399 -321 l 343 -314 z "},"ĸ":{"ha":806,"x_min":36,"x_max":824,"o":"m 399 0 l 36 0 l 36 61 l 151 89 l 151 575 l 38 589 l 38 644 l 261 696 l 314 696 l 314 89 l 399 63 l 399 0 m 824 0 l 485 0 l 485 63 l 544 86 l 326 358 l 524 600 l 424 624 l 424 683 l 779 683 l 779 624 l 649 597 l 485 400 l 736 89 l 824 63 l 824 0 z "},"l":{"ha":435,"x_min":22,"x_max":413,"o":"m 22 0 l 22 61 l 136 89 l 136 890 l 22 906 l 22 960 l 246 1014 l 299 1014 l 299 89 l 413 61 l 413 0 l 22 0 z "},"ĺ":{"ha":435,"x_min":14,"x_max":415,"o":"m 47 996 l 14 1036 l 231 1218 l 357 1174 l 357 1144 l 47 996 m 25 0 l 25 61 l 139 89 l 139 890 l 25 906 l 25 960 l 249 1014 l 301 1014 l 301 89 l 415 61 l 415 0 l 25 0 z "},"ľ":{"ha":483,"x_min":25,"x_max":508,"o":"m 417 726 l 367 1036 l 419 1036 l 508 1006 l 464 726 l 417 726 m 25 0 l 25 61 l 139 89 l 139 890 l 25 906 l 25 960 l 249 1014 l 301 1014 l 301 89 l 415 61 l 415 0 l 25 0 z "},"ļ":{"ha":435,"x_min":25,"x_max":415,"o":"m 25 0 l 25 61 l 139 89 l 139 890 l 25 906 l 25 960 l 249 1014 l 301 1014 l 301 89 l 415 61 l 415 0 l 25 0 m 144 -314 l 160 -61 l 275 -35 l 304 -64 l 200 -321 l 144 -314 z "},"ŀ":{"ha":435,"x_min":22,"x_max":529,"o":"m 22 0 m 22 0 l 22 61 l 136 89 l 136 890 l 22 906 l 22 960 l 246 1014 l 299 1014 l 299 89 l 413 61 l 413 0 l 22 0 m 529 589 q 502 521 529 549 q 433 493 475 493 q 365 521 393 493 q 336 589 336 549 q 364 657 336 631 q 433 683 392 683 q 502 657 475 683 q 529 589 529 631 z "},"ǉ":{"ha":878,"x_min":22,"x_max":772,"o":"m 22 0 m 22 0 l 22 61 l 136 89 l 136 890 l 22 906 l 22 960 l 246 1014 l 299 1014 l 299 89 l 413 61 l 413 0 l 22 0 m 772 893 q 742 822 772 851 q 669 793 711 793 q 595 822 626 793 q 564 893 564 851 q 595 967 564 936 q 669 999 626 999 q 742 967 711 999 q 772 893 772 936 m 700 696 l 753 696 l 753 78 q 698 -160 753 -87 q 558 -233 643 -233 q 496 -224 535 -233 q 419 -196 457 -214 l 428 -137 l 490 -137 q 565 -103 540 -137 q 590 -26 590 -69 l 590 574 l 476 589 l 476 643 l 700 696 z "},"ł":{"ha":438,"x_min":-1,"x_max":453,"o":"m 26 0 l 26 61 l 140 89 l 140 413 l 39 353 l -1 421 l 140 504 l 140 890 l 26 906 l 26 960 l 250 1014 l 303 1014 l 303 600 l 413 665 l 453 596 l 303 507 l 303 89 l 417 61 l 417 0 l 26 0 z "},"m":{"ha":1267,"x_min":36,"x_max":1244,"o":"m 36 54 l 150 89 l 150 575 l 36 589 l 36 644 l 260 696 l 313 696 l 313 640 q 424 678 354 661 q 549 696 493 696 q 697 635 653 696 q 824 677 753 658 q 954 696 896 696 q 1081 661 1033 696 q 1129 550 1129 626 l 1129 89 l 1244 54 l 1244 0 l 876 0 l 876 54 l 967 89 l 967 510 q 945 577 967 560 q 860 594 924 594 q 718 575 776 594 q 721 544 721 567 l 721 89 l 811 54 l 811 0 l 468 0 l 468 54 l 558 89 l 558 510 q 549 563 558 544 q 517 588 540 581 q 447 594 493 594 q 313 575 368 594 l 313 89 l 403 54 l 403 0 l 36 0 l 36 54 z "},"n":{"ha":872,"x_min":38,"x_max":851,"o":"m 314 640 q 426 677 353 658 q 560 696 500 696 q 687 661 638 696 q 736 550 736 626 l 736 89 l 851 54 l 851 0 l 479 0 l 479 54 l 574 89 l 574 510 q 565 564 574 546 q 532 588 556 582 q 463 594 508 594 q 314 575 385 594 l 314 89 l 408 54 l 408 0 l 38 0 l 38 54 l 151 89 l 151 575 l 38 589 l 38 644 l 261 696 l 314 696 l 314 640 z "},"ń":{"ha":872,"x_min":36,"x_max":850,"o":"m 319 775 l 288 815 l 503 1003 l 629 953 l 629 924 l 319 775 m 313 640 q 425 677 351 658 q 558 696 499 696 q 685 661 636 696 q 735 550 735 626 l 735 89 l 850 54 l 850 0 l 478 0 l 478 54 l 572 89 l 572 510 q 563 564 572 546 q 531 588 554 582 q 461 594 507 594 q 313 575 383 594 l 313 89 l 406 54 l 406 0 l 36 0 l 36 54 l 150 89 l 150 575 l 36 589 l 36 644 l 260 696 l 313 696 l 313 640 z "},"ŉ":{"ha":833,"x_min":38,"x_max":851,"o":"m 38 0 m 157 726 l 106 1036 l 160 1036 l 249 1006 l 204 726 l 157 726 m 314 640 q 426 677 353 658 q 560 696 500 696 q 687 661 638 696 q 736 550 736 626 l 736 89 l 851 54 l 851 0 l 479 0 l 479 54 l 574 89 l 574 510 q 565 564 574 546 q 532 588 556 582 q 463 594 508 594 q 314 575 385 594 l 314 89 l 408 54 l 408 0 l 38 0 l 38 54 l 151 89 l 151 575 l 38 589 l 38 644 l 261 696 l 314 696 l 314 640 z "},"ň":{"ha":872,"x_min":36,"x_max":850,"o":"m 278 1008 l 435 893 l 594 1008 l 635 978 l 489 782 l 382 782 l 235 978 l 278 1008 m 313 640 q 425 677 351 658 q 558 696 499 696 q 685 661 636 696 q 735 550 735 626 l 735 89 l 850 54 l 850 0 l 478 0 l 478 54 l 572 89 l 572 510 q 563 564 572 546 q 531 588 554 582 q 461 594 507 594 q 313 575 383 594 l 313 89 l 406 54 l 406 0 l 36 0 l 36 54 l 150 89 l 150 575 l 36 589 l 36 644 l 260 696 l 313 696 l 313 640 z "},"ņ":{"ha":872,"x_min":36,"x_max":850,"o":"m 36 54 l 150 89 l 150 575 l 36 589 l 36 644 l 260 696 l 313 696 l 313 640 q 425 677 351 658 q 558 696 499 696 q 685 661 636 696 q 735 550 735 626 l 735 89 l 850 54 l 850 0 l 478 0 l 478 54 l 572 89 l 572 510 q 563 564 572 546 q 531 588 554 582 q 461 594 507 594 q 313 575 383 594 l 313 89 l 406 54 l 406 0 l 36 0 l 36 54 m 361 -314 l 375 -61 l 492 -35 l 519 -64 l 417 -321 l 361 -314 z "},"ṅ":{"ha":872,"x_min":38,"x_max":851,"o":"m 38 0 m 314 640 q 426 677 353 658 q 560 696 500 696 q 687 661 638 696 q 736 550 736 626 l 736 89 l 851 54 l 851 0 l 479 0 l 479 54 l 574 89 l 574 510 q 565 564 574 546 q 532 588 556 582 q 463 594 508 594 q 314 575 385 594 l 314 89 l 408 54 l 408 0 l 38 0 l 38 54 l 151 89 l 151 575 l 38 589 l 38 644 l 261 696 l 314 696 l 314 640 m 542 893 q 510 822 542 851 q 438 793 479 793 q 363 822 394 793 q 331 893 331 851 q 363 967 331 935 q 438 999 396 999 q 510 967 479 999 q 542 893 542 936 z "},"ŋ":{"ha":842,"x_min":38,"x_max":736,"o":"m 560 696 q 687 661 638 696 q 736 550 736 626 l 736 78 q 681 -160 736 -86 q 542 -233 626 -233 q 479 -224 518 -233 q 403 -196 440 -214 l 411 -137 l 474 -137 q 549 -103 524 -137 q 574 -26 574 -69 l 574 510 q 565 564 574 546 q 532 588 556 582 q 463 594 508 594 q 314 575 385 594 l 314 89 l 408 54 l 408 0 l 38 0 l 38 54 l 151 89 l 151 575 l 38 589 l 38 644 l 261 696 l 314 696 l 314 640 q 426 677 353 658 q 560 696 500 696 z "},"ɲ":{"ha":872,"x_min":-19,"x_max":851,"o":"m 851 54 l 851 0 l 479 0 l 479 54 l 574 89 l 574 510 q 565 564 574 546 q 532 588 556 582 q 463 594 508 594 q 314 575 385 594 l 314 78 q 259 -160 314 -87 q 119 -233 204 -233 q 57 -224 96 -233 q -19 -196 18 -214 l -11 -137 l 51 -137 q 126 -103 101 -137 q 151 -26 151 -69 l 151 575 l 38 589 l 38 644 l 261 696 l 314 696 l 314 640 q 426 677 353 658 q 560 696 500 696 q 687 661 638 696 q 736 550 736 626 l 736 89 l 851 54 z "},"ǌ":{"ha":1315,"x_min":38,"x_max":1210,"o":"m 38 0 m 314 640 q 426 677 353 658 q 560 696 500 696 q 687 661 638 696 q 736 550 736 626 l 736 89 l 851 54 l 851 0 l 479 0 l 479 54 l 574 89 l 574 510 q 565 564 574 546 q 532 588 556 582 q 463 594 508 594 q 314 575 385 594 l 314 89 l 408 54 l 408 0 l 38 0 l 38 54 l 151 89 l 151 575 l 38 589 l 38 644 l 261 696 l 314 696 l 314 640 m 1210 893 q 1179 822 1210 851 q 1107 793 1149 793 q 1033 822 1064 793 q 1001 893 1001 851 q 1033 967 1001 936 q 1107 999 1064 999 q 1179 967 1149 999 q 1210 893 1210 936 m 1138 696 l 1190 696 l 1190 78 q 1135 -160 1190 -87 q 996 -233 1081 -233 q 933 -224 972 -233 q 857 -196 894 -214 l 865 -137 l 928 -137 q 1003 -103 978 -137 q 1028 -26 1028 -69 l 1028 574 l 914 589 l 914 643 l 1138 696 z "},"ñ":{"ha":872,"x_min":36,"x_max":850,"o":"m 665 949 q 611 847 639 883 q 551 810 583 810 q 426 838 518 810 q 368 855 397 847 q 324 863 339 863 q 297 852 310 863 q 275 831 283 842 q 265 817 267 821 l 208 840 q 263 942 236 906 q 322 979 290 979 q 444 951 356 979 q 505 934 475 942 q 551 926 535 926 q 579 936 567 926 q 600 957 592 946 q 610 971 608 968 l 665 949 m 313 640 q 425 677 351 658 q 558 696 499 696 q 685 661 636 696 q 735 550 735 626 l 735 89 l 850 54 l 850 0 l 478 0 l 478 54 l 572 89 l 572 510 q 563 564 572 546 q 531 588 554 582 q 461 594 507 594 q 313 575 383 594 l 313 89 l 406 54 l 406 0 l 36 0 l 36 54 l 150 89 l 150 575 l 36 589 l 36 644 l 260 696 l 313 696 l 313 640 z "},"o":{"ha":757,"x_min":43,"x_max":715,"o":"m 376 696 q 633 598 551 696 q 715 339 715 500 q 632 84 715 182 q 376 -14 549 -14 q 126 85 208 -14 q 43 339 43 183 q 124 598 43 500 q 376 696 206 696 m 539 342 q 503 542 539 471 q 374 613 467 613 q 252 542 286 613 q 218 342 218 471 q 254 142 218 214 q 382 71 290 71 q 506 142 472 71 q 539 342 539 213 z "},"ó":{"ha":757,"x_min":43,"x_max":715,"o":"m 43 0 m 376 696 q 633 598 551 696 q 715 339 715 500 q 632 84 715 182 q 376 -14 549 -14 q 126 85 208 -14 q 43 339 43 183 q 124 598 43 500 q 376 696 206 696 m 539 342 q 503 542 539 471 q 374 613 467 613 q 252 542 286 613 q 218 342 218 471 q 254 142 218 214 q 382 71 290 71 q 506 142 472 71 q 539 342 539 213 m 269 775 l 238 815 l 453 1003 l 581 953 l 581 924 l 269 775 z "},"ŏ":{"ha":757,"x_min":43,"x_max":715,"o":"m 43 0 m 376 696 q 633 598 551 696 q 715 339 715 500 q 632 84 715 182 q 376 -14 549 -14 q 126 85 208 -14 q 43 339 43 183 q 124 598 43 500 q 376 696 206 696 m 539 342 q 503 542 539 471 q 374 613 467 613 q 252 542 286 613 q 218 342 218 471 q 254 142 218 214 q 382 71 290 71 q 506 142 472 71 q 539 342 539 213 m 372 799 q 245 847 279 799 q 211 976 211 894 l 279 979 q 374 894 279 894 q 478 979 478 894 l 544 976 q 372 799 544 799 z "},"ǒ":{"ha":757,"x_min":43,"x_max":715,"o":"m 43 0 m 376 696 q 633 598 551 696 q 715 339 715 500 q 632 84 715 182 q 376 -14 549 -14 q 126 85 208 -14 q 43 339 43 183 q 124 598 43 500 q 376 696 206 696 m 539 342 q 503 542 539 471 q 374 613 467 613 q 252 542 286 613 q 218 342 218 471 q 254 142 218 214 q 382 71 290 71 q 506 142 472 71 q 539 342 539 213 m 222 1008 l 379 893 l 539 1008 l 579 978 l 433 782 l 326 782 l 179 978 l 222 1008 z "},"ô":{"ha":757,"x_min":43,"x_max":715,"o":"m 539 774 l 379 893 l 221 774 l 179 808 l 326 1004 l 432 1004 l 579 808 l 539 774 m 376 696 q 633 598 551 696 q 715 339 715 500 q 632 84 715 182 q 376 -14 549 -14 q 126 85 208 -14 q 43 339 43 183 q 124 598 43 500 q 376 696 206 696 m 539 342 q 503 542 539 471 q 374 613 467 613 q 252 542 286 613 q 218 342 218 471 q 254 142 218 214 q 382 71 290 71 q 506 142 472 71 q 539 342 539 213 z "},"ố":{"ha":757,"x_min":43,"x_max":839,"o":"m 603 856 l 561 882 l 690 1136 l 825 1136 l 839 1110 l 603 856 m 539 774 l 379 893 l 222 774 l 179 808 l 326 1004 l 432 1004 l 579 808 l 539 774 m 376 696 q 633 598 551 696 q 715 339 715 500 q 632 84 715 182 q 376 -14 549 -14 q 126 85 208 -14 q 43 339 43 183 q 124 598 43 500 q 376 696 206 696 m 539 342 q 503 542 539 471 q 374 613 467 613 q 252 542 286 613 q 218 342 218 471 q 254 142 218 214 q 382 71 290 71 q 506 142 472 71 q 539 342 539 213 z "},"ộ":{"ha":757,"x_min":43,"x_max":715,"o":"m 43 0 m 376 696 q 633 598 551 696 q 715 339 715 500 q 632 84 715 182 q 376 -14 549 -14 q 126 85 208 -14 q 43 339 43 183 q 124 598 43 500 q 376 696 206 696 m 539 342 q 503 542 539 471 q 374 613 467 613 q 252 542 286 613 q 218 342 218 471 q 254 142 218 214 q 382 71 290 71 q 506 142 472 71 q 539 342 539 213 m 485 -165 q 453 -236 485 -207 q 381 -265 422 -265 q 306 -236 338 -265 q 274 -165 274 -207 q 306 -92 274 -124 q 381 -60 339 -60 q 453 -91 422 -60 q 485 -165 485 -122 m 539 774 l 379 893 l 222 774 l 179 808 l 326 1004 l 432 1004 l 579 808 l 539 774 z "},"ồ":{"ha":757,"x_min":43,"x_max":715,"o":"m 632 856 l 396 1110 l 410 1136 l 544 1136 l 674 882 l 632 856 m 525 774 l 365 893 l 208 774 l 165 808 l 313 1004 l 418 1004 l 565 808 l 525 774 m 376 696 q 633 598 551 696 q 715 339 715 500 q 632 84 715 182 q 376 -14 549 -14 q 126 85 208 -14 q 43 339 43 183 q 124 598 43 500 q 376 696 206 696 m 539 342 q 503 542 539 471 q 374 613 467 613 q 252 542 286 613 q 218 342 218 471 q 254 142 218 214 q 382 71 290 71 q 506 142 472 71 q 539 342 539 213 z "},"ổ":{"ha":757,"x_min":43,"x_max":715,"o":"m 43 0 m 376 696 q 633 598 551 696 q 715 339 715 500 q 632 84 715 182 q 376 -14 549 -14 q 126 85 208 -14 q 43 339 43 183 q 124 598 43 500 q 376 696 206 696 m 539 342 q 503 542 539 471 q 374 613 467 613 q 252 542 286 613 q 218 342 218 471 q 254 142 218 214 q 382 71 290 71 q 506 142 472 71 q 539 342 539 213 m 539 774 l 379 893 l 222 774 l 179 808 l 326 1004 l 432 1004 l 579 808 l 539 774 m 689 1063 q 589 990 689 1004 l 581 957 l 514 957 l 508 1015 q 596 1058 596 1015 q 583 1083 596 1074 q 544 1092 569 1092 q 508 1089 536 1092 l 499 1049 l 447 1049 l 439 1122 q 556 1136 508 1136 q 653 1117 618 1136 q 689 1063 689 1097 z "},"ỗ":{"ha":757,"x_min":43,"x_max":715,"o":"m 43 0 m 376 696 q 633 598 551 696 q 715 339 715 500 q 632 84 715 182 q 376 -14 549 -14 q 126 85 208 -14 q 43 339 43 183 q 124 598 43 500 q 376 696 206 696 m 539 342 q 503 542 539 471 q 374 613 467 613 q 252 542 286 613 q 218 342 218 471 q 254 142 218 214 q 382 71 290 71 q 506 142 472 71 q 539 342 539 213 m 550 726 l 378 836 l 210 726 l 178 757 l 326 943 l 432 943 l 581 757 l 550 726 m 610 1093 q 556 991 583 1028 q 496 954 528 954 q 371 982 463 954 q 313 999 342 992 q 268 1007 283 1007 q 241 997 254 1007 q 219 976 228 986 q 210 961 211 965 l 153 985 q 205 1085 175 1047 q 268 1124 235 1124 q 389 1096 300 1124 q 449 1078 419 1086 q 496 1071 479 1071 q 524 1081 511 1071 q 544 1102 536 1092 q 554 1117 553 1113 l 610 1093 z "},"ȍ":{"ha":757,"x_min":43,"x_max":715,"o":"m 43 0 m 376 696 q 633 598 551 696 q 715 339 715 500 q 632 84 715 182 q 376 -14 549 -14 q 126 85 208 -14 q 43 339 43 183 q 124 598 43 500 q 376 696 206 696 m 539 342 q 503 542 539 471 q 374 613 467 613 q 252 542 286 613 q 218 342 218 471 q 254 142 218 214 q 382 71 290 71 q 506 142 472 71 q 539 342 539 213 m 290 763 l 81 982 l 81 1011 l 200 1011 l 328 789 l 290 763 m 514 763 l 304 982 l 304 1011 l 424 1011 l 551 789 l 514 763 z "},"ö":{"ha":757,"x_min":43,"x_max":715,"o":"m 322 894 q 294 828 322 856 q 228 801 265 801 q 158 828 188 801 q 129 894 129 856 q 158 960 129 933 q 228 988 188 988 q 294 960 265 988 q 322 894 322 932 m 625 894 q 597 828 625 856 q 531 801 568 801 q 463 828 492 801 q 433 894 433 856 q 463 960 433 932 q 531 988 492 988 q 597 960 568 988 q 625 894 625 932 m 376 696 q 633 598 551 696 q 715 339 715 500 q 632 84 715 182 q 376 -14 549 -14 q 126 85 208 -14 q 43 339 43 183 q 124 598 43 500 q 376 696 206 696 m 539 342 q 503 542 539 471 q 374 613 467 613 q 252 542 286 613 q 218 342 218 471 q 254 142 218 214 q 382 71 290 71 q 506 142 472 71 q 539 342 539 213 z "},"ọ":{"ha":757,"x_min":43,"x_max":715,"o":"m 43 0 m 376 696 q 633 598 551 696 q 715 339 715 500 q 632 84 715 182 q 376 -14 549 -14 q 126 85 208 -14 q 43 339 43 183 q 124 598 43 500 q 376 696 206 696 m 539 342 q 503 542 539 471 q 374 613 467 613 q 252 542 286 613 q 218 342 218 471 q 254 142 218 214 q 382 71 290 71 q 506 142 472 71 q 539 342 539 213 m 485 -165 q 453 -236 485 -207 q 381 -265 422 -265 q 306 -236 338 -265 q 274 -165 274 -207 q 306 -92 274 -124 q 381 -60 339 -60 q 453 -91 422 -60 q 485 -165 485 -122 z "},"ò":{"ha":757,"x_min":43,"x_max":715,"o":"m 497 775 l 183 924 l 186 953 l 311 1003 l 525 815 l 497 775 m 376 696 q 633 598 551 696 q 715 339 715 500 q 632 84 715 182 q 376 -14 549 -14 q 126 85 208 -14 q 43 339 43 183 q 124 598 43 500 q 376 696 206 696 m 539 342 q 503 542 539 471 q 374 613 467 613 q 252 542 286 613 q 218 342 218 471 q 254 142 218 214 q 382 71 290 71 q 506 142 472 71 q 539 342 539 213 z "},"ỏ":{"ha":757,"x_min":43,"x_max":715,"o":"m 43 0 m 376 696 q 633 598 551 696 q 715 339 715 500 q 632 84 715 182 q 376 -14 549 -14 q 126 85 208 -14 q 43 339 43 183 q 124 598 43 500 q 376 696 206 696 m 539 342 q 503 542 539 471 q 374 613 467 613 q 252 542 286 613 q 218 342 218 471 q 254 142 218 214 q 382 71 290 71 q 506 142 472 71 q 539 342 539 213 m 525 868 q 425 796 525 810 l 417 763 l 350 763 l 344 821 q 432 864 432 821 q 419 888 432 879 q 381 897 406 897 q 344 894 372 897 l 335 854 l 283 854 l 275 928 q 392 942 344 942 q 490 922 454 942 q 525 868 525 903 z "},"ơ":{"ha":757,"x_min":43,"x_max":781,"o":"m 781 746 q 738 657 781 694 q 629 601 696 619 q 715 339 715 510 q 632 84 715 182 q 376 -14 549 -14 q 126 85 208 -14 q 43 339 43 183 q 124 598 43 500 q 376 696 206 696 q 557 657 483 696 l 569 657 q 631 672 610 657 q 653 731 653 688 q 646 788 653 757 l 654 806 l 763 825 q 776 785 771 807 q 781 746 781 763 m 382 71 q 506 142 472 71 q 539 342 539 213 q 503 542 539 471 q 374 613 467 613 q 252 542 286 613 q 218 342 218 471 q 254 142 218 214 q 382 71 290 71 z "},"ớ":{"ha":757,"x_min":43,"x_max":781,"o":"m 43 0 m 781 746 q 738 657 781 694 q 629 601 696 619 q 715 339 715 510 q 632 84 715 182 q 376 -14 549 -14 q 126 85 208 -14 q 43 339 43 183 q 124 598 43 500 q 376 696 206 696 q 557 657 483 696 l 569 657 q 631 672 610 657 q 653 731 653 688 q 646 788 653 757 l 654 806 l 763 825 q 776 785 771 807 q 781 746 781 763 m 382 71 q 506 142 472 71 q 539 342 539 213 q 503 542 539 471 q 374 613 467 613 q 252 542 286 613 q 218 342 218 471 q 254 142 218 214 q 382 71 290 71 m 269 775 l 238 815 l 453 1003 l 581 953 l 581 924 l 269 775 z "},"ợ":{"ha":757,"x_min":43,"x_max":781,"o":"m 43 0 m 781 746 q 738 657 781 694 q 629 601 696 619 q 715 339 715 510 q 632 84 715 182 q 376 -14 549 -14 q 126 85 208 -14 q 43 339 43 183 q 124 598 43 500 q 376 696 206 696 q 557 657 483 696 l 569 657 q 631 672 610 657 q 653 731 653 688 q 646 788 653 757 l 654 806 l 763 825 q 776 785 771 807 q 781 746 781 763 m 382 71 q 506 142 472 71 q 539 342 539 213 q 503 542 539 471 q 374 613 467 613 q 252 542 286 613 q 218 342 218 471 q 254 142 218 214 q 382 71 290 71 m 485 -165 q 453 -236 485 -207 q 381 -265 422 -265 q 306 -236 338 -265 q 274 -165 274 -207 q 306 -92 274 -124 q 381 -60 339 -60 q 453 -91 422 -60 q 485 -165 485 -122 z "},"ờ":{"ha":757,"x_min":43,"x_max":781,"o":"m 43 0 m 781 746 q 738 657 781 694 q 629 601 696 619 q 715 339 715 510 q 632 84 715 182 q 376 -14 549 -14 q 126 85 208 -14 q 43 339 43 183 q 124 598 43 500 q 376 696 206 696 q 557 657 483 696 l 569 657 q 631 672 610 657 q 653 731 653 688 q 646 788 653 757 l 654 806 l 763 825 q 776 785 771 807 q 781 746 781 763 m 382 71 q 506 142 472 71 q 539 342 539 213 q 503 542 539 471 q 374 613 467 613 q 252 542 286 613 q 218 342 218 471 q 254 142 218 214 q 382 71 290 71 m 467 775 l 151 924 l 156 953 l 281 1003 l 494 815 l 467 775 z "},"ở":{"ha":757,"x_min":43,"x_max":781,"o":"m 43 0 m 781 746 q 738 657 781 694 q 629 601 696 619 q 715 339 715 510 q 632 84 715 182 q 376 -14 549 -14 q 126 85 208 -14 q 43 339 43 183 q 124 598 43 500 q 376 696 206 696 q 557 657 483 696 l 569 657 q 631 672 610 657 q 653 731 653 688 q 646 788 653 757 l 654 806 l 763 825 q 776 785 771 807 q 781 746 781 763 m 382 71 q 506 142 472 71 q 539 342 539 213 q 503 542 539 471 q 374 613 467 613 q 252 542 286 613 q 218 342 218 471 q 254 142 218 214 q 382 71 290 71 m 525 868 q 425 796 525 810 l 417 763 l 350 763 l 344 821 q 432 864 432 821 q 419 888 432 879 q 381 897 406 897 q 344 894 372 897 l 335 854 l 283 854 l 275 928 q 392 942 344 942 q 490 922 454 942 q 525 868 525 903 z "},"ỡ":{"ha":757,"x_min":43,"x_max":781,"o":"m 43 0 m 781 746 q 738 657 781 694 q 629 601 696 619 q 715 339 715 510 q 632 84 715 182 q 376 -14 549 -14 q 126 85 208 -14 q 43 339 43 183 q 124 598 43 500 q 376 696 206 696 q 557 657 483 696 l 569 657 q 631 672 610 657 q 653 731 653 688 q 646 788 653 757 l 654 806 l 763 825 q 776 785 771 807 q 781 746 781 763 m 382 71 q 506 142 472 71 q 539 342 539 213 q 503 542 539 471 q 374 613 467 613 q 252 542 286 613 q 218 342 218 471 q 254 142 218 214 q 382 71 290 71 m 607 949 q 553 847 581 883 q 493 810 525 810 q 368 838 460 810 q 310 855 339 847 q 265 863 281 863 q 238 852 251 863 q 217 831 225 842 q 207 817 208 821 l 150 840 q 265 979 208 979 q 386 951 297 979 q 447 934 417 942 q 493 926 476 926 q 521 936 508 926 q 542 957 533 946 q 551 971 550 968 l 607 949 z "},"ő":{"ha":757,"x_min":43,"x_max":715,"o":"m 211 763 l 174 789 l 300 1011 l 419 1011 l 419 982 l 211 763 m 435 763 l 397 789 l 524 1011 l 643 1011 l 643 982 l 435 763 m 376 696 q 633 598 551 696 q 715 339 715 500 q 632 84 715 182 q 376 -14 549 -14 q 126 85 208 -14 q 43 339 43 183 q 124 598 43 500 q 376 696 206 696 m 539 342 q 503 542 539 471 q 374 613 467 613 q 252 542 286 613 q 218 342 218 471 q 254 142 218 214 q 382 71 290 71 q 506 142 472 71 q 539 342 539 213 z "},"ȏ":{"ha":757,"x_min":43,"x_max":715,"o":"m 43 0 m 376 696 q 633 598 551 696 q 715 339 715 500 q 632 84 715 182 q 376 -14 549 -14 q 126 85 208 -14 q 43 339 43 183 q 124 598 43 500 q 376 696 206 696 m 539 342 q 503 542 539 471 q 374 613 467 613 q 252 542 286 613 q 218 342 218 471 q 254 142 218 214 q 382 71 290 71 q 506 142 472 71 q 539 342 539 213 m 383 993 q 511 945 478 993 q 544 815 544 897 l 476 813 q 383 899 476 899 q 279 813 279 899 l 211 815 q 383 993 211 993 z "},"ō":{"ha":757,"x_min":43,"x_max":715,"o":"m 217 940 l 539 940 l 539 843 l 217 843 l 217 940 m 376 696 q 633 598 551 696 q 715 339 715 500 q 632 84 715 182 q 376 -14 549 -14 q 126 85 208 -14 q 43 339 43 183 q 124 598 43 500 q 376 696 206 696 m 539 342 q 503 542 539 471 q 374 613 467 613 q 252 542 286 613 q 218 342 218 471 q 254 142 218 214 q 382 71 290 71 q 506 142 472 71 q 539 342 539 213 z "},"ǫ":{"ha":757,"x_min":43,"x_max":715,"o":"m 582 -199 q 661 -168 625 -199 l 690 -196 q 672 -219 690 -199 q 622 -258 654 -240 q 544 -276 589 -276 q 440 -242 472 -276 q 407 -157 407 -208 q 425 -83 407 -124 q 481 -3 443 -43 q 376 -14 432 -14 q 126 85 208 -14 q 43 339 43 183 q 124 598 43 500 q 376 696 206 696 q 633 598 551 696 q 715 339 715 500 q 688 178 715 250 q 606 58 661 106 q 543 -27 569 29 q 517 -129 517 -83 q 582 -199 517 -199 m 218 342 q 254 142 218 214 q 382 71 290 71 q 506 142 472 71 q 539 342 539 213 q 503 542 539 471 q 374 613 467 613 q 252 542 286 613 q 218 342 218 471 z "},"ø":{"ha":757,"x_min":43,"x_max":715,"o":"m 224 15 q 88 140 132 54 q 43 339 43 225 q 124 598 43 500 q 376 696 206 696 q 442 692 410 696 l 482 818 l 575 818 l 526 671 q 669 546 624 633 q 715 339 715 458 q 632 84 715 182 q 376 -14 549 -14 q 304 -8 349 -14 l 265 -129 l 176 -129 l 224 15 m 415 608 q 374 613 397 613 q 252 542 286 613 q 218 342 218 471 q 261 133 218 199 l 415 608 m 382 71 q 506 142 472 71 q 539 342 539 213 q 489 557 539 494 l 333 78 q 382 71 353 71 z "},"ǿ":{"ha":757,"x_min":43,"x_max":715,"o":"m 43 0 m 224 15 q 88 140 132 54 q 43 339 43 225 q 124 598 43 500 q 376 696 206 696 q 442 692 410 696 l 482 818 l 575 818 l 526 671 q 669 546 624 633 q 715 339 715 458 q 632 84 715 182 q 376 -14 549 -14 q 304 -8 349 -14 l 265 -129 l 176 -129 l 224 15 m 415 608 q 374 613 397 613 q 252 542 286 613 q 218 342 218 471 q 261 133 218 199 l 415 608 m 382 71 q 506 142 472 71 q 539 342 539 213 q 489 557 539 494 l 333 78 q 382 71 353 71 m 269 775 l 238 815 l 453 1003 l 581 953 l 581 924 l 269 775 z "},"õ":{"ha":757,"x_min":43,"x_max":715,"o":"m 606 949 q 551 846 578 882 q 493 810 525 810 q 368 838 460 810 q 310 855 339 847 q 265 863 281 863 q 238 852 250 863 q 217 831 225 842 q 207 817 208 821 l 150 840 q 205 942 178 906 q 264 979 232 979 q 386 951 297 979 q 447 934 417 942 q 493 926 476 926 q 521 936 508 926 q 542 957 533 946 q 551 971 550 968 l 606 949 m 376 696 q 633 598 551 696 q 715 339 715 500 q 632 84 715 182 q 376 -14 549 -14 q 126 85 208 -14 q 43 339 43 183 q 124 598 43 500 q 376 696 206 696 m 539 342 q 503 542 539 471 q 374 613 467 613 q 252 542 286 613 q 218 342 218 471 q 254 142 218 214 q 382 71 290 71 q 506 142 472 71 q 539 342 539 213 z "},"œ":{"ha":1164,"x_min":43,"x_max":1126,"o":"m 376 -14 q 126 85 208 -14 q 43 339 43 183 q 124 598 43 500 q 376 696 206 696 q 524 667 461 696 q 625 585 586 638 q 725 669 665 643 q 854 696 785 696 q 1058 631 990 696 q 1126 429 1126 565 q 1121 347 1126 403 l 717 347 l 717 318 q 763 142 717 204 q 913 79 808 79 q 1108 111 993 79 l 1118 57 q 868 -14 1011 -14 q 717 22 785 -14 q 624 110 649 57 q 524 22 590 57 q 376 -14 458 -14 m 382 71 q 505 139 471 71 q 539 353 539 207 q 501 546 536 479 q 374 613 465 613 q 251 542 285 613 q 218 342 218 472 q 253 142 218 214 q 382 71 289 71 m 958 428 l 958 458 q 937 569 958 529 q 861 610 915 610 q 753 560 783 610 q 719 414 722 511 l 958 428 z "},"p":{"ha":800,"x_min":13,"x_max":757,"o":"m 24 -174 l 138 -143 l 138 578 l 13 589 l 13 644 q 207 681 100 667 q 406 696 314 696 q 678 606 599 696 q 757 339 757 515 q 676 92 757 183 q 446 0 596 0 q 329 19 389 0 l 347 85 q 400 79 372 79 q 516 113 476 79 q 568 202 556 146 q 581 344 581 258 q 547 538 581 464 q 408 613 513 613 q 300 596 353 613 l 300 -139 l 446 -171 l 446 -233 l 24 -233 l 24 -174 z "},"þ":{"ha":769,"x_min":-4,"x_max":726,"o":"m -4 -174 l 110 -143 l 110 890 l -4 906 l -4 960 l 218 1014 l 269 1014 l 269 690 q 381 696 319 696 q 648 606 569 696 q 726 339 726 515 q 646 92 726 183 q 415 0 565 0 q 300 19 360 0 l 317 85 q 369 79 342 79 q 485 113 446 79 q 538 202 525 146 q 550 344 550 258 q 517 539 550 465 q 376 613 483 613 q 269 596 317 613 l 269 -139 l 417 -171 l 417 -233 l -4 -233 l -4 -174 z "},"q":{"ha":764,"x_min":43,"x_max":768,"o":"m 768 -174 l 768 -233 l 371 -233 l 371 -174 l 503 -140 l 503 67 q 400 5 446 24 q 279 -14 354 -14 q 105 85 167 -14 q 43 339 43 185 q 118 597 43 497 q 340 696 193 696 q 542 643 446 696 l 607 688 l 661 688 l 661 -143 l 768 -174 m 499 568 q 371 613 436 613 q 258 542 297 613 q 219 360 219 472 q 256 149 219 211 q 357 88 292 88 q 436 102 399 88 q 499 142 474 117 l 499 568 z "},"r":{"ha":579,"x_min":36,"x_max":560,"o":"m 424 589 q 313 565 363 589 l 313 89 l 472 60 l 472 0 l 36 0 l 36 58 l 150 89 l 150 572 l 36 589 l 36 643 l 253 696 l 311 696 l 311 632 q 415 681 358 663 q 521 700 472 700 q 560 699 550 700 l 535 467 l 453 467 l 424 589 z "},"ŕ":{"ha":579,"x_min":36,"x_max":560,"o":"m 211 775 l 179 815 l 394 1003 l 521 953 l 521 924 l 211 775 m 424 589 q 313 565 363 589 l 313 89 l 472 60 l 472 0 l 36 0 l 36 58 l 150 89 l 150 572 l 36 589 l 36 643 l 253 696 l 311 696 l 311 632 q 415 681 358 663 q 521 700 472 700 q 560 699 550 700 l 535 467 l 453 467 l 424 589 z "},"ř":{"ha":579,"x_min":36,"x_max":560,"o":"m 150 1008 l 307 893 l 465 1008 l 507 978 l 360 782 l 253 782 l 107 978 l 150 1008 m 424 589 q 313 565 363 589 l 313 89 l 472 60 l 472 0 l 36 0 l 36 58 l 150 89 l 150 572 l 36 589 l 36 643 l 253 696 l 311 696 l 311 632 q 415 681 358 663 q 521 700 472 700 q 560 699 550 700 l 535 467 l 453 467 l 424 589 z "},"ŗ":{"ha":579,"x_min":36,"x_max":560,"o":"m 36 58 l 150 89 l 150 572 l 36 589 l 36 643 l 253 696 l 311 696 l 311 632 q 415 681 358 663 q 521 700 472 700 q 560 699 550 700 l 535 467 l 453 467 l 424 589 q 313 565 363 589 l 313 89 l 472 60 l 472 0 l 36 0 l 36 58 m 172 -314 l 186 -61 l 303 -35 l 331 -64 l 228 -321 l 172 -314 z "},"ȑ":{"ha":579,"x_min":-8,"x_max":560,"o":"m 0 0 m 424 589 q 313 565 363 589 l 313 89 l 472 60 l 472 0 l 36 0 l 36 58 l 150 89 l 150 572 l 36 589 l 36 643 l 253 696 l 311 696 l 311 632 q 415 681 358 663 q 521 700 472 700 q 560 699 550 700 l 535 467 l 453 467 l 424 589 m 201 763 l -8 982 l -8 1011 l 111 1011 l 239 789 l 201 763 m 425 763 l 215 982 l 215 1011 l 335 1011 l 463 789 l 425 763 z "},"ṛ":{"ha":579,"x_min":36,"x_max":560,"o":"m 36 0 m 424 589 q 313 565 363 589 l 313 89 l 472 60 l 472 0 l 36 0 l 36 58 l 150 89 l 150 572 l 36 589 l 36 643 l 253 696 l 311 696 l 311 632 q 415 681 358 663 q 521 700 472 700 q 560 699 550 700 l 535 467 l 453 467 l 424 589 m 338 -165 q 306 -236 338 -207 q 233 -265 275 -265 q 158 -236 190 -265 q 126 -165 126 -207 q 159 -92 126 -124 q 233 -60 192 -60 q 306 -91 275 -60 q 338 -165 338 -122 z "},"ȓ":{"ha":579,"x_min":36,"x_max":560,"o":"m 36 0 m 424 589 q 313 565 363 589 l 313 89 l 472 60 l 472 0 l 36 0 l 36 58 l 150 89 l 150 572 l 36 589 l 36 643 l 253 696 l 311 696 l 311 632 q 415 681 358 663 q 521 700 472 700 q 560 699 550 700 l 535 467 l 453 467 l 424 589 m 294 993 q 422 945 389 993 q 456 815 456 897 l 388 813 q 294 899 388 899 q 190 813 190 899 l 122 815 q 294 993 122 993 z "},"s":{"ha":611,"x_min":58,"x_max":558,"o":"m 321 611 q 231 589 264 611 q 199 528 199 567 q 216 472 199 493 q 275 438 233 451 l 414 392 q 525 323 492 367 q 558 201 558 279 q 485 44 558 101 q 281 -14 413 -14 q 167 -5 229 -14 q 58 21 104 4 l 75 203 l 143 203 l 172 88 q 279 71 222 71 q 383 96 347 71 q 419 169 419 121 q 400 219 419 201 q 329 254 381 236 l 200 299 q 97 368 131 324 q 63 485 63 413 q 128 640 63 585 q 324 696 193 696 q 428 685 374 696 q 531 654 483 675 l 511 489 l 446 489 l 417 592 q 321 611 374 611 z "},"ś":{"ha":618,"x_min":64,"x_max":564,"o":"m 196 775 l 164 815 l 379 1003 l 506 953 l 506 924 l 196 775 m 326 611 q 237 589 269 611 q 204 528 204 567 q 222 472 204 493 q 281 438 239 451 l 419 392 q 531 323 497 367 q 564 201 564 279 q 491 44 564 101 q 286 -14 418 -14 q 172 -5 235 -14 q 64 21 110 4 l 81 203 l 149 203 l 178 88 q 285 71 228 71 q 389 96 353 71 q 425 169 425 121 q 406 219 425 201 q 335 254 386 236 l 204 299 q 101 368 135 324 q 68 485 68 413 q 133 640 68 585 q 329 696 199 696 q 434 685 379 696 q 536 654 489 675 l 515 489 l 450 489 l 422 592 q 326 611 378 611 z "},"ꞌ":{"ha":242,"x_min":60,"x_max":242,"o":"m 122 482 l 60 493 l 78 960 l 208 989 l 242 956 l 122 482 z "},"š":{"ha":619,"x_min":68,"x_max":569,"o":"m 261 774 l 114 969 l 158 1000 l 315 885 l 474 1000 l 514 969 l 368 774 l 261 774 m 292 -14 q 178 -5 240 -14 q 68 21 115 4 l 86 203 l 154 203 l 183 88 q 290 71 233 71 q 393 94 357 71 q 429 163 429 118 q 409 217 429 199 q 336 254 389 236 l 208 299 q 105 368 139 324 q 71 485 71 413 q 136 640 71 585 q 332 696 201 696 q 437 685 382 696 q 539 654 492 675 l 519 489 l 454 489 l 425 592 q 329 611 382 611 q 240 589 272 611 q 207 528 207 567 q 224 472 207 493 q 283 438 242 451 l 422 392 q 535 322 500 365 q 569 196 569 278 q 497 43 569 100 q 292 -14 424 -14 z "},"ş":{"ha":618,"x_min":63,"x_max":563,"o":"m 257 -306 q 182 -292 215 -306 l 193 -243 q 236 -253 214 -253 q 302 -231 278 -253 q 326 -179 326 -208 q 306 -137 326 -154 q 240 -119 285 -121 l 232 -99 l 263 -12 q 160 -2 214 -11 q 63 21 106 7 l 81 203 l 147 203 l 176 88 q 285 71 229 71 q 388 96 351 71 q 424 169 424 121 q 404 219 424 201 q 333 254 385 236 l 204 299 q 101 368 135 324 q 67 485 67 413 q 132 640 67 585 q 328 696 197 696 q 535 654 438 696 l 515 489 l 450 489 l 421 592 q 325 611 376 611 q 235 589 268 611 q 203 528 203 567 q 220 472 203 493 q 281 438 238 451 l 418 392 q 529 323 496 367 q 563 201 563 279 q 499 51 563 108 q 319 -12 436 -6 l 304 -64 q 408 -92 372 -64 q 444 -162 444 -119 q 418 -234 444 -201 q 349 -286 392 -267 q 257 -306 306 -306 z "},"ŝ":{"ha":611,"x_min":58,"x_max":558,"o":"m 58 0 m 321 611 q 231 589 264 611 q 199 528 199 567 q 216 472 199 493 q 275 438 233 451 l 414 392 q 525 323 492 367 q 558 201 558 279 q 485 44 558 101 q 281 -14 413 -14 q 167 -5 229 -14 q 58 21 104 4 l 75 203 l 143 203 l 172 88 q 279 71 222 71 q 383 96 347 71 q 419 169 419 121 q 400 219 419 201 q 329 254 381 236 l 200 299 q 97 368 131 324 q 63 485 63 413 q 128 640 63 585 q 324 696 193 696 q 428 685 374 696 q 531 654 483 675 l 511 489 l 446 489 l 417 592 q 321 611 374 611 m 465 774 l 306 893 l 149 774 l 106 808 l 253 1004 l 358 1004 l 506 808 l 465 774 z "},"ș":{"ha":618,"x_min":63,"x_max":563,"o":"m 325 611 q 235 589 268 611 q 203 528 203 567 q 220 472 203 493 q 281 438 238 451 l 418 392 q 529 323 496 367 q 563 201 563 279 q 490 44 563 101 q 285 -14 418 -14 q 172 -5 233 -14 q 63 21 110 4 l 81 203 l 147 203 l 176 88 q 285 71 229 71 q 388 96 351 71 q 424 169 424 121 q 404 219 424 201 q 333 254 385 236 l 204 299 q 101 368 135 324 q 67 485 67 413 q 132 640 67 585 q 328 696 197 696 q 535 654 438 696 l 515 489 l 450 489 l 421 592 q 325 611 376 611 m 288 -321 l 232 -314 l 246 -61 l 361 -35 l 390 -64 l 288 -321 z "},"ṣ":{"ha":611,"x_min":58,"x_max":558,"o":"m 58 0 m 321 611 q 231 589 264 611 q 199 528 199 567 q 216 472 199 493 q 275 438 233 451 l 414 392 q 525 323 492 367 q 558 201 558 279 q 485 44 558 101 q 281 -14 413 -14 q 167 -5 229 -14 q 58 21 104 4 l 75 203 l 143 203 l 172 88 q 279 71 222 71 q 383 96 347 71 q 419 169 419 121 q 400 219 419 201 q 329 254 381 236 l 200 299 q 97 368 131 324 q 63 485 63 413 q 128 640 63 585 q 324 696 193 696 q 428 685 374 696 q 531 654 483 675 l 511 489 l 446 489 l 417 592 q 321 611 374 611 m 411 -165 q 380 -236 411 -207 q 307 -265 349 -265 q 232 -236 264 -265 q 200 -165 200 -207 q 233 -92 200 -124 q 307 -60 265 -60 q 380 -91 349 -60 q 411 -165 411 -122 z "},"ß":{"ha":868,"x_min":40,"x_max":844,"o":"m 603 -14 q 507 -6 547 -14 q 415 21 467 3 l 432 194 l 494 194 l 521 78 q 607 63 560 63 q 696 143 696 63 q 663 223 696 186 q 565 310 631 260 q 460 406 496 364 q 424 499 424 447 q 439 561 424 538 q 486 615 454 585 q 542 681 522 649 q 561 769 561 713 q 536 850 561 811 q 446 889 511 889 q 343 846 371 889 q 315 722 315 803 l 315 89 l 353 63 l 353 0 l 40 0 l 40 58 l 154 89 l 154 593 l 42 593 l 42 651 l 154 696 q 235 906 154 831 q 453 981 317 981 q 590 952 531 981 q 683 877 650 924 q 715 778 715 831 q 697 707 715 735 q 639 643 678 679 q 590 590 606 613 q 574 535 574 567 q 596 488 574 511 q 671 424 618 465 q 799 306 753 361 q 844 178 844 251 q 781 37 844 88 q 603 -14 718 -14 z "},"ſ":{"ha":522,"x_min":42,"x_max":599,"o":"m 42 58 l 156 89 l 156 593 l 43 593 l 43 651 l 156 696 q 236 930 156 846 q 458 1014 317 1014 q 539 1003 494 1014 q 599 982 583 993 l 575 796 l 499 796 l 476 900 q 424 910 450 910 q 339 865 360 910 q 318 728 318 819 l 319 93 l 481 64 l 481 0 l 42 0 l 42 58 z "},"t":{"ha":486,"x_min":24,"x_max":467,"o":"m 447 17 q 343 -4 406 4 q 243 -12 281 -12 q 149 18 175 -12 q 124 97 124 49 l 124 593 l 24 593 l 24 653 l 138 699 l 211 838 l 285 838 l 285 683 l 467 683 l 467 583 l 285 594 l 285 106 l 447 75 l 447 17 z "},"ŧ":{"ha":486,"x_min":24,"x_max":467,"o":"m 285 594 l 285 425 l 444 425 l 444 353 l 285 353 l 285 106 l 447 75 l 447 17 q 343 -4 406 4 q 243 -12 281 -12 q 149 18 175 -12 q 124 97 124 49 l 124 353 l 42 353 l 42 425 l 124 425 l 124 593 l 24 593 l 24 653 l 138 699 l 211 838 l 285 838 l 285 683 l 467 683 l 467 583 l 285 594 z "},"ť":{"ha":486,"x_min":29,"x_max":496,"o":"m 353 1036 l 408 1036 l 496 1006 l 451 726 l 404 726 l 353 1036 m 453 17 q 349 -4 411 4 q 249 -12 286 -12 q 155 18 181 -12 q 129 97 129 49 l 129 593 l 29 593 l 29 653 l 143 699 l 217 838 l 290 838 l 290 683 l 472 683 l 472 583 l 290 594 l 290 106 l 453 75 l 453 17 z "},"ţ":{"ha":486,"x_min":29,"x_max":472,"o":"m 219 -306 q 146 -292 179 -306 l 157 -243 q 199 -253 176 -253 q 265 -231 240 -253 q 290 -179 290 -208 q 269 -137 290 -154 q 203 -119 247 -121 l 194 -99 l 225 -11 q 129 97 129 -3 l 129 593 l 29 593 l 29 653 l 143 699 l 217 838 l 290 838 l 290 683 l 472 683 l 472 583 l 290 594 l 290 106 l 453 75 l 453 17 q 283 -11 378 -3 l 267 -64 q 372 -92 336 -64 q 408 -162 408 -119 q 382 -234 408 -201 q 313 -286 356 -267 q 219 -306 269 -306 z "},"ț":{"ha":486,"x_min":29,"x_max":472,"o":"m 249 -12 q 155 18 181 -12 q 129 97 129 49 l 129 593 l 29 593 l 29 653 l 143 699 l 217 838 l 290 838 l 290 683 l 472 683 l 472 583 l 290 594 l 290 106 l 453 75 l 453 17 q 349 -4 411 4 q 249 -12 286 -12 m 188 -314 l 203 -61 l 318 -35 l 347 -64 l 243 -321 l 188 -314 z "},"ṭ":{"ha":486,"x_min":24,"x_max":467,"o":"m 24 0 m 447 17 q 343 -4 406 4 q 243 -12 281 -12 q 149 18 175 -12 q 124 97 124 49 l 124 593 l 24 593 l 24 653 l 138 699 l 211 838 l 285 838 l 285 683 l 467 683 l 467 583 l 285 594 l 285 106 l 447 75 l 447 17 m 349 -165 q 317 -236 349 -207 q 244 -265 286 -265 q 169 -236 201 -265 q 138 -165 138 -207 q 170 -92 138 -124 q 244 -60 203 -60 q 317 -91 286 -60 q 349 -165 349 -122 z "},"u":{"ha":850,"x_min":21,"x_max":818,"o":"m 818 17 q 668 -7 729 -7 q 589 14 625 -7 q 546 69 553 35 q 431 10 496 35 q 306 -14 365 -14 q 175 32 215 -14 q 135 147 135 78 l 135 574 l 21 589 l 21 643 l 246 696 l 297 696 l 297 185 q 318 113 297 136 q 393 90 339 90 q 466 103 424 90 q 540 135 508 117 l 540 574 l 426 589 l 426 643 l 650 696 l 703 696 l 703 103 l 818 69 l 818 17 z "},"ú":{"ha":853,"x_min":21,"x_max":817,"o":"m 294 775 l 263 815 l 479 1003 l 606 953 l 606 924 l 294 775 m 817 17 q 668 -7 731 -7 q 588 14 625 -7 q 546 69 551 35 q 429 10 494 35 q 304 -14 364 -14 q 175 32 215 -14 q 135 147 135 78 l 135 574 l 21 589 l 21 643 l 244 696 l 297 696 l 297 185 q 318 113 297 136 q 393 90 339 90 q 465 103 424 90 q 540 135 507 117 l 540 574 l 425 589 l 425 643 l 650 696 l 703 696 l 703 103 l 817 69 l 817 17 z "},"ŭ":{"ha":850,"x_min":21,"x_max":818,"o":"m 21 0 m 818 17 q 668 -7 729 -7 q 589 14 625 -7 q 546 69 553 35 q 431 10 496 35 q 306 -14 365 -14 q 175 32 215 -14 q 135 147 135 78 l 135 574 l 21 589 l 21 643 l 246 696 l 297 696 l 297 185 q 318 113 297 136 q 393 90 339 90 q 466 103 424 90 q 540 135 508 117 l 540 574 l 426 589 l 426 643 l 650 696 l 703 696 l 703 103 l 818 69 l 818 17 m 418 799 q 291 847 325 799 q 257 976 257 894 l 325 979 q 419 894 325 894 q 524 979 524 894 l 590 976 q 418 799 590 799 z "},"ǔ":{"ha":850,"x_min":21,"x_max":818,"o":"m 21 0 m 818 17 q 668 -7 729 -7 q 589 14 625 -7 q 546 69 553 35 q 431 10 496 35 q 306 -14 365 -14 q 175 32 215 -14 q 135 147 135 78 l 135 574 l 21 589 l 21 643 l 246 696 l 297 696 l 297 185 q 318 113 297 136 q 393 90 339 90 q 466 103 424 90 q 540 135 508 117 l 540 574 l 426 589 l 426 643 l 650 696 l 703 696 l 703 103 l 818 69 l 818 17 m 268 1008 l 425 893 l 585 1008 l 625 978 l 479 782 l 372 782 l 225 978 l 268 1008 z "},"û":{"ha":853,"x_min":21,"x_max":817,"o":"m 565 774 l 406 893 l 249 774 l 206 808 l 353 1004 l 458 1004 l 606 808 l 565 774 m 817 17 q 668 -7 731 -7 q 588 14 625 -7 q 546 69 551 35 q 429 10 494 35 q 304 -14 364 -14 q 175 32 215 -14 q 135 147 135 78 l 135 574 l 21 589 l 21 643 l 244 696 l 297 696 l 297 185 q 318 113 297 136 q 393 90 339 90 q 465 103 424 90 q 540 135 507 117 l 540 574 l 425 589 l 425 643 l 650 696 l 703 696 l 703 103 l 817 69 l 817 17 z "},"ȕ":{"ha":850,"x_min":21,"x_max":818,"o":"m 21 0 m 818 17 q 668 -7 729 -7 q 589 14 625 -7 q 546 69 553 35 q 431 10 496 35 q 306 -14 365 -14 q 175 32 215 -14 q 135 147 135 78 l 135 574 l 21 589 l 21 643 l 246 696 l 297 696 l 297 185 q 318 113 297 136 q 393 90 339 90 q 466 103 424 90 q 540 135 508 117 l 540 574 l 426 589 l 426 643 l 650 696 l 703 696 l 703 103 l 818 69 l 818 17 m 336 763 l 126 982 l 126 1011 l 246 1011 l 374 789 l 336 763 m 560 763 l 350 982 l 350 1011 l 469 1011 l 597 789 l 560 763 z "},"ü":{"ha":853,"x_min":21,"x_max":817,"o":"m 353 894 q 325 828 353 856 q 258 801 297 801 q 190 828 219 801 q 160 894 160 856 q 190 960 160 932 q 258 988 219 988 q 325 960 297 988 q 353 894 353 933 m 657 894 q 628 828 657 856 q 563 801 600 801 q 494 828 522 801 q 465 894 465 856 q 494 960 465 933 q 563 988 522 988 q 628 960 600 988 q 657 894 657 932 m 817 17 q 668 -7 731 -7 q 588 14 625 -7 q 546 69 551 35 q 429 10 494 35 q 304 -14 364 -14 q 175 32 215 -14 q 135 147 135 78 l 135 574 l 21 589 l 21 643 l 244 696 l 297 696 l 297 185 q 318 113 297 136 q 393 90 339 90 q 465 103 424 90 q 540 135 507 117 l 540 574 l 425 589 l 425 643 l 650 696 l 703 696 l 703 103 l 817 69 l 817 17 z "},"ǘ":{"ha":850,"x_min":21,"x_max":818,"o":"m 21 0 m 818 17 q 668 -7 729 -7 q 589 14 625 -7 q 546 69 553 35 q 431 10 496 35 q 306 -14 365 -14 q 175 32 215 -14 q 135 147 135 78 l 135 574 l 21 589 l 21 643 l 246 696 l 297 696 l 297 185 q 318 113 297 136 q 393 90 339 90 q 466 103 424 90 q 540 135 508 117 l 540 574 l 426 589 l 426 643 l 650 696 l 703 696 l 703 103 l 818 69 l 818 17 m 369 832 q 342 767 369 793 q 275 740 314 740 q 206 767 235 740 q 176 832 176 793 q 206 899 176 871 q 275 926 235 926 q 341 899 313 926 q 369 832 369 871 m 672 832 q 644 767 672 793 q 578 740 617 740 q 510 767 539 740 q 481 832 481 793 q 510 899 481 871 q 578 926 539 926 q 644 899 615 926 q 672 832 672 871 m 371 964 l 339 1004 l 554 1186 l 682 1142 l 682 1111 l 371 964 z "},"ǚ":{"ha":850,"x_min":21,"x_max":818,"o":"m 21 0 m 818 17 q 668 -7 729 -7 q 589 14 625 -7 q 546 69 553 35 q 431 10 496 35 q 306 -14 365 -14 q 175 32 215 -14 q 135 147 135 78 l 135 574 l 21 589 l 21 643 l 246 696 l 297 696 l 297 185 q 318 113 297 136 q 393 90 339 90 q 466 103 424 90 q 540 135 508 117 l 540 574 l 426 589 l 426 643 l 650 696 l 703 696 l 703 103 l 818 69 l 818 17 m 369 832 q 342 767 369 793 q 275 740 314 740 q 206 767 235 740 q 176 832 176 793 q 206 899 176 871 q 275 926 235 926 q 341 899 313 926 q 369 832 369 871 m 672 832 q 644 767 672 793 q 578 740 617 740 q 510 767 539 740 q 481 832 481 793 q 510 899 481 871 q 578 926 539 926 q 644 899 615 926 q 672 832 672 871 m 376 969 l 226 1154 l 258 1186 l 429 1076 l 599 1186 l 629 1154 l 482 969 l 376 969 z "},"ǜ":{"ha":850,"x_min":21,"x_max":818,"o":"m 21 0 m 818 17 q 668 -7 729 -7 q 589 14 625 -7 q 546 69 553 35 q 431 10 496 35 q 306 -14 365 -14 q 175 32 215 -14 q 135 147 135 78 l 135 574 l 21 589 l 21 643 l 246 696 l 297 696 l 297 185 q 318 113 297 136 q 393 90 339 90 q 466 103 424 90 q 540 135 508 117 l 540 574 l 426 589 l 426 643 l 650 696 l 703 696 l 703 103 l 818 69 l 818 17 m 369 832 q 342 767 369 793 q 275 740 314 740 q 206 767 235 740 q 176 832 176 793 q 206 899 176 871 q 275 926 235 926 q 341 899 313 926 q 369 832 369 871 m 672 832 q 644 767 672 793 q 578 740 617 740 q 510 767 539 740 q 481 832 481 793 q 510 899 481 871 q 578 926 539 926 q 644 899 615 926 q 672 832 672 871 m 483 964 l 168 1111 l 172 1142 l 297 1186 l 511 1004 l 483 964 z "},"ǖ":{"ha":850,"x_min":21,"x_max":818,"o":"m 21 0 m 818 17 q 668 -7 729 -7 q 589 14 625 -7 q 546 69 553 35 q 431 10 496 35 q 306 -14 365 -14 q 175 32 215 -14 q 135 147 135 78 l 135 574 l 21 589 l 21 643 l 246 696 l 297 696 l 297 185 q 318 113 297 136 q 393 90 339 90 q 466 103 424 90 q 540 135 508 117 l 540 574 l 426 589 l 426 643 l 650 696 l 703 696 l 703 103 l 818 69 l 818 17 m 369 832 q 342 767 369 793 q 275 740 314 740 q 206 767 235 740 q 176 832 176 793 q 206 899 176 871 q 275 926 235 926 q 341 899 313 926 q 369 832 369 871 m 672 832 q 644 767 672 793 q 578 740 617 740 q 510 767 539 740 q 481 832 481 793 q 510 899 481 871 q 578 926 539 926 q 644 899 615 926 q 672 832 672 871 m 265 1124 l 589 1124 l 589 1026 l 265 1026 l 265 1124 z "}}}
